<svg width="120" height="120" viewBox="0 0 120 120" fill="none" xmlns="http://www.w3.org/2000/svg">
<path d="M86.6098 18.045L86.3848 18.18C78.8698 22.38 72.0448 24.855 65.5198 25.755C55.2898 27.195 45.8848 24.915 35.9398 18.57L35.7148 18.435L19.9648 33.705L20.1898 33.945C29.3398 43.92 29.6098 52.44 29.8648 60.69C29.9698 63.975 30.0748 67.365 30.7498 70.965L30.8548 71.565L87.5698 19.05L86.6249 18.06L86.6098 18.045Z" fill="#DA1218"/>
<path d="M88.9795 20.565L88.7395 20.79L31.3945 73.905L31.4395 74.1C31.9945 76.08 32.6995 77.955 33.5845 79.86C34.5895 81.99 35.9395 84.015 37.7095 86.01L37.9345 86.265L98.2795 30.39L88.9795 20.565Z" fill="white"/>
<path d="M99.7353 31.905L39.4053 87.78L39.6603 88.02C45.2253 93.405 53.2353 97.83 60.9753 102.105L61.1403 102.195L62.7753 101.235L63.9603 100.545C76.2303 93.27 85.0953 88.02 89.2053 78.075C91.1553 73.335 91.3353 68.28 91.5303 62.94C91.8603 54.135 92.2353 44.16 100.53 33.135L100.695 32.91L99.7503 31.905H99.7353Z" fill="#1E68A5"/>
<path d="M87.06 15C79.14 19.665 71.94 22.41 65.16 23.355C54.645 24.84 45.105 22.005 35.385 15.345L16.5 33.66C34.065 50.91 22.62 62.28 31.38 80.895C36.42 91.59 48.66 98.085 61.155 105C62.52 104.19 63.855 103.41 65.16 102.645C77.85 95.13 87.015 89.67 91.425 79.005C97.05 65.31 89.085 50.61 103.875 32.775L87.06 15.015V15ZM31.05 70.905C30.39 67.335 30.285 63.975 30.18 60.69C29.925 52.38 29.655 43.8 20.415 33.735C23.295 30.945 33.39 21.15 35.745 18.87C45.72 25.23 55.245 27.555 65.55 26.1C72.135 25.185 79.035 22.68 86.535 18.48C86.685 18.63 86.865 18.825 87.06 19.035L31.035 70.905H31.05ZM37.965 85.785C36.315 83.91 34.92 81.9 33.885 79.71C32.955 77.73 32.265 75.84 31.755 73.995L88.965 21.03C91.515 23.73 95.22 27.63 97.8 30.36L37.965 85.77V85.785ZM91.17 62.925C90.975 68.235 90.795 73.26 88.875 77.94C84.81 87.795 75.975 93.03 63.765 100.26L62.58 100.95C62.58 100.95 61.845 101.385 61.11 101.82C53.085 97.38 45.375 93.105 39.87 87.795L99.705 32.385C99.9 32.595 100.08 32.79 100.23 32.94C91.875 44.04 91.5 54.045 91.17 62.94V62.925Z" fill="#D99F62"/>
<path d="M39.0145 77.235L40.5745 78.93L41.1295 78.42C41.6095 77.97 41.3395 77.46 40.9345 76.995C40.4095 76.425 39.9445 76.365 39.5245 76.755L38.9995 77.25L39.0145 77.235ZM38.2795 76.425L38.6395 76.095C39.0745 75.69 39.2245 75.33 38.6395 74.7C38.0395 74.085 37.7845 74.235 37.3195 74.67L36.9595 75L38.2795 76.425ZM36.9445 73.485C37.9495 72.555 38.8045 72.84 39.4945 73.56C40.2445 74.37 40.2595 74.91 39.9895 75.465C40.6195 75.03 41.2945 75.225 42.0295 76.005C42.8395 76.875 43.1845 78.015 42.2095 78.93L40.2895 80.7L35.1445 75.15" fill="#1E68A5"/>
<path d="M42.7198 70.875L41.8498 70.11L42.5548 71.04L43.9048 73.245L44.8048 72.42L42.7498 70.86L42.7198 70.875ZM41.9998 68.82L48.3748 73.215L47.2648 74.25L45.7198 73.095L44.5048 74.22L45.5098 75.885L44.4148 76.89L40.5898 70.125" fill="#1E68A5"/>
<path d="M45.2994 65.76L48.8394 67.485L50.8494 68.625C49.6644 67.53 48.6444 66.6 47.8344 65.715L46.6944 64.47L47.7294 63.51L52.8744 69.06L51.8094 70.05L48.1794 68.355L46.3494 67.305C46.9644 67.89 48.4494 69.255 49.0944 69.96L50.3994 71.37L49.3794 72.315L44.2344 66.765" fill="#1E68A5"/>
<path d="M50.1602 61.245L55.2902 66.795L54.2552 67.755L49.1102 62.205L50.1452 61.245H50.1602ZM49.7402 58.785L49.6502 60.87L48.9002 61.575L48.6152 59.85" fill="#1E68A5"/>
<path d="M52.6053 58.995L54.8853 61.455L54.9153 61.425C54.4803 60.255 54.2253 59.01 53.8803 57.795L55.0503 56.715L55.9053 60.375L60.2553 62.22L59.0853 63.3L56.0853 62.01L56.2653 62.97L57.7353 64.56L56.7153 65.505L51.5703 59.955" fill="#1E68A5"/>
<path d="M62.8505 56.52C63.4955 57.21 64.0805 57.36 64.6055 56.88C64.9955 56.52 65.1155 55.965 64.3505 55.14L62.5805 53.22C62.3855 53.01 61.5005 52.11 60.7805 52.74C60.2555 53.22 60.3905 53.85 60.9905 54.51L62.8505 56.52ZM65.4005 57.72C63.5855 59.4 62.3855 58.095 61.4255 57.105C61.3955 57.075 61.3505 57.015 61.3205 56.985L60.6755 56.295C60.6755 56.295 60.6305 56.25 60.5555 56.19C60.2105 55.785 59.1755 54.6 59.0855 53.805C59.0105 52.725 59.5205 52.245 59.9555 51.855C61.6955 50.25 63.1655 51.72 64.1405 52.755L64.9655 53.655C66.0755 54.885 67.0955 56.16 65.4005 57.735" fill="#1E68A5"/>
<path d="M65.4151 48.45C65.1151 48.735 65.0551 49.185 65.3251 49.515C65.5351 49.71 65.8951 49.86 66.2851 49.8C67.4851 49.62 69.0901 49.14 69.9751 49.92C70.0801 50.01 70.1851 50.115 70.2751 50.205C71.2951 51.315 70.9651 52.425 70.2601 53.16C70.2001 53.22 70.1551 53.265 70.0951 53.31C69.1651 54.18 68.0701 54.6 66.7651 53.22C66.6601 53.085 66.5701 52.95 66.4501 52.815L67.4851 51.855C67.5901 51.975 67.6801 52.095 67.7701 52.215C68.3701 52.86 68.9251 52.86 69.3151 52.53C69.4201 52.41 69.4951 52.305 69.5701 52.185C69.6901 52.005 69.6151 51.6 69.3451 51.3C69.0901 51.03 68.7001 50.85 68.0851 50.94C66.7651 51.15 65.3401 51.6 64.2901 50.46C63.5401 49.56 63.6151 48.645 64.5001 47.745C65.5951 46.74 66.6601 46.56 67.7701 47.745C67.8301 47.805 67.8751 47.865 67.9351 47.925L66.9451 48.84C66.2551 48.09 65.7901 48.09 65.4151 48.435" fill="#1E68A5"/>
<path d="M70.4102 44.025L74.7902 48.75L73.7552 49.71L69.3752 44.985L68.1602 46.095L67.4102 45.285L70.8452 42.105L71.5952 42.915" fill="#1E68A5"/>
<path d="M73.6495 41.025L75.0595 42.555L75.7795 41.88C76.2745 41.43 76.1545 40.905 75.7645 40.485C75.2995 39.975 74.9095 39.855 74.3995 40.32L73.6495 41.01V41.025ZM73.8595 39.3C74.9695 38.28 75.8695 38.46 76.5745 39.165C77.3395 39.99 77.5195 40.785 76.9945 41.37C78.0295 40.665 78.5995 41.475 79.0195 41.91C79.5295 42.435 80.4295 43.335 80.6395 43.14L80.7295 43.245C80.3245 43.62 79.9195 43.995 79.5295 44.355C79.0945 43.995 78.7345 43.56 78.3145 43.245C78.1945 43.11 78.0745 42.99 77.9695 42.87C77.5495 42.42 77.1595 42.15 76.3945 42.87L75.8545 43.38L78.0595 45.75L77.0245 46.71L71.8945 41.16" fill="#1E68A5"/>
<path d="M79.7999 36.525L78.9299 35.76H78.9149L79.6199 36.705L80.9699 38.91L81.8699 38.085L79.8149 36.54L79.7999 36.525ZM79.0799 34.47L85.4549 38.865L84.3449 39.9L82.7999 38.745L81.5849 39.87L82.5899 41.535L81.4949 42.54L77.6699 35.775" fill="#1E68A5"/>
<path d="M86.4599 35.16L83.3699 30.51L84.4799 29.475L88.4249 36.12L87.0449 37.395L80.6699 32.985L81.7799 31.98L86.2799 35.34L87.2549 36.225" fill="#1E68A5"/>
<path d="M88.2895 28.68L87.4195 27.915C87.4195 27.93 88.1245 28.86 88.1245 28.86L89.4745 31.065L90.3595 30.24L88.3045 28.695L88.2895 28.68ZM87.5545 26.61L93.9295 31.005L92.8195 32.04L91.2745 30.885L90.0595 32.01L91.0645 33.675L89.9695 34.68L86.1445 27.915" fill="#1E68A5"/>
<path d="M40.6646 37.725L41.3996 38.535L39.4946 40.305L40.8146 41.715L42.5996 40.065L43.3346 40.875L41.5496 42.525L43.8746 45.03L42.8546 45.975L37.7246 40.44" fill="#D99F62"/>
<path d="M44.1301 35.805C43.4851 36.405 43.9201 37.05 44.3401 37.515L46.1101 39.42C46.9051 40.29 47.4601 40.425 47.8951 40.02C48.4051 39.555 48.0901 39.015 47.3251 38.19L48.3601 37.23C48.8551 37.83 50.3401 39.315 48.7651 40.785C47.3851 42.06 46.3651 41.835 44.8051 40.14L43.9351 39.21C42.2251 37.365 42.0301 36.285 43.2901 35.085C44.5951 33.87 45.6451 34.35 46.6351 35.415L45.6151 36.36C44.9701 35.685 44.5201 35.55 44.1601 35.82" fill="#D99F62"/>
</svg>
