<svg width="35" height="36" viewBox="0 0 35 36" fill="none" xmlns="http://www.w3.org/2000/svg">
<path fill-rule="evenodd" clip-rule="evenodd" d="M6.07153 10.8572C6.07153 6.91233 9.2695 3.71436 13.2144 3.71436H21.7857C25.7306 3.71436 28.9286 6.91232 28.9286 10.8572V27.9847C28.9286 31.6328 24.661 33.6128 21.8754 31.257L18.4226 28.3369C17.8901 27.8865 17.1101 27.8865 16.5776 28.3369L13.1247 31.2571C10.3392 33.6129 6.07153 31.6329 6.07153 27.9847V10.8572ZM13.2144 6.5715C10.8475 6.5715 8.92868 8.49028 8.92868 10.8572V27.9847C8.92868 29.2008 10.3512 29.8607 11.2797 29.0755L14.7326 26.1553C16.3302 24.8042 18.67 24.8042 20.2676 26.1553L23.7204 29.0754C24.6489 29.8607 26.0715 29.2007 26.0715 27.9847V10.8572C26.0715 8.49028 24.1527 6.5715 21.7857 6.5715H13.2144Z" fill="#FF6100"/>
<path fill-rule="evenodd" clip-rule="evenodd" d="M17.5001 10.8572C18.289 10.8572 18.9286 11.4968 18.9286 12.2857V13.7143H20.3572C21.1462 13.7143 21.7858 14.3539 21.7858 15.1429C21.7858 15.9319 21.1462 16.5715 20.3572 16.5715H18.9286V18C18.9286 18.789 18.289 19.4286 17.5001 19.4286C16.7111 19.4286 16.0715 18.789 16.0715 18V16.5715H14.6429C13.8539 16.5715 13.2144 15.9319 13.2144 15.1429C13.2144 14.3539 13.8539 13.7143 14.6429 13.7143H16.0715V12.2857C16.0715 11.4968 16.7111 10.8572 17.5001 10.8572Z" fill="#FF6100"/>
</svg>
