<svg width="24" height="24" viewBox="0 0 24 24" fill="none" xmlns="http://www.w3.org/2000/svg">
<path fill-rule="evenodd" clip-rule="evenodd" d="M8 3C8.55229 3 9 3.44772 9 4V5H15V4C15 3.44772 15.4477 3 16 3C16.5523 3 17 3.44772 17 4V5.02714C17.0868 5.03193 17.1707 5.03756 17.2518 5.04419C17.8139 5.09012 18.3306 5.18868 18.816 5.43597C19.5686 5.81947 20.1805 6.43139 20.564 7.18404C20.8113 7.66937 20.9099 8.18608 20.9558 8.74817C21 9.28936 21 9.95372 21 10.7587V15.2413C21 16.0463 21 16.7106 20.9558 17.2518C20.9099 17.8139 20.8113 18.3306 20.564 18.816C20.1805 19.5686 19.5686 20.1805 18.816 20.564C18.3306 20.8113 17.8139 20.9099 17.2518 20.9558C16.7106 21 16.0463 21 15.2413 21H15.2413H15.2413H8.75873H8.7587H8.75868C7.95372 21 7.28937 21 6.74818 20.9558C6.18608 20.9099 5.66937 20.8113 5.18404 20.564C4.43139 20.1805 3.81947 19.5686 3.43598 18.816C3.18868 18.3306 3.09012 17.8139 3.04419 17.2518C2.99998 16.7106 2.99999 16.0463 3 15.2413V15.2413V10.7587V10.7587C2.99999 9.95372 2.99998 9.28937 3.04419 8.74818C3.09012 8.18608 3.18868 7.66937 3.43598 7.18404C3.81947 6.43139 4.43139 5.81947 5.18404 5.43597C5.66937 5.18868 6.18608 5.09012 6.74818 5.04419C6.82933 5.03756 6.91325 5.03193 7 5.02714V4C7 3.44772 7.44772 3 8 3ZM6.91104 7.03755C6.47262 7.07337 6.24842 7.1383 6.09202 7.21799C5.7157 7.40973 5.40973 7.7157 5.21799 8.09202C5.1383 8.24842 5.07337 8.47262 5.03755 8.91104C5.03518 8.94013 5.03295 8.96977 5.03086 9H18.9691C18.9671 8.96977 18.9648 8.94013 18.9624 8.91104C18.9266 8.47262 18.8617 8.24842 18.782 8.09202C18.5903 7.7157 18.2843 7.40973 17.908 7.21799C17.7516 7.1383 17.5274 7.07337 17.089 7.03755C16.6389 7.00078 16.0566 7 15.2 7H8.8C7.94342 7 7.36113 7.00078 6.91104 7.03755ZM5 15.2V11H19V15.2C19 16.0566 18.9992 16.6389 18.9624 17.089C18.9266 17.5274 18.8617 17.7516 18.782 17.908C18.5903 18.2843 18.2843 18.5903 17.908 18.782C17.7516 18.8617 17.5274 18.9266 17.089 18.9624C16.6389 18.9992 16.0566 19 15.2 19H8.8C7.94342 19 7.36113 18.9992 6.91104 18.9624C6.47262 18.9266 6.24842 18.8617 6.09202 18.782C5.7157 18.5903 5.40973 18.2843 5.21799 17.908C5.1383 17.7516 5.07337 17.5274 5.03755 17.089C5.00078 16.6389 5 16.0566 5 15.2Z" fill="#111315"/>
</svg>
