<svg width="25" height="24" viewBox="0 0 25 24" xmlns="http://www.w3.org/2000/svg">
<path fill="#6ab151" d="M12.5 2C6.97715 2 2.5 6.47715 2.5 12C2.5 17.5228 6.97715 22 12.5 22C18.0228 22 22.5 17.5228 22.5 12C22.5 6.47715 18.0228 2 12.5 2Z" />
<path fill-rule="evenodd" clip-rule="evenodd" d="M16.2071 9.29289C16.5976 9.68342 16.5976 10.3166 16.2071 10.7071L12.2071 14.7071C11.8166 15.0976 11.1834 15.0976 10.7929 14.7071L8.79289 12.7071C8.40237 12.3166 8.40237 11.6834 8.79289 11.2929C9.18342 10.9024 9.81658 10.9024 10.2071 11.2929L11.5 12.5858L14.7929 9.29289C15.1834 8.90237 15.8166 8.90237 16.2071 9.29289Z" fill="#fff"/>
</svg>
