<svg width="56" height="56" viewBox="0 0 56 56" fill="none" xmlns="http://www.w3.org/2000/svg">
<path fill-rule="evenodd" clip-rule="evenodd" d="M28.0003 9.33334C17.691 9.33334 9.33366 17.6907 9.33366 28C9.33366 38.3093 17.691 46.6667 28.0003 46.6667C38.3096 46.6667 46.667 38.3093 46.667 28C46.667 17.6907 38.3096 9.33334 28.0003 9.33334ZM4.66699 28C4.66699 15.1134 15.1137 4.66667 28.0003 4.66667C40.887 4.66667 51.3337 15.1134 51.3337 28C51.3337 40.8866 40.887 51.3333 28.0003 51.3333C15.1137 51.3333 4.66699 40.8866 4.66699 28Z" fill="#6AB151"/>
<path fill-rule="evenodd" clip-rule="evenodd" d="M36.6502 21.6834C37.5615 22.5946 37.5615 24.072 36.6502 24.9832L27.3169 34.3166C26.4057 35.2278 24.9283 35.2278 24.0171 34.3166L19.3504 29.6499C18.4392 28.7387 18.4392 27.2613 19.3504 26.3501C20.2616 25.4389 21.739 25.4389 22.6502 26.3501L25.667 29.3668L33.3504 21.6834C34.2616 20.7722 35.739 20.7722 36.6502 21.6834Z" fill="#6AB151"/>
</svg>
