<svg width="24" height="25" viewBox="0 0 24 25" fill="none" xmlns="http://www.w3.org/2000/svg">
<path fill-rule="evenodd" clip-rule="evenodd" d="M6.29289 6.70586C6.68342 6.31533 7.31658 6.31533 7.70711 6.70586L12 10.9988L16.2929 6.70586C16.6834 6.31533 17.3166 6.31533 17.7071 6.70586C18.0976 7.09638 18.0976 7.72955 17.7071 8.12007L13.4142 12.413L17.7071 16.7059C18.0976 17.0964 18.0976 17.7295 17.7071 18.1201C17.3166 18.5106 16.6834 18.5106 16.2929 18.1201L12 13.8272L7.70711 18.1201C7.31658 18.5106 6.68342 18.5106 6.29289 18.1201C5.90237 17.7295 5.90237 17.0964 6.29289 16.7059L10.5858 12.413L6.29289 8.12007C5.90237 7.72955 5.90237 7.09638 6.29289 6.70586Z" fill="#6F767E"/>
</svg>
