<svg width="120" height="120" viewBox="0 0 120 120" fill="none" xmlns="http://www.w3.org/2000/svg">
<path d="M91.0789 70.85C90.3289 69.8 88.9789 66.75 86.6789 64.9C84.3789 63.05 81.1289 64.7 81.1289 64.7C83.9289 64.85 84.9789 65.7 84.6289 69.45C84.2789 73.15 87.1289 74.35 88.9289 74.9C90.7289 75.45 91.4789 77.35 91.4789 77.35L91.7289 74.4C95.3289 74.7 94.7289 71.35 94.7289 71.35C94.1789 73.1 91.8289 71.95 91.0789 70.85ZM87.7289 72.1C86.8289 70.8 87.6289 68.25 87.6289 68.25L88.7789 69.85C88.7789 69.85 88.2789 71.05 88.8789 71.7C89.4789 72.4 90.3289 72.05 90.3289 72.05L90.7289 72.6C90.7289 72.6 88.6289 73.35 87.7289 72.05V72.1Z" fill="#00193E"/>
<path d="M99.179 75.2C97.879 67.85 97.229 60.05 97.229 60.05C97.229 60.05 103.379 49.5 98.179 35.05C96.029 29 91.779 23.45 86.229 19.1C79.129 13.55 69.879 10 60.079 10C50.279 10 39.079 13.5 31.529 19.6C16.479 22.8 8.22901 27.5 8.22901 27.5C8.22901 27.5 2.97901 81.6 60.129 108.55C67.529 105.05 74.279 100.75 79.729 96.55C81.229 98.35 81.979 99.4 83.829 100.25C89.279 102.65 93.329 100.35 93.329 100.35C93.329 100.35 97.129 100.05 99.279 96.9C102.729 91.9 100.029 80.5 99.079 75.15L99.179 75.2ZM99.029 89.65C98.879 89.45 98.079 88.5 97.129 87.65C96.029 86.7 95.129 87.35 94.279 87.25C93.329 87.1 92.979 86.7 92.979 86.7C92.979 86.7 93.079 90.25 95.879 90.85C96.029 90.85 96.229 90.95 96.329 91.05C97.979 91.85 97.829 93.6 97.279 95.4C96.629 97.4 93.829 97.45 93.829 97.45L93.479 97.05L90.629 93.9L86.429 92.8C86.429 92.8 89.729 95.55 90.379 97.15C90.979 98.8 90.979 99.35 90.979 99.35C90.979 99.35 89.629 99.5 87.929 99.25C87.929 99.25 87.179 99.2 86.179 98.85C85.379 98.6 84.629 98.2 83.979 97.65C83.929 97.65 83.879 97.55 83.829 97.5C83.629 97.3 83.429 97.1 83.279 96.9C81.579 94.75 80.729 92.6 78.229 90.45C77.529 89.85 76.679 89.3 75.579 88.75C75.079 88.5 74.629 88.2 74.129 87.8C72.929 87.05 71.779 86.05 70.579 84.1C70.229 83.5 69.879 82.95 69.629 82.45C68.729 80.95 68.029 79.6 67.729 78.95C67.579 78.6 67.529 78.45 67.529 78.45C67.529 78.45 68.029 78 69.029 77.1C69.429 76.75 69.729 76.4 69.979 76.15C71.029 74.9 72.229 73.15 73.029 70.9C74.879 65.75 73.679 61.5 73.679 61.4C73.679 61.4 72.329 56.75 68.529 54.15C66.429 52.65 63.479 52.35 61.529 52.5C56.329 52.95 53.029 57.5 53.029 57.5C60.579 56.7 63.829 60.55 63.529 63.75C63.229 66.95 61.029 68.7 58.529 69.65C57.079 70.25 55.429 70.55 53.779 70.55C46.579 70.55 40.729 64.7 40.729 57.5C40.729 50.3 43.829 46.2 54.329 44C55.579 43.75 58.429 43.4 58.429 43.4C59.929 49.25 65.779 47.3 65.779 47.3C67.579 49.3 68.329 50.9 68.579 52.05C68.579 51.4 68.579 50.55 68.529 49.45C68.429 46.65 66.479 43.2 62.429 41C58.779 39 58.929 35.6 58.929 35.6C58.929 35.6 61.129 38.65 63.329 39.35C67.979 40.9 69.579 40.9 72.779 44.35C75.279 47 75.729 49.05 75.979 50.8C75.979 50.7 75.979 50.55 75.979 50.45C75.979 40.1 66.679 30.8 54.879 30.8C43.079 30.8 32.979 40.5 32.979 52.35C32.979 64.2 42.579 73.4 54.079 73.4C65.579 73.4 62.279 72.15 64.829 68.05C66.379 65.55 67.529 60.2 63.029 57.35C60.329 56 57.679 56.05 57.679 56.05C57.679 56.05 62.829 51.35 69.029 57.55C76.029 64.55 70.229 78.8 55.929 80.85C55.929 80.85 55.929 80.85 56.029 80.85C36.779 84.05 20.679 70.6 20.679 51.35C20.679 32.1 21.029 45.75 21.629 43.15C25.079 26.55 39.879 14.1 57.529 14.1C75.179 14.1 91.779 28.2 93.929 46.4C94.229 48.8 94.079 51.25 93.529 53.6L93.329 54.5C93.329 54.5 87.979 54.7 85.229 47.55C85.279 48.25 85.329 48.95 85.379 49.65C85.629 55.05 88.179 57.7 88.179 57.7C88.179 57.7 89.029 58.7 90.979 60.1C92.129 60.95 93.479 62.15 94.629 64.5V64.6C94.629 64.6 96.029 67.1 96.579 71.3C96.679 72.05 96.929 73.65 97.229 75.65C98.229 82.15 99.329 89.65 99.329 89.65C99.329 89.65 99.329 89.65 99.329 89.6L99.029 89.65ZM59.229 40.2C59.229 40.2 59.379 41.1 61.029 42.15C62.679 43.2 63.979 43.7 64.829 46.15C64.829 46.15 59.629 47.25 59.229 40.2Z" fill="#00193E"/>
<path d="M96.1297 91C96.0297 90.95 95.8797 90.9 95.7797 90.85C95.7797 90.85 96.9797 95.8 92.4297 96L93.7297 97.45C93.7297 97.45 96.5297 97.4 97.1797 95.4C97.7797 93.55 97.9297 91.75 96.1297 90.95V91Z" fill="white"/>
<path d="M87.9285 57.75C87.9285 57.75 85.3785 55.1 85.1285 49.7C84.4785 35.2 77.4285 19.3 52.6285 19.3C27.8285 19.3 26.5285 28.85 21.6285 42.4C20.8785 45.25 20.4785 48.25 20.4785 51.3C20.4785 70.6 36.5785 84.05 55.8285 80.8C56.9785 80.45 67.8285 77.05 68.2785 68C68.5785 61.75 65.6785 58.8 62.8785 57.35C67.3285 60.2 66.2285 65.55 64.6785 68.05C62.1285 72.15 56.5285 73.4 53.9285 73.4C42.4785 73.4 32.8285 64.15 32.8285 52.35C32.8285 40.55 42.9285 30.8 54.7285 30.8C66.5285 30.8 75.8285 40.15 75.8285 50.45C75.8285 60.75 77.2285 59.8 87.9285 57.65V57.75Z" fill="white"/>
<path d="M96.2793 71.35C95.7293 67.2 94.3793 64.65 94.3793 64.65L92.5293 68.1C92.5293 68.1 91.4293 66.3 88.7793 64.8C86.7293 63.65 83.5293 63.95 83.5293 63.95C84.5293 63.85 85.6793 64.05 86.6293 64.8C88.9293 66.65 90.2293 69.7 91.0293 70.75C91.7793 71.8 94.1293 73 94.6793 71.25C94.6793 71.25 94.9793 72.9 93.9293 73.8C94.3293 74.35 94.6293 75 94.8293 75.75C95.2793 77.7 92.6793 80.8 95.0793 85.55L92.8293 85.2L92.9293 86.65C92.9293 86.65 93.2793 87.05 94.2293 87.2C95.0793 87.3 96.0293 86.65 97.0793 87.6C98.1793 88.55 99.0293 89.65 99.0293 89.65C99.0293 89.65 96.6793 74.2 96.2793 71.3V71.35Z" fill="white"/>
<path d="M87.6285 68.25L88.7785 69.85C88.7785 69.85 88.2785 71.05 88.8785 71.7C89.4785 72.4 90.3285 72.05 90.3285 72.05L90.7285 72.6C90.7285 72.6 88.6285 73.35 87.7285 72.05C86.8285 70.75 87.6285 68.2 87.6285 68.2V68.25Z" fill="white"/>
<path d="M59.2285 40.2C59.2285 40.2 59.3785 41.1 61.0285 42.15C62.6785 43.2 63.9785 43.7 64.8285 46.15C64.8285 46.15 59.6285 47.25 59.2285 40.2Z" fill="white"/>
<path d="M79.779 96.6C74.229 100.95 67.729 105 60.129 108.6C11.929 85.85 8.12898 43.75 8.12898 31.2C8.12898 28.85 8.27898 27.55 8.27898 27.55C8.27898 27.55 8.32898 27.55 8.37898 27.5C8.37898 27.5 8.47898 27.45 8.52898 27.4C8.52898 27.4 8.62898 27.35 8.67898 27.3C8.82898 27.2 9.02898 27.15 9.22898 27C9.32898 27 9.42898 26.9 9.52898 26.85C9.87898 26.65 10.329 26.45 10.829 26.25C11.329 26 11.929 25.75 12.579 25.5C13.229 25.25 13.929 24.95 14.729 24.65C15.529 24.35 16.379 24.05 17.279 23.7C18.479 23.25 19.829 22.8 21.279 22.4C22.329 22.05 23.479 21.75 24.679 21.4C24.679 21.4 24.679 21.4 24.729 21.4C25.529 21.2 26.329 20.95 27.229 20.75C27.629 20.65 28.079 20.55 28.479 20.45C28.479 20.45 28.529 20.45 28.579 20.45C29.429 20.25 30.329 20.05 31.279 19.85C32.079 19.2 32.929 18.55 33.829 17.95C28.779 18.9 24.529 20 21.179 21.05C12.279 23.75 7.47898 26.45 7.27898 26.6L6.67898 26.95V27.65C6.57898 28.2 5.32898 41.65 11.179 58.65C14.629 68.6 19.829 77.7 26.579 85.7C35.029 95.65 46.029 103.85 59.279 110.1L59.879 110.35L60.479 110.1C67.829 106.65 74.479 102.55 80.379 97.9C80.129 97.6 79.829 97.25 79.529 96.85L79.779 96.6Z" fill="white"/>
<path d="M113.479 27.45V26.7C113.429 26.7 112.779 26.35 112.779 26.35C112.579 26.25 107.779 23.55 98.8785 20.8C94.9785 19.6 89.8785 18.3 83.7285 17.25C84.5785 17.85 85.4285 18.45 86.2785 19.1C102.929 22.3 112.079 27.5 112.079 27.5C112.079 27.5 113.779 52.3 99.1785 75.35C99.2785 75.95 99.4285 76.6 99.5285 77.3C106.929 66.05 110.329 54.45 111.929 46.1C113.979 35.35 113.479 27.75 113.429 27.45H113.479Z" fill="white"/>
<path d="M84.9789 47.6C87.7789 54.75 93.0789 54.55 93.0789 54.55L93.2789 53.65C93.8289 51.3 93.9789 48.85 93.6789 46.45C91.5289 28.25 76.0789 14.15 57.2789 14.15C38.4789 14.15 24.8789 26.6 21.3789 43.2C21.4289 42.95 21.4789 42.75 21.5289 42.5C26.4289 28.95 38.4789 19.4 52.5289 19.4C76.1289 19.4 83.6289 33.8 84.8789 47.7L84.9789 47.6Z" fill="#FFCB00"/>
<path d="M68.8287 57.55C62.6287 51.35 57.4787 56.05 57.4787 56.05C57.4787 56.05 68.8287 55.9 68.2287 68C67.7787 77.6 55.6787 80.85 55.6787 80.85C69.9787 78.75 75.7787 64.5 68.7787 57.55H68.8287Z" fill="#FFCB00"/>
<path d="M112.079 27.7C112.079 27.7 112.079 27.65 112.079 27.6C112.079 27.6 112.079 27.6 112.029 27.6C112.029 27.6 111.979 27.6 111.929 27.55C111.929 27.55 111.829 27.5 111.779 27.45C111.629 27.4 111.479 27.3 111.279 27.2C108.529 25.8 99.9287 21.9 86.4287 19.3C86.7787 19.55 87.1287 19.85 87.4287 20.15C87.7787 20.45 88.0787 20.7 88.4287 21C92.9787 25.05 96.4287 29.95 98.3287 35.3C98.4787 35.75 98.6787 36.25 98.7787 36.7C98.8787 37.05 98.9787 37.4 99.0787 37.75C99.0787 37.75 99.0787 37.75 99.0787 37.8C101.129 45.15 100.329 51.3 99.2287 55.3C98.3787 58.45 97.3287 60.25 97.3287 60.25C97.3287 60.25 97.9287 68 99.2787 75.4C99.2787 75.45 99.2787 75.5 99.2787 75.55C103.579 68.7 106.479 61.75 108.429 55.3C112.729 40.95 112.279 29.3 112.179 27.85L112.079 27.7Z" fill="#FFCB00"/>
<path d="M95.7785 90.85C93.0285 90.25 92.8785 86.7 92.8785 86.7L92.7785 85.25L95.0285 85.6C92.6785 80.85 95.2785 77.75 94.7785 75.8C94.5785 75.05 94.2785 74.4 93.8785 73.85C93.4285 74.25 92.7285 74.5 91.6285 74.4L91.3785 77.35C91.3785 77.35 90.5785 75.45 88.8285 74.9C87.0785 74.3 84.2285 73.15 84.5285 69.45C84.8785 65.75 83.8285 64.85 81.0285 64.7C81.0285 64.7 82.1285 64.15 83.4785 64.05C83.4785 64.05 86.6785 63.75 88.7285 64.9C91.3785 66.4 92.4785 68.2 92.4785 68.2L94.3285 64.75C93.2285 62.3 91.8285 61.1 90.6285 60.25C88.7285 58.85 87.8285 57.85 87.8285 57.85C77.4285 59.9 75.8285 55.3 75.7285 51C75.4785 49.25 75.0285 47.15 72.5285 44.55C69.3285 41.15 67.7285 41.1 63.0785 39.55C60.9285 38.85 58.6785 35.8 58.6785 35.8C58.6785 35.8 58.5285 39.2 62.1785 41.2C66.2785 43.45 68.1785 46.85 68.2785 49.65C68.2785 50.75 68.3285 51.55 68.3285 52.25C68.0785 51.1 67.3785 49.5 65.5285 47.5C65.5285 47.5 59.6785 49.45 58.1785 43.6C58.1785 43.6 55.3285 43.95 54.0785 44.2C43.5785 46.4 40.4785 52.4 40.4785 57.7C40.4785 63 46.3285 70.75 53.5285 70.75C60.7285 70.75 56.8285 70.45 58.2785 69.85C60.7785 68.85 62.9785 67.15 63.2785 63.95C63.5785 60.75 60.3785 56.9 52.7785 57.7C52.7785 57.7 56.0285 53.1 61.2785 52.7C63.2285 52.55 66.1785 52.85 68.2785 54.35C72.0785 56.95 73.4285 61.6 73.4285 61.6C73.4285 61.7 74.6285 65.95 72.7785 71.1C72.0785 73 71.1285 74.55 70.1785 75.75C69.9785 76 69.5285 76.55 68.7285 77.3C67.7285 78.2 67.2285 78.65 67.2285 78.65C67.2285 78.65 67.2785 78.8 67.4285 79.15C67.7285 79.85 68.4285 81.15 69.3285 82.65C69.6285 83.15 69.9285 83.7 70.2785 84.3C71.4285 86.25 72.6285 87.25 73.8285 88C74.2785 88.35 74.7785 88.65 75.2785 88.95C76.3285 89.5 77.1785 90.05 77.9285 90.65C80.4285 92.8 81.2785 94.95 82.9785 97.1C84.6785 99.25 87.6785 99.5 87.6785 99.5C89.0285 99.7 90.3285 99.65 90.7285 99.6C90.6285 98.7 90.4285 98.35 90.3285 98C90.2785 97.8 90.1785 97.6 90.1285 97.4C89.5285 95.75 86.1785 93.05 86.1785 93.05L90.3785 94.15L92.2785 96.25C96.8285 96 95.6285 91.1 95.6285 91.1L95.7785 90.85Z" fill="#FFCB00"/>
</svg>
