<svg width="24" height="24" viewBox="0 0 24 24" fill="none" xmlns="http://www.w3.org/2000/svg">
<path fill-rule="evenodd" clip-rule="evenodd" d="M5 6C5 4.34315 6.34315 3 8 3H12C13.6569 3 15 4.34315 15 6C15 7.38347 14.0635 8.54821 12.7899 8.89492C12.9255 9.23691 13 9.60975 13 10C13 10.5347 12.8601 11.0366 12.615 11.4714C12.806 11.5936 12.9822 11.7369 13.1404 11.8979C12.5883 12.2835 12.1177 12.7777 11.7595 13.3495C11.5761 13.1356 11.3039 13 11 13H7C6.44772 13 6 13.4477 6 14C6 14.5523 6.44772 15 7 15H11C11.0341 15 11.0678 14.9983 11.101 14.995C11.0348 15.3196 11 15.6558 11 16C11 17.4163 11.5889 18.6951 12.5351 19.6048C12.0032 20.4434 11.0666 21 10 21H6C4.34315 21 3 19.6569 3 18C3 16.9377 3.55209 16.0044 4.38499 15.4714C4.13986 15.0366 4 14.5347 4 14C4 13.4653 4.13986 12.9634 4.38499 12.5286C3.5521 11.9956 3 11.0623 3 10C3 8.61653 3.93647 7.45179 5.21009 7.10508C5.07451 6.76309 5 6.39025 5 6ZM10 9C10.5523 9 11 9.44772 11 10C11 10.5523 10.5523 11 10 11H6C5.44772 11 5 10.5523 5 10C5 9.44772 5.44772 9 6 9H10ZM12 7H8C7.44772 7 7 6.55228 7 6C7 5.44772 7.44772 5 8 5H12C12.5523 5 13 5.44772 13 6C13 6.55228 12.5523 7 12 7ZM10 17C10.5523 17 11 17.4477 11 18C11 18.5523 10.5523 19 10 19H6C5.44772 19 5 18.5523 5 18C5 17.4477 5.44772 17 6 17H10Z" fill="#111315"/>
<path fill-rule="evenodd" clip-rule="evenodd" d="M16 13C14.3431 13 13 14.3431 13 16C13 17.6569 14.3431 19 16 19C17.6569 19 19 17.6569 19 16C19 14.3431 17.6569 13 16 13ZM11 16C11 13.2386 13.2386 11 16 11C18.7614 11 21 13.2386 21 16C21 18.7614 18.7614 21 16 21C13.2386 21 11 18.7614 11 16Z" fill="#111315"/>
</svg>
