<svg width="16" height="16" viewBox="0 0 16 16" fill="none" xmlns="http://www.w3.org/2000/svg">
<path fill-rule="evenodd" clip-rule="evenodd" d="M7.99967 2.66665C5.05416 2.66665 2.66634 5.05446 2.66634 7.99998C2.66634 10.9455 5.05416 13.3333 7.99967 13.3333C10.9452 13.3333 13.333 10.9455 13.333 7.99998C13.333 5.05446 10.9452 2.66665 7.99967 2.66665ZM1.33301 7.99998C1.33301 4.31808 4.31778 1.33331 7.99967 1.33331C11.6816 1.33331 14.6663 4.31808 14.6663 7.99998C14.6663 11.6819 11.6816 14.6666 7.99967 14.6666C4.31778 14.6666 1.33301 11.6819 1.33301 7.99998Z" fill="#6F767E"/>
<path d="M7.99967 4.66669C7.63148 4.66669 7.33301 4.96516 7.33301 5.33335C7.33301 5.70154 7.63148 6.00002 7.99967 6.00002C8.36786 6.00002 8.66634 5.70154 8.66634 5.33335C8.66634 4.96516 8.36786 4.66669 7.99967 4.66669Z" fill="#6F767E"/>
<path d="M8.66634 8.00002C8.66634 7.63183 8.36786 7.33335 7.99967 7.33335C7.63148 7.33335 7.33301 7.63183 7.33301 8.00002V10.6667C7.33301 11.0349 7.63148 11.3334 7.99967 11.3334C8.36786 11.3334 8.66634 11.0349 8.66634 10.6667V8.00002Z" fill="#6F767E"/>
</svg>
