<svg width="24" height="24" viewBox="0 0 24 24" fill="none" xmlns="http://www.w3.org/2000/svg">
<path fill-rule="evenodd" clip-rule="evenodd" d="M17 17H7L7 19H17V17ZM5 15V19C5 20.1046 5.89543 21 7 21H17C18.1046 21 19 20.1046 19 19V15H5Z" fill="white"/>
<path fill-rule="evenodd" clip-rule="evenodd" d="M12 3C12.3513 3 12.6768 3.1843 12.8575 3.4855L15.2688 7.50434L19.3754 4.21913C19.701 3.95858 20.1542 3.92753 20.5124 4.14124C20.8706 4.35495 21.0585 4.76852 20.9839 5.17889L18.8346 17H5.16547L3.01618 5.17889C2.94157 4.76852 3.12949 4.35495 3.48767 4.14124C3.84585 3.92753 4.29905 3.95858 4.62474 4.21913L8.73125 7.50434L11.1426 3.4855C11.3233 3.1843 11.6488 3 12 3ZM12 5.94365L9.26884 10.4957L5.46192 7.45012L6.83462 15H17.1655L18.5382 7.45012L14.7313 10.4957L12 5.94365Z" fill="white"/>
</svg>
