<svg width="16" height="17" viewBox="0 0 16 17" fill="none" xmlns="http://www.w3.org/2000/svg">
<path fill-rule="evenodd" clip-rule="evenodd" d="M11.334 11.7463H4.66732L4.66732 13.0796H11.334V11.7463ZM3.33398 10.413V13.0796C3.33398 13.816 3.93094 14.413 4.66732 14.413H11.334C12.0704 14.413 12.6673 13.816 12.6673 13.0796V10.413H3.33398Z" fill="#FF6100"/>
<path fill-rule="evenodd" clip-rule="evenodd" d="M8.00003 2.41296C8.23421 2.41296 8.45121 2.53583 8.57169 2.73663L10.1792 5.41586L12.9169 3.22572C13.134 3.05202 13.4362 3.03132 13.675 3.17379C13.9137 3.31626 14.039 3.59198 13.9893 3.86555L12.5564 11.7463H3.44365L2.01079 3.86555C1.96104 3.59198 2.08633 3.31626 2.32511 3.17379C2.5639 3.03132 2.86603 3.05202 3.08316 3.22572L5.82084 5.41586L7.42837 2.73663C7.54885 2.53583 7.76586 2.41296 8.00003 2.41296ZM8.00003 4.3754L6.17923 7.41007L3.64128 5.37971L4.55642 10.413H11.4436L12.3588 5.37971L9.82084 7.41007L8.00003 4.3754Z" fill="#FF6100"/>
</svg>
