<svg width="64" height="64" viewBox="0 0 64 64" fill="none" xmlns="http://www.w3.org/2000/svg">
<g clip-path="url(#clip0_11088_169631)">
<path opacity="0.12" d="M6 25.8668C6 22.8799 6 21.3864 6.58131 20.2455C7.09261 19.242 5.57776 18.1363 6.58131 17.625C7.72216 17.0437 11.5464 17.3335 14.5333 17.3335H24.7261C26.6406 17.3335 27.5979 17.3335 28.4429 17.625C29.1901 17.8827 55.3333 18.3335 55.3333 18.3335C55.972 18.959 58.4771 23.6211 59.3333 25.3335L58 52.3335L52.3333 54.6668H11.3333L6.58131 50.0001L6 28.0001V25.8668Z" fill="url(#paint0_linear_11088_169631)"/>
<path d="M35.3333 18.0002L32.3587 12.0506C31.5024 10.3383 31.0744 9.48211 30.4357 8.85659C29.8709 8.30344 29.1901 7.88275 28.4429 7.62499C27.5979 7.3335 26.6406 7.3335 24.7261 7.3335H14.5333C11.5464 7.3335 10.0529 7.3335 8.91205 7.9148C7.90851 8.42611 7.09261 9.242 6.58131 10.2455C6 11.3864 6 12.8799 6 15.8668V18.0002M6 18.0002H46.5333C51.0139 18.0002 53.2539 18.0002 54.9653 18.8721C56.4707 19.6391 57.6944 20.8629 58.4613 22.3682C59.3333 24.0795 59.3333 26.3196 59.3333 30.8002V42.5335C59.3333 47.014 59.3333 49.254 58.4613 50.9655C57.6944 52.4708 56.4707 53.6946 54.9653 54.4615C53.2539 55.3335 51.0139 55.3335 46.5333 55.3335H18.8C14.3196 55.3335 12.0794 55.3335 10.3681 54.4615C8.86277 53.6946 7.63893 52.4708 6.87195 50.9655C6 49.254 6 47.014 6 42.5335V18.0002ZM26 30.0002L39.3333 43.3335M39.3333 30.0002L26 43.3335" stroke="url(#paint1_linear_11088_169631)" stroke-width="2.66667" stroke-linecap="round" stroke-linejoin="round"/>
</g>
<defs>
<linearGradient id="paint0_linear_11088_169631" x1="32.6667" y1="17.2612" x2="32.6667" y2="54.6668" gradientUnits="userSpaceOnUse">
<stop stop-color="#FFD7C2"/>
<stop offset="1" stop-color="#FF6100"/>
</linearGradient>
<linearGradient id="paint1_linear_11088_169631" x1="32.6667" y1="7.3335" x2="32.6667" y2="55.3335" gradientUnits="userSpaceOnUse">
<stop stop-color="#FFD7C2"/>
<stop offset="1" stop-color="#FF6100"/>
</linearGradient>
<clipPath id="clip0_11088_169631">
<rect width="64" height="64" fill="white"/>
</clipPath>
</defs>
</svg>
