<svg width="105" height="88" viewBox="0 0 105 88" fill="none" xmlns="http://www.w3.org/2000/svg">
<path fill-rule="evenodd" clip-rule="evenodd" d="M41.1812 63.1484C43.4808 63.155 45.1597 63.7447 46.2232 64.9241C47.2839 66.1019 47.809 67.6189 47.8049 69.4737C47.8041 71.0069 47.574 72.4872 47.1262 73.9215C46.6785 75.3554 46.001 76.6204 45.0964 77.7179C44.1889 78.817 43.0422 79.6927 41.6567 80.3424C40.2679 80.9946 38.649 81.3186 36.7943 81.3132C36.3006 81.3132 35.9182 81.2971 35.6451 81.2726C35.3732 81.2474 35.139 81.2106 34.9399 81.1613L34.0212 84.8733L28.9213 87.0434L34.464 64.3174C34.9838 64.0981 35.54 63.9123 36.133 63.7666C36.7305 63.6193 37.3293 63.4981 37.9372 63.4C38.5427 63.3036 39.1212 63.2365 39.679 63.2018C40.2348 63.1637 40.7351 63.1484 41.1812 63.1484ZM26.7031 57.4366C27.594 57.4366 28.3915 57.5004 29.0966 57.6283C29.8006 57.7516 30.4246 57.9039 30.9684 58.0761C31.5138 58.2528 31.974 58.4386 32.3555 58.6393C32.7399 58.8363 33.0561 59.0097 33.3027 59.1582L31.3652 62.6786C30.7954 62.2809 30.0832 61.9466 29.2146 61.6722C28.3497 61.397 27.3126 61.2571 26.1001 61.2542C25.1612 61.2542 24.3633 61.4611 23.7086 61.8787C23.0498 62.2987 22.7217 63.0254 22.7192 64.0641C22.7155 64.9046 22.9948 65.5448 23.5468 65.978C24.1039 66.413 24.7747 66.8032 25.5659 67.1516C26.3079 67.5009 26.987 67.8605 27.6019 68.2346C28.2218 68.605 28.7523 69.0416 29.1943 69.5353C29.6388 70.0306 29.9897 70.6125 30.2491 71.2828C30.5053 71.9503 30.6319 72.7399 30.6319 73.6557C30.6257 76.18 29.8084 78.101 28.1862 79.4178C26.564 80.7383 24.2673 81.393 21.301 81.3844C20.3099 81.3802 19.4264 81.3065 18.6476 81.1546C17.8729 81.0044 17.1984 80.8298 16.6302 80.6303C16.0604 80.4321 15.572 80.2148 15.1669 79.9777L16.1481 75.9028L16.1588 75.8817C16.4075 76.0302 16.7196 76.2024 17.1019 76.4047C17.4852 76.6017 17.9193 76.7892 18.4009 76.963C18.8826 77.136 19.4086 77.2816 19.9784 77.393C20.5429 77.5063 21.1479 77.5626 21.7906 77.5659C22.3604 77.5659 22.9038 77.5134 23.4264 77.4029C23.9445 77.2912 24.3964 77.1087 24.7805 76.8484C25.1637 76.5889 25.474 76.264 25.7099 75.8697C25.9466 75.4745 26.0662 74.9787 26.0662 74.3857C26.0703 73.94 25.976 73.5394 25.7914 73.1798C25.6089 72.8206 25.3553 72.4925 25.0341 72.1945C24.7126 71.897 24.3352 71.6255 23.906 71.3739C23.4728 71.1268 23.0097 70.8802 22.5139 70.6302C21.8982 70.3079 21.325 69.9839 20.7933 69.6631C20.2623 69.3404 19.8063 68.9534 19.4235 68.5094C19.0403 68.0608 18.7403 67.529 18.5197 66.9116C18.2983 66.2934 18.1899 65.5386 18.1899 64.6476C18.1973 62.4721 18.9377 60.7229 20.4125 59.4024C21.887 58.0872 23.9843 57.4276 26.7031 57.4366ZM10.7848 62.9947C12.4902 63.0001 13.8877 63.4234 14.9723 64.2689C16.0561 65.1118 16.5986 66.2871 16.5945 67.7951C16.592 69.0568 16.28 70.1261 15.6601 71.0005C15.0402 71.8783 14.1844 72.5871 13.0948 73.128C12.0044 73.6709 10.7257 74.0616 9.2541 74.3057C7.77882 74.5487 6.18891 74.6699 4.4852 74.6637C4.4852 75.1082 4.55886 75.51 4.70328 75.8696C4.85226 76.2284 5.09393 76.5338 5.42665 76.7812C5.75895 77.0287 6.20422 77.2232 6.75874 77.3598C7.31492 77.498 8.01305 77.5659 8.85477 77.5692C9.84546 77.5725 10.7848 77.4674 11.6746 77.2596C12.496 77.068 13.118 76.883 13.5426 76.6972L12.5961 80.6166C12.246 80.7254 11.8637 80.8297 11.4436 80.9323C10.378 81.1893 9.21686 81.3155 7.95594 81.3131C6.54562 81.3097 5.33478 81.1272 4.31967 80.766C3.3058 80.4039 2.48063 79.9035 1.83837 79.2567C1.19902 78.6103 0.73181 77.8497 0.435926 76.9737C0.141697 76.0951 -0.00397021 75.121 8.22696e-05 74.0575C0.000995683 72.6236 0.247635 71.236 0.731809 69.8878C1.21598 68.5404 1.92487 67.3618 2.85431 66.3525C3.78625 65.3411 4.91433 64.5254 6.23608 63.9121C7.56404 63.2976 9.07781 62.991 10.7848 62.9947ZM40.5034 66.8931C40.0109 66.8931 39.5954 66.9167 39.2619 66.9643C38.9271 67.0135 38.625 67.0748 38.3536 67.1484L35.8776 77.3032C36.0014 77.3558 36.1363 77.3811 36.2857 77.3811H36.7674C37.7812 77.3844 38.6962 77.1828 39.5139 76.7789C40.332 76.3697 41.0173 75.8234 41.5768 75.1298C42.1367 74.4412 42.5626 73.6306 42.8626 72.7036C43.1626 71.7799 43.3153 70.8091 43.3178 69.7956C43.3178 69.4236 43.2814 69.0665 43.2069 68.7197C43.1357 68.3729 42.9991 68.0642 42.8005 67.7886C42.6039 67.5171 42.3225 67.3003 41.9518 67.1406C41.5789 66.9763 41.0972 66.8964 40.5034 66.8931ZM9.92243 66.6297C8.78524 66.6264 7.70226 67.0133 6.67391 67.7888C5.64266 68.5639 4.92881 69.8075 4.5303 71.51C6.08793 71.5133 7.36748 71.4218 8.37059 71.2228C9.37204 71.0283 10.1558 70.7791 10.7273 70.4688C11.2972 70.1634 11.6915 69.8236 11.9187 69.4528C12.1409 69.0841 12.2518 68.7373 12.2556 68.4158C12.2556 67.8476 12.0503 67.409 11.6456 67.0961C11.2396 66.7882 10.6636 66.6297 9.92243 66.6297ZM99.0327 63.2287C100.293 63.2325 101.445 63.3467 102.497 63.5726C103.548 63.7973 104.381 64.0601 105 64.3585L103.321 67.9517C102.755 67.6769 102.104 67.4547 101.373 67.2793C100.645 67.1063 99.7246 67.0169 98.613 67.0136C98.3631 67.0136 98.0862 67.0297 97.7771 67.0653C97.4659 67.1026 97.1775 67.1833 96.9052 67.3037C96.6321 67.4274 96.404 67.5938 96.2182 67.8048C96.0333 68.0142 95.9368 68.2807 95.9368 68.5994C95.9368 68.8216 95.9683 69.0157 96.0308 69.1771C96.0879 69.338 96.2182 69.4982 96.4161 69.6579C96.6151 69.8206 96.8994 69.9869 97.2698 70.1632C97.6405 70.3362 98.1363 70.5344 98.7496 70.7591C99.4924 71.0595 100.128 71.3563 100.661 71.653C101.188 71.9526 101.636 72.2857 101.992 72.6598C102.348 73.031 102.608 73.4643 102.769 73.9588C102.927 74.4566 103.007 75.0501 103.003 75.7395C103.003 76.4571 102.851 77.1618 102.552 77.8529C102.255 78.5465 101.79 79.1672 101.159 79.7234C100.523 80.2771 99.7026 80.7277 98.6875 81.0716C97.6716 81.4143 96.4591 81.5839 95.0504 81.5807C94.0357 81.5781 93.1468 81.5136 92.3784 81.3907C91.6161 81.2636 90.9478 81.1126 90.3792 80.9379C90.1094 80.8548 89.8598 80.7716 89.6327 80.6859L90.5832 76.7409C90.9354 76.8986 91.3405 77.0625 91.7994 77.2321C92.6643 77.557 93.6997 77.7213 94.9143 77.7246C96.2244 77.7271 97.1258 77.557 97.6211 77.2102C98.1169 76.8651 98.3664 76.4595 98.3664 75.9907C98.3664 75.7668 98.3238 75.5682 98.2398 75.3927C98.1516 75.2206 98.0043 75.0534 97.7941 74.8924C97.5851 74.7322 97.2938 74.5708 96.9238 74.4066C96.5526 74.2472 96.0858 74.0556 95.5172 73.8297C94.8232 73.5822 94.2195 73.3186 93.6997 73.0471C93.1824 72.7724 92.7508 72.4562 92.404 72.0982C92.0564 71.737 91.8002 71.3215 91.6281 70.8518C91.4584 70.3821 91.3711 69.8272 91.3744 69.1837C91.3769 67.3782 92.0175 65.9323 93.2954 64.8464C94.57 63.7601 96.4839 63.2238 99.0327 63.2287ZM59.0713 63.1213C60.8768 63.1263 62.3285 63.6808 63.426 64.7837C64.5243 65.8869 65.0693 67.5269 65.0635 69.7028C65.061 71.1615 64.8454 72.5954 64.4225 74.0032C63.9975 75.4119 63.3581 76.672 62.5015 77.7827C61.6461 78.8934 60.5801 79.7864 59.3047 80.4626C58.0301 81.1401 56.5511 81.4757 54.8689 81.4716C52.792 81.4657 51.2488 80.8686 50.2378 79.6797C49.2269 78.4891 48.7249 76.9058 48.7294 74.9273C48.7319 73.4425 48.9591 71.997 49.4085 70.5892C49.8571 69.1797 50.5168 67.9221 51.3833 66.8106C52.2519 65.6999 53.3312 64.8064 54.6177 64.129C55.9052 63.454 57.3908 63.1168 59.0713 63.1213ZM85.8368 57.5855L84.3239 63.6348L90.9637 63.6534L90.0247 67.4337L83.4251 67.415L81.7747 74.1989C81.6477 74.8179 81.5856 75.2996 81.5856 75.6464C81.5831 76.3884 81.8323 76.8829 82.3396 77.1304C82.8465 77.3808 83.4214 77.5037 84.0644 77.5061C84.7315 77.5061 85.4185 77.4304 86.1232 77.2727C86.8279 77.1109 87.5141 76.8982 88.1849 76.6268V76.6752L87.1834 80.8184C86.6815 80.9818 86.1538 81.1176 85.5939 81.2202C84.6665 81.3907 83.7421 81.4764 82.8312 81.4724C80.8511 81.4669 79.3742 81.0381 78.4021 80.1815C77.4246 79.3257 76.9413 78.0826 76.9438 76.4505C76.9438 76.0544 76.9715 75.653 77.0224 75.2446C77.0725 74.8366 77.159 74.3975 77.2856 73.929L78.1418 70.3793L78.7422 67.8938L78.8578 67.4015L79.7727 63.6099L80.5962 60.2104L85.8368 57.5855ZM75.5203 63.2755C76.72 63.2785 77.7285 63.3281 78.5458 63.4233L78.5007 63.6194L77.5882 67.3989L77.5199 67.6803C76.9576 67.6149 76.2987 67.5818 75.5464 67.5777C74.9021 67.5752 74.2395 67.6191 73.5617 67.7022C72.8785 67.7887 72.2528 67.9278 71.6846 68.1256L68.5739 81.0253L64.0119 81.0125L67.9465 64.738C69.1131 64.2712 70.3674 63.9108 71.7148 63.6559C73.0635 63.3997 74.3314 63.2731 75.5203 63.2755ZM57.9486 67.0497C57.2306 67.0481 56.5809 67.2699 55.9991 67.7127C55.4173 68.1563 54.9281 68.7117 54.5304 69.3783C54.1328 70.0454 53.8273 70.768 53.6155 71.5464C53.4019 72.3252 53.2956 73.061 53.2947 73.7521C53.2923 74.9149 53.457 75.8315 53.7884 76.499C54.1208 77.1661 54.794 77.503 55.8075 77.5054C56.5503 77.5063 57.205 77.2857 57.7748 76.8433C58.3446 76.3989 58.835 75.8443 59.246 75.176C59.6532 74.5118 59.966 73.7885 60.1771 73.0092C60.3902 72.2308 60.4961 71.4955 60.4986 70.8036C60.5027 69.6411 60.3376 68.7262 60.0049 68.0578C59.6718 67.3887 58.9873 67.0522 57.9486 67.0497Z" fill="#111315"/>
<path fill-rule="evenodd" clip-rule="evenodd" d="M76.4778 24.7036C76.4778 38.3516 65.4176 49.411 51.7705 49.411C38.1254 49.411 27.0664 38.3516 27.0664 24.7036C27.0664 11.0619 38.1254 0 51.7705 0C65.4176 0 76.4778 11.0619 76.4778 24.7036ZM56.7136 12.3552C56.7136 15.0823 54.5029 17.2938 51.7733 17.2938C49.0425 17.2938 46.8311 15.0823 46.8311 12.3552C46.8311 9.62437 49.0425 7.41165 51.7733 7.41165C54.5029 7.41165 56.7136 9.62478 56.7136 12.3552ZM51.9793 33.574C52.036 33.524 52.0927 33.4739 52.1502 33.4246C53.7699 32.0176 55.3632 30.5746 56.8931 29.0683C58.1618 27.8194 59.4058 26.5279 60.5012 25.1217C59.8051 25.0335 59.1054 24.9752 58.4052 24.9251C55.8018 24.7393 53.1889 24.693 50.5798 24.7199C48.0703 24.7447 45.5373 24.8097 43.0436 25.1217C44.2342 26.6516 45.5977 28.0474 46.9849 29.3973C47.8034 30.1939 48.6393 30.9723 49.486 31.7379C49.9251 32.1356 50.3687 32.53 50.814 32.921C50.9099 33.0052 51.0061 33.0891 51.1023 33.1731C51.2416 33.2946 51.3809 33.4161 51.5191 33.5384C51.5812 33.5935 51.6433 33.6485 51.7058 33.7027C51.7484 33.7764 51.7906 33.7764 51.8332 33.7019C51.8821 33.6597 51.9307 33.6169 51.9793 33.574ZM64.3167 20.8783C65.4274 21.2814 66.428 22.1252 66.5501 23.3782C66.6875 24.39 66.1458 25.3323 65.6446 26.1707C64.4843 28.1128 62.951 29.8318 61.3917 31.459C59.5506 33.3804 57.5912 35.1867 55.5854 36.9347C56.8736 37.9784 58.178 39.003 59.5022 40.0007L59.3694 40.1331C58.4975 41.0042 57.6251 41.8766 56.754 42.7485C56.6709 42.8316 56.5878 42.9146 56.5048 42.9976C56.3389 43.1633 56.1731 43.3289 56.0071 43.4955C55.9875 43.5147 55.2599 42.9321 54.9383 42.6746C54.8651 42.616 54.8129 42.5742 54.795 42.5602C54.305 42.1779 53.8167 41.7934 53.3313 41.4061C49.1322 38.0615 44.9828 34.5593 41.3473 30.5982C39.9068 29.0294 38.4738 27.353 37.4951 25.4482C37.2662 25.005 37.0539 24.5502 36.9914 24.0507C36.9169 23.4564 37.049 22.8415 37.3477 22.3242C37.9292 21.3228 38.9774 20.9048 40.0492 20.6367C42.3218 20.0669 44.6988 19.9604 47.0359 19.8558C47.2228 19.8475 47.4094 19.8391 47.5957 19.8305C49.5696 19.7387 51.5539 19.749 53.5283 19.7742C56.0096 19.8057 58.4975 19.8947 60.9626 20.1905C61.5358 20.2597 62.1143 20.3366 62.6808 20.4537C62.975 20.5146 63.2684 20.5758 63.5594 20.652C63.6189 20.6677 63.6808 20.6825 63.7437 20.6975C63.9392 20.7442 64.1438 20.7931 64.3167 20.8783Z" fill="#FF6100"/>
</svg>
