<svg width="16" height="16" viewBox="0 0 16 16" fill="none" xmlns="http://www.w3.org/2000/svg">
<g clip-path="url(#clip0_11088_171811)">
<g clip-path="url(#clip1_11088_171811)">
<path d="M15.9987 8.00001C15.9987 3.58134 12.4175 0.000152588 7.99888 0.000152588C3.58021 0.000152588 -0.000976562 3.58134 -0.000976562 8.00001C-0.000976562 11.9937 2.92397 15.303 6.7489 15.903V10.3125H4.71769V8.00001H6.7489V6.23754C6.7489 4.23289 7.94263 3.1251 9.77072 3.1251C10.6457 3.1251 11.5613 3.28134 11.5613 3.28134V5.25006H10.552C9.55822 5.25006 9.24885 5.86723 9.24885 6.50003V8.00001H11.4676L11.1129 10.3125H9.24885V15.903C13.0738 15.303 15.9987 11.9937 15.9987 8.00001Z" fill="#1877F2"/>
</g>
</g>
<defs>
<clipPath id="clip0_11088_171811">
<rect width="15.9997" height="15.9997" fill="white" transform="translate(-0.000976562 0.000152588)"/>
</clipPath>
<clipPath id="clip1_11088_171811">
<rect width="15.9997" height="15.9997" fill="white" transform="translate(-0.000976562 0.000152588)"/>
</clipPath>
</defs>
</svg>
