<svg width="24" height="24" viewBox="0 0 24 24" fill="none" xmlns="http://www.w3.org/2000/svg">
<g clip-path="url(#clip0_11123_10807)">
<path d="M24 12.0063C24 5.37893 18.6274 0.00634766 12 0.00634766C5.37258 0.00634766 0 5.37893 0 12.0063C0 17.9958 4.3882 22.9603 10.125 23.8606V15.4751H7.07812V12.0063H10.125V9.3626C10.125 6.3551 11.9166 4.69385 14.6576 4.69385C15.9701 4.69385 17.3438 4.92822 17.3438 4.92822V7.88135H15.8306C14.34 7.88135 13.875 8.80643 13.875 9.75635V12.0063H17.2031L16.6711 15.4751H13.875V23.8606C19.6118 22.9603 24 17.9958 24 12.0063Z" fill="#111315"/>
<path d="M16.6711 15.4751L17.2031 12.0063H13.875V9.75635C13.875 8.80736 14.34 7.88135 15.8306 7.88135H17.3438V4.92822C17.3438 4.92822 15.9705 4.69385 14.6576 4.69385C11.9166 4.69385 10.125 6.3551 10.125 9.3626V12.0063H7.07812V15.4751H10.125V23.8606C11.3674 24.0549 12.6326 24.0549 13.875 23.8606V15.4751H16.6711Z" fill="white"/>
</g>
<defs>
<clipPath id="clip0_11123_10807">
<rect width="24" height="24" fill="white" transform="translate(0 0.00634766)"/>
</clipPath>
</defs>
</svg>
