<svg width="16" height="16" viewBox="0 0 16 16" fill="none" xmlns="http://www.w3.org/2000/svg">
<g clip-path="url(#clip0_11088_171809)">
<g clip-path="url(#clip1_11088_171809)">
<path d="M4.96313 0.718096C4.18287 0.754909 3.65003 0.879428 3.18422 1.06247C2.70213 1.25035 2.29352 1.50246 1.88697 1.91049C1.48041 2.31851 1.23005 2.72741 1.04349 3.21024C0.862949 3.67707 0.74063 4.21035 0.706164 4.99105C0.671697 5.77175 0.664071 6.02269 0.667884 8.01412C0.671697 10.0055 0.680497 10.2552 0.718337 11.0375C0.75559 11.8176 0.879669 12.3503 1.06271 12.8162C1.25088 13.2983 1.5027 13.7068 1.91087 14.1135C2.31904 14.5202 2.72765 14.77 3.21165 14.9568C3.67805 15.1371 4.21147 15.26 4.99202 15.2942C5.77258 15.3283 6.02381 15.3362 8.01465 15.3324C10.0055 15.3286 10.2561 15.3198 11.0383 15.2827C11.8205 15.2456 12.3504 15.1206 12.8165 14.9385C13.2986 14.7499 13.7073 14.4985 14.1137 14.0902C14.5201 13.6819 14.7704 13.2727 14.9568 12.7895C15.1375 12.3231 15.2602 11.7897 15.2941 11.0098C15.3283 10.227 15.3363 9.97709 15.3325 7.98596C15.3287 5.99483 15.3198 5.7452 15.2827 4.96318C15.2456 4.18116 15.1213 3.65009 14.9384 3.18384C14.75 2.70175 14.4984 2.29358 14.0904 1.88658C13.6824 1.47958 13.2729 1.22952 12.7899 1.04355C12.3232 0.863002 11.7901 0.739949 11.0096 0.706216C10.229 0.672483 9.97777 0.66383 7.9862 0.667643C5.99463 0.671457 5.7453 0.679963 4.96313 0.718096ZM5.04878 13.9749C4.33379 13.9438 3.94556 13.825 3.68685 13.7256C3.34424 13.5936 3.10018 13.434 2.84235 13.1786C2.58451 12.9233 2.42611 12.6784 2.29235 12.3365C2.19189 12.0778 2.07089 11.69 2.03745 10.975C2.00107 10.2022 1.99345 9.97019 1.98919 8.01236C1.98494 6.05452 1.99242 5.82279 2.0263 5.04971C2.05681 4.33531 2.17634 3.94664 2.27563 3.68807C2.40763 3.34502 2.56662 3.10141 2.82255 2.84372C3.07848 2.58603 3.32268 2.42734 3.66485 2.29358C3.92327 2.19267 4.31106 2.0727 5.02576 2.03867C5.79912 2.00201 6.03085 1.99467 7.9884 1.99042C9.94594 1.98617 10.1783 1.9935 10.9519 2.02753C11.6663 2.05862 12.0551 2.17698 12.3134 2.27686C12.6562 2.40886 12.9001 2.5674 13.1578 2.82377C13.4155 3.08014 13.5743 3.32346 13.7081 3.66637C13.8091 3.92406 13.9291 4.31169 13.9628 5.02683C13.9996 5.8002 14.008 6.03208 14.0115 7.98948C14.015 9.94687 14.0081 10.1793 13.9743 10.9521C13.943 11.6671 13.8245 12.0555 13.7249 12.3145C13.5929 12.657 13.4338 12.9012 13.1777 13.1587C12.9216 13.4162 12.6777 13.5749 12.3354 13.7087C12.0773 13.8095 11.6891 13.9297 10.9749 13.9637C10.2016 14.0001 9.96985 14.0077 8.01157 14.012C6.05329 14.0163 5.8223 14.0083 5.04893 13.9749H5.04878ZM11.027 4.0807C11.0273 4.25475 11.0792 4.42482 11.1762 4.56938C11.2731 4.71393 11.4107 4.8265 11.5717 4.89282C11.7326 4.95915 11.9096 4.97626 12.0802 4.942C12.2509 4.90774 12.4075 4.82364 12.5304 4.70033C12.6532 4.57703 12.7368 4.42006 12.7704 4.24929C12.804 4.07851 12.7863 3.90159 12.7194 3.74091C12.6524 3.58023 12.5394 3.443 12.3945 3.34658C12.2496 3.25017 12.0793 3.19889 11.9052 3.19924C11.6719 3.1997 11.4483 3.29282 11.2836 3.45812C11.1189 3.62342 11.0266 3.84736 11.027 4.0807V4.0807ZM4.23494 8.00737C4.23904 10.0871 5.92804 11.7692 8.00732 11.7652C10.0866 11.7613 11.7699 10.0724 11.7659 7.9927C11.762 5.91299 10.0725 4.23044 7.99295 4.23455C5.91338 4.23865 4.23098 5.92795 4.23494 8.00737ZM5.5558 8.00473C5.55485 7.52126 5.69728 7.04836 5.96509 6.64584C6.23289 6.24332 6.61404 5.92925 7.06035 5.74335C7.50665 5.55745 7.99805 5.50807 8.47242 5.60145C8.94679 5.69483 9.38281 5.92678 9.72535 6.26797C10.0679 6.60916 10.3016 7.04426 10.3968 7.51825C10.4921 7.99225 10.4447 8.48384 10.2605 8.93088C10.0764 9.37791 9.76383 9.76031 9.36237 10.0297C8.96092 10.2991 8.48859 10.4434 8.00512 10.4444C7.68409 10.445 7.36608 10.3825 7.06924 10.2602C6.77241 10.138 6.50256 9.95845 6.27511 9.7319C6.04766 9.50536 5.86707 9.23622 5.74365 8.93987C5.62023 8.64352 5.5564 8.32575 5.5558 8.00473" fill="black"/>
</g>
</g>
<defs>
<clipPath id="clip0_11088_171809">
<rect width="15.9997" height="15.9997" fill="white"/>
</clipPath>
<clipPath id="clip1_11088_171809">
<rect width="15.9997" height="15.9997" fill="white"/>
</clipPath>
</defs>
</svg>
