<svg width="20" height="20" viewBox="0 0 20 20" fill="none" xmlns="http://www.w3.org/2000/svg">
<path fill-rule="evenodd" clip-rule="evenodd" d="M10.0552 3.77249C11.7616 2.07331 14.5214 2.07621 16.2241 3.77897C17.9294 5.48427 17.9294 8.24909 16.2241 9.95439L14.7559 11.4226C14.4305 11.748 13.9029 11.748 13.5774 11.4226C13.252 11.0972 13.252 10.5695 13.5774 10.2441L15.0456 8.77588C16.1001 7.72146 16.1001 6.0119 15.0456 4.95748C13.9928 3.90463 12.2863 3.90283 11.2313 4.95348L9.7547 6.42384C9.42858 6.74859 8.90094 6.74748 8.57619 6.42136C8.25144 6.09524 8.25255 5.56761 8.57867 5.24286L10.0552 3.77249ZM6.42137 8.57619C6.74749 8.90094 6.74859 9.42858 6.42384 9.7547L4.95348 11.2313C3.90283 12.2863 3.90463 13.9928 4.95748 15.0456C6.01191 16.1001 7.72146 16.1001 8.77588 15.0456L10.2441 13.5774C10.5695 13.252 11.0972 13.252 11.4226 13.5774C11.748 13.9029 11.748 14.4305 11.4226 14.7559L9.95439 16.2241C8.2491 17.9294 5.48427 17.9294 3.77897 16.2241C2.07621 14.5214 2.07331 11.7616 3.77249 10.0552L5.24286 8.57866C5.56761 8.25254 6.09525 8.25144 6.42137 8.57619Z" fill="#6F767E"/>
<path fill-rule="evenodd" clip-rule="evenodd" d="M12.2559 7.74408C12.5814 8.06951 12.5814 8.59715 12.2559 8.92259L8.92259 12.2559C8.59715 12.5814 8.06951 12.5814 7.74408 12.2559C7.41864 11.9305 7.41864 11.4028 7.74408 11.0774L11.0774 7.74408C11.4028 7.41864 11.9305 7.41864 12.2559 7.74408Z" fill="#6F767E"/>
</svg>
