<svg width="24" height="25" viewBox="0 0 24 25" fill="none" xmlns="http://www.w3.org/2000/svg">
<path d="M13 16.1454C13.5978 15.7996 14 15.1532 14 14.413C14 13.3084 13.1046 12.413 12 12.413C10.8954 12.413 10 13.3084 10 14.413C10 15.1532 10.4022 15.7996 11 16.1454V17.413C11 17.9652 11.4477 18.413 12 18.413C12.5523 18.413 13 17.9652 13 17.413V16.1454Z" fill="#6F767E"/>
<path fill-rule="evenodd" clip-rule="evenodd" d="M7 8.41296V7.41296C7 4.65154 9.23858 2.41296 12 2.41296C14.7614 2.41296 17 4.65154 17 7.41296V8.41296C18.6569 8.41296 20 9.75611 20 11.413V19.413C20 21.0698 18.6569 22.413 17 22.413H7C5.34315 22.413 4 21.0698 4 19.413V11.413C4 9.75611 5.34315 8.41296 7 8.41296ZM9 7.41296C9 5.75611 10.3431 4.41296 12 4.41296C13.6569 4.41296 15 5.75611 15 7.41296V8.41296H9V7.41296ZM6 11.413C6 10.8607 6.44772 10.413 7 10.413H17C17.5523 10.413 18 10.8607 18 11.413V19.413C18 19.9652 17.5523 20.413 17 20.413H7C6.44772 20.413 6 19.9652 6 19.413V11.413Z" fill="#6F767E"/>
</svg>
