<svg width="240" height="24" viewBox="0 0 240 24" fill="none" xmlns="http://www.w3.org/2000/svg">
<path d="M229.335 23.0031V20.9049L235.547 13.2143V13.1234H229.55V10.3148H239.785V12.603L233.953 20.1036V20.1945H240V23.0031H229.335Z" fill="#6F767E"/>
<path d="M222.18 23.2509C220.88 23.2509 219.762 22.9756 218.826 22.4249C217.895 21.8686 217.179 21.0977 216.678 20.1119C216.182 19.1261 215.935 17.9917 215.935 16.7085C215.935 15.4089 216.185 14.2689 216.686 13.2886C217.193 12.3029 217.912 11.5346 218.842 10.9839C219.773 10.4277 220.88 10.1496 222.163 10.1496C223.27 10.1496 224.239 10.3506 225.071 10.7526C225.902 11.1546 226.56 11.7191 227.045 12.4461C227.53 13.173 227.797 14.0266 227.846 15.0068H224.526C224.432 14.3735 224.184 13.8641 223.782 13.4786C223.386 13.0876 222.865 12.8921 222.221 12.8921C221.676 12.8921 221.199 13.0408 220.792 13.3382C220.39 13.6301 220.076 14.0569 219.85 14.6186C219.624 15.1803 219.511 15.8604 219.511 16.659C219.511 17.4685 219.622 18.1569 219.842 18.7241C220.068 19.2913 220.384 19.7236 220.792 20.021C221.199 20.3184 221.676 20.4671 222.221 20.4671C222.623 20.4671 222.984 20.3845 223.303 20.2193C223.628 20.0541 223.895 19.8145 224.104 19.5006C224.319 19.1812 224.46 18.7985 224.526 18.3524H227.846C227.791 19.3216 227.527 20.1752 227.053 20.9132C226.585 21.6456 225.938 22.2183 225.112 22.6314C224.286 23.0444 223.309 23.2509 222.18 23.2509Z" fill="#6F767E"/>
<path d="M212.273 23.2179C211.728 23.2179 211.26 23.0251 210.869 22.6396C210.483 22.2486 210.29 21.7805 210.29 21.2353C210.29 20.6956 210.483 20.233 210.869 19.8476C211.26 19.4621 211.728 19.2693 212.273 19.2693C212.802 19.2693 213.264 19.4621 213.661 19.8476C214.057 20.233 214.255 20.6956 214.255 21.2353C214.255 21.5988 214.162 21.932 213.975 22.2349C213.793 22.5322 213.553 22.7718 213.256 22.9535C212.958 23.1298 212.631 23.2179 212.273 23.2179Z" fill="#6F767E"/>
<path d="M196.737 23.0031V6.08539H208.136V9.03442H200.313V13.0656H207.55V16.0146H200.313V20.0541H208.169V23.0031H196.737Z" fill="#111315"/>
<path d="M194.87 12.0082H191.251C191.185 11.5401 191.05 11.1244 190.847 10.7609C190.643 10.3919 190.381 10.078 190.062 9.81919C189.742 9.56035 189.374 9.3621 188.955 9.22442C188.542 9.08675 188.093 9.01791 187.608 9.01791C186.733 9.01791 185.97 9.23544 185.32 9.67049C184.67 10.1 184.167 10.7279 183.809 11.5539C183.451 12.3745 183.272 13.3712 183.272 14.5442C183.272 15.7503 183.451 16.7636 183.809 17.5842C184.172 18.4047 184.679 19.0242 185.329 19.4428C185.978 19.8613 186.73 20.0706 187.584 20.0706C188.063 20.0706 188.506 20.0073 188.914 19.8806C189.327 19.7539 189.693 19.5694 190.012 19.3271C190.332 19.0793 190.596 18.7792 190.805 18.4267C191.02 18.0743 191.169 17.6723 191.251 17.2207L194.87 17.2372C194.776 18.0137 194.542 18.7627 194.167 19.4841C193.798 20.2 193.3 20.8416 192.672 21.4088C192.05 21.9705 191.306 22.4166 190.442 22.747C189.583 23.0719 188.611 23.2344 187.526 23.2344C186.017 23.2344 184.668 22.893 183.478 22.2101C182.294 21.5272 181.358 20.5387 180.67 19.2445C179.987 17.9504 179.645 16.3836 179.645 14.5442C179.645 12.6994 179.992 11.1299 180.686 9.83571C181.38 8.54154 182.322 7.55578 183.511 6.87841C184.701 6.19553 186.039 5.8541 187.526 5.8541C188.506 5.8541 189.415 5.99177 190.252 6.26713C191.094 6.54248 191.841 6.94449 192.491 7.47317C193.14 7.99634 193.669 8.63792 194.077 9.39789C194.49 10.1579 194.754 11.028 194.87 12.0082Z" fill="#111315"/>
<path d="M165.557 23.0031V6.08539H169.133V13.5447H169.357L175.445 6.08539H179.732L173.454 13.6604L179.806 23.0031H175.527L170.893 16.0477L169.133 18.1954V23.0031H165.557Z" fill="#111315"/>
<path d="M159.735 6.08539H163.312V17.072C163.312 18.3056 163.017 19.385 162.428 20.3101C161.844 21.2353 161.026 21.9568 159.974 22.4744C158.923 22.9866 157.697 23.2427 156.298 23.2427C154.894 23.2427 153.666 22.9866 152.614 22.4744C151.562 21.9568 150.745 21.2353 150.161 20.3101C149.577 19.385 149.285 18.3056 149.285 17.072V6.08539H152.862V16.7663C152.862 17.4107 153.002 17.9834 153.283 18.4846C153.57 18.9857 153.972 19.3795 154.489 19.6658C155.007 19.9522 155.61 20.0954 156.298 20.0954C156.992 20.0954 157.595 19.9522 158.107 19.6658C158.625 19.3795 159.024 18.9857 159.305 18.4846C159.592 17.9834 159.735 17.4107 159.735 16.7663V6.08539Z" fill="#111315"/>
<path d="M135.498 23.0031H131.665L137.505 6.08539H142.115L147.947 23.0031H144.114L139.876 9.95135H139.744L135.498 23.0031ZM135.258 16.3533H144.312V19.1454H135.258V16.3533Z" fill="#111315"/>
<path d="M130.523 6.0854V23.0031H126.434V6.0854H130.523ZM127.095 4.47458L128.763 0.749046H132.34L129.845 4.47458H127.095Z" fill="#FF6100"/>
<path d="M124.561 6.08539V23.0031H121.091L114.359 13.2391H114.251V23.0031H110.162V6.08539H113.681L120.339 15.8329H120.48V6.08539H124.561Z" fill="#FF6100"/>
<path d="M96.7553 6.08539L100.539 18.4763H100.679L104.462 6.08539H109.039L103.331 23.0031H97.887L92.179 6.08539H96.7553Z" fill="#FF6100"/>
<path d="M92.2242 14.5442C92.2242 16.4056 91.8662 17.9834 91.1503 19.2776C90.4344 20.5717 89.4651 21.5547 88.2426 22.2266C87.0255 22.8985 85.6598 23.2344 84.1453 23.2344C82.6254 23.2344 81.2569 22.8957 80.0398 22.2183C78.8227 21.541 77.8562 20.558 77.1403 19.2693C76.4299 17.9752 76.0747 16.4001 76.0747 14.5442C76.0747 12.6829 76.4299 11.1051 77.1403 9.81092C77.8562 8.51676 78.8227 7.53375 80.0398 6.86189C81.2569 6.19003 82.6254 5.8541 84.1453 5.8541C85.6598 5.8541 87.0255 6.19003 88.2426 6.86189C89.4651 7.53375 90.4344 8.51676 91.1503 9.81092C91.8662 11.1051 92.2242 12.6829 92.2242 14.5442ZM88.0443 14.5442C88.0443 13.4428 87.8874 12.5121 87.5735 11.7522C87.2651 10.9922 86.819 10.4167 86.2353 10.0257C85.657 9.6347 84.9604 9.4392 84.1453 9.4392C83.3358 9.4392 82.6391 9.6347 82.0554 10.0257C81.4716 10.4167 81.0228 10.9922 80.7089 11.7522C80.4005 12.5121 80.2463 13.4428 80.2463 14.5442C80.2463 15.6457 80.4005 16.5764 80.7089 17.3363C81.0228 18.0963 81.4716 18.6718 82.0554 19.0628C82.6391 19.4538 83.3358 19.6493 84.1453 19.6493C84.9604 19.6493 85.657 19.4538 86.2353 19.0628C86.819 18.6718 87.2651 18.0963 87.5735 17.3363C87.8874 16.5764 88.0443 15.6457 88.0443 14.5442Z" fill="#FF6100"/>
<path d="M61.4307 9.40615V6.08539H75.7298V9.40615H70.5999V23.0031H66.5688V9.40615H61.4307Z" fill="#FF6100"/>
<path d="M47.28 23.0031V6.08539H54.2685C55.5351 6.08539 56.6283 6.31393 57.548 6.77102C58.4731 7.2226 59.1863 7.87243 59.6875 8.72052C60.1886 9.5631 60.4392 10.5626 60.4392 11.7191C60.4392 12.8921 60.1831 13.8889 59.6709 14.7095C59.1588 15.5245 58.4318 16.1468 57.4901 16.5764C56.5484 17.0004 55.4332 17.2124 54.1446 17.2124H49.7252V13.9908H53.3846C54.0014 13.9908 54.5163 13.9109 54.9293 13.7512C55.3479 13.586 55.6645 13.3382 55.8793 13.0078C56.0941 12.6718 56.2015 12.2423 56.2015 11.7191C56.2015 11.1959 56.0941 10.7636 55.8793 10.4222C55.6645 10.0753 55.3479 9.81643 54.9293 9.64571C54.5108 9.46948 53.9959 9.38137 53.3846 9.38137H51.369V23.0031H47.28ZM56.8045 15.2712L61.0174 23.0031H56.5567L52.4264 15.2712H56.8045Z" fill="#FF6100"/>
<path d="M45.5904 14.5442C45.5904 16.4056 45.2324 17.9834 44.5165 19.2776C43.8006 20.5717 42.8314 21.5547 41.6088 22.2266C40.3917 22.8985 39.026 23.2344 37.5115 23.2344C35.9916 23.2344 34.6231 22.8957 33.406 22.2183C32.1889 21.541 31.2225 20.558 30.5065 19.2693C29.7961 17.9752 29.4409 16.4001 29.4409 14.5442C29.4409 12.6829 29.7961 11.1051 30.5065 9.81092C31.2225 8.51676 32.1889 7.53375 33.406 6.86189C34.6231 6.19003 35.9916 5.8541 37.5115 5.8541C39.026 5.8541 40.3917 6.19003 41.6088 6.86189C42.8314 7.53375 43.8006 8.51676 44.5165 9.81092C45.2324 11.1051 45.5904 12.6829 45.5904 14.5442ZM41.4105 14.5442C41.4105 13.4428 41.2536 12.5121 40.9397 11.7522C40.6313 10.9922 40.1852 10.4167 39.6015 10.0257C39.0232 9.6347 38.3266 9.4392 37.5115 9.4392C36.702 9.4392 36.0053 9.6347 35.4216 10.0257C34.8378 10.4167 34.389 10.9922 34.0751 11.7522C33.7667 12.5121 33.6125 13.4428 33.6125 14.5442C33.6125 15.6457 33.7667 16.5764 34.0751 17.3363C34.389 18.0963 34.8378 18.6718 35.4216 19.0628C36.0053 19.4538 36.702 19.6493 37.5115 19.6493C38.3266 19.6493 39.0232 19.4538 39.6015 19.0628C40.1852 18.6718 40.6313 18.0963 40.9397 17.3363C41.2536 16.5764 41.4105 15.6457 41.4105 14.5442Z" fill="#FF6100"/>
<path d="M15.146 23.0031V6.08539H22.1345C23.4011 6.08539 24.4942 6.33321 25.4139 6.82884C26.3391 7.31897 27.0523 8.0046 27.5534 8.88573C28.0546 9.76136 28.3051 10.7802 28.3051 11.9422C28.3051 13.1097 28.0491 14.1312 27.5369 15.0068C27.0302 15.877 26.3061 16.5516 25.3644 17.0307C24.4227 17.5098 23.3047 17.7494 22.0106 17.7494H17.6985V14.5277H21.2506C21.8674 14.5277 22.3823 14.4203 22.7953 14.2056C23.2139 13.9908 23.5305 13.6906 23.7453 13.3052C23.9601 12.9142 24.0674 12.4598 24.0674 11.9422C24.0674 11.419 23.9601 10.9674 23.7453 10.5874C23.5305 10.2019 23.2139 9.90454 22.7953 9.69527C22.3768 9.486 21.8619 9.38137 21.2506 9.38137H19.235V23.0031H15.146Z" fill="#FF6100"/>
<path d="M9.63186 11.1574C9.57679 10.5516 9.33173 10.0808 8.89667 9.74484C8.46712 9.4034 7.85308 9.23268 7.05455 9.23268C6.52588 9.23268 6.08531 9.30152 5.73286 9.4392C5.38041 9.57687 5.11607 9.76687 4.93984 10.0092C4.76361 10.246 4.67275 10.5186 4.66724 10.827C4.65623 11.0803 4.70579 11.3033 4.81593 11.4961C4.93158 11.6888 5.09679 11.8596 5.31157 12.0082C5.53185 12.1514 5.79619 12.2781 6.10459 12.3882C6.41298 12.4984 6.75993 12.5947 7.14542 12.6774L8.59929 13.0078C9.43636 13.1895 10.1743 13.4318 10.8131 13.7347C11.4575 14.0376 11.9971 14.3983 12.4322 14.8168C12.8728 15.2354 13.2059 15.7173 13.4317 16.2625C13.6575 16.8077 13.7732 17.4189 13.7787 18.0963C13.7732 19.1647 13.5033 20.0816 12.9691 20.8471C12.435 21.6126 11.6667 22.1991 10.6644 22.6066C9.66766 23.0141 8.46436 23.2179 7.05455 23.2179C5.63924 23.2179 4.40565 23.0059 3.3538 22.5818C2.30195 22.1578 1.48415 21.5134 0.900406 20.6488C0.316656 19.7842 0.0165212 18.6911 0 17.3694H3.91553C3.94857 17.9146 4.09451 18.3689 4.35334 18.7324C4.61217 19.0958 4.96738 19.3712 5.41896 19.5584C5.87604 19.7457 6.40472 19.8393 7.00499 19.8393C7.5557 19.8393 8.0238 19.7649 8.40929 19.6163C8.8003 19.4676 9.10043 19.2611 9.3097 18.9967C9.51897 18.7324 9.62636 18.4295 9.63186 18.088C9.62636 17.7686 9.52723 17.496 9.33448 17.2702C9.14173 17.039 8.84435 16.8407 8.44234 16.6755C8.04583 16.5048 7.53918 16.3478 6.92239 16.2046L5.15462 15.7916C3.68974 15.4557 2.53601 14.9132 1.69342 14.1643C0.850842 13.4098 0.432305 12.391 0.437812 11.1078C0.432305 10.0615 0.713165 9.14457 1.28039 8.35706C1.84762 7.56955 2.63238 6.95551 3.63467 6.51494C4.63695 6.07438 5.77967 5.8541 7.06282 5.8541C8.3735 5.8541 9.51071 6.07713 10.4744 6.5232C11.4437 6.96377 12.1954 7.58332 12.7296 8.38184C13.2638 9.18036 13.5364 10.1056 13.5474 11.1574H9.63186Z" fill="#FF6100"/>
</svg>
