<svg width="24" height="25" viewBox="0 0 24 25" fill="none" xmlns="http://www.w3.org/2000/svg">
<path fill-rule="evenodd" clip-rule="evenodd" d="M5 6.41296H19C19.3862 6.41296 19.7213 6.63193 19.8879 6.9525L12.5547 11.8413C12.2188 12.0652 11.7812 12.0652 11.4453 11.8413L4.11209 6.95249C4.27868 6.63193 4.61377 6.41296 5 6.41296ZM4 9.28146V17.413C4 17.9652 4.44772 18.413 5 18.413H19C19.5523 18.413 20 17.9652 20 17.413V9.28148L13.6641 13.5054C12.6564 14.1772 11.3436 14.1772 10.3359 13.5054L4 9.28146ZM2 7.41296C2 5.75611 3.34315 4.41296 5 4.41296H19C20.6569 4.41296 22 5.75611 22 7.41296V17.413C22 19.0698 20.6569 20.413 19 20.413H5C3.34315 20.413 2 19.0698 2 17.413V7.41296Z" fill="#6F767E"/>
</svg>
