<svg width="24" height="24" viewBox="0 0 24 24" fill="none" xmlns="http://www.w3.org/2000/svg">
<path fill-rule="evenodd" clip-rule="evenodd" d="M8 5C6.34315 5 5 6.34315 5 8V16C5 17.6569 6.34315 19 8 19H16C17.6569 19 19 17.6569 19 16V13C19 12.4477 19.4477 12 20 12C20.5523 12 21 12.4477 21 13V16C21 18.7614 18.7614 21 16 21H8C5.23858 21 3 18.7614 3 16V8C3 5.23858 5.23858 3 8 3H11C11.5523 3 12 3.44772 12 4C12 4.55228 11.5523 5 11 5H8Z" fill="#6F767E"/>
<path fill-rule="evenodd" clip-rule="evenodd" d="M19 8C19 8.55229 19.4477 9 20 9C20.5523 9 21 8.55229 21 8V4C21 3.44772 20.5523 3 20 3H16C15.4477 3 15 3.44772 15 4C15 4.55228 15.4477 5 16 5L17.5858 5L11 11.5858V10C11 9.44772 10.5523 9 10 9C9.44772 9 9 9.44772 9 10V14C9 14.5523 9.44772 15 10 15H14C14.5523 15 15 14.5523 15 14C15 13.4477 14.5523 13 14 13H12.4142L19 6.41421V8Z" fill="#6F767E"/>
</svg>
