<svg width="120" height="120" viewBox="0 0 120 120" fill="none" xmlns="http://www.w3.org/2000/svg">
<path d="M23.5 86.495V76.1486L30.4739 76.1502L37.4479 76.1517L38.7728 78.4748L40.0976 80.7979L59.4982 80.831L78.8987 80.8642V74.1843V67.5046H56.9223H34.9459L29.2234 62.2987L23.5009 57.0928L23.5005 45.3048L23.5 33.5167L29.512 28.5084L35.524 23.5H54.5926H73.6612L74.608 25.399C75.1288 26.4435 75.5874 27.298 75.6273 27.298C75.6671 27.298 76.4047 26.4445 77.2664 25.4013L78.8332 23.5045L87.7061 23.5023L96.5791 23.5001V33.6502V43.8H89.5924H82.6058L81.1172 41.6391L79.6286 39.4782H60.4045H41.1804V45.5026V51.5271H63.3507H85.5209L91.05 57.2163L96.5791 62.9056V74.8651V86.8246L90.5666 91.8334L84.554 96.8422L65.456 96.8091L46.358 96.7759L45.2448 94.8617L44.1316 92.9476L42.6888 94.8893L41.2459 96.831L32.373 96.8362L23.5 96.8413V86.495Z" fill="#651B2D"/>
</svg>
