<svg width="120" height="120" viewBox="0 0 120 120" fill="none" xmlns="http://www.w3.org/2000/svg">
<path d="M92.1239 86.758C98.8566 79.1868 102.946 69.2194 102.946 58.298C102.946 34.615 83.7182 15.4169 60.0002 15.4169C36.2824 15.4169 17.0547 34.615 17.0547 58.298C17.0547 69.2194 21.144 79.1868 27.8767 86.758L25.7546 88.8767L24.8703 89.7596C25.1262 90.0442 25.3852 90.3257 25.6478 90.604C26.3141 91.3098 27.0018 91.9948 27.7097 92.6587C32.8898 97.5138 39.1675 101.214 46.1323 103.349C47.1055 103.647 48.0926 103.915 49.092 104.152C52.5935 104.979 56.2458 105.417 60.0002 105.417C63.755 105.417 67.4071 104.979 70.9086 104.152C71.908 103.915 72.8951 103.647 73.8683 103.349C80.8331 101.214 87.1108 97.5138 92.2909 92.6587C92.9988 91.9948 93.6864 91.3098 94.3528 90.604C94.6154 90.3257 94.8746 90.0442 95.1298 89.7596L94.246 88.8767L92.1239 86.758Z" fill="white"/>
<path d="M88.4038 88.7782L86.2837 86.6609L84.6929 85.073C80.7441 88.7057 75.9903 91.4782 70.7285 93.094L71.3854 95.2407L72.2617 98.1025L72.6268 99.295C78.9181 97.3653 84.5935 94.0319 89.2871 89.6603L88.4038 88.7782Z" fill="#B71E24"/>
<path d="M69.2988 98.8928L68.4201 96.0229L67.7609 93.8699C65.26 94.411 62.6635 94.6965 60.0001 94.6965C57.3369 94.6965 54.7403 94.411 52.2399 93.8699L51.5802 96.0229L50.702 98.8928L50.3359 100.088C53.4422 100.801 56.6772 101.178 60.0001 101.178C63.3235 101.178 66.5586 100.801 69.6648 100.088L69.2988 98.8928Z" fill="#F89C0E"/>
<path d="M35.3069 85.0731L33.7166 86.661L31.5961 88.7783L30.7129 89.6604C35.4061 94.0318 41.0822 97.3653 47.3734 99.2951L47.7382 98.1026L48.6144 95.2408L49.2715 93.0941C44.01 91.4783 39.2555 88.7058 35.3069 85.0731Z" fill="#1C63B7"/>
<path d="M90.4657 86.7235C90.7271 86.4443 90.985 86.1613 91.2389 85.8749C97.7462 78.5308 101.697 68.875 101.697 58.2979C101.697 35.3036 83.0284 16.6633 59.9994 16.6633C36.9711 16.6633 18.3027 35.3036 18.3027 58.2979C18.3027 68.875 22.2526 78.5308 28.7607 85.8749C29.0141 86.1613 29.2717 86.4443 29.5334 86.7235L28.6503 87.6055L26.5307 89.7218C27.1961 90.4283 27.8838 91.1137 28.5926 91.7765C33.629 96.4895 39.7304 100.082 46.4963 102.157C47.4701 102.455 48.4572 102.722 49.4571 102.957C52.8425 103.75 56.3716 104.17 59.9994 104.17C63.6275 104.17 67.157 103.75 70.542 102.957C71.5419 102.722 72.5294 102.455 73.5026 102.157C80.2692 100.082 86.3701 96.4895 91.407 91.7765C92.1157 91.1137 92.803 90.4283 93.4689 89.7218L91.3491 87.6055L90.4657 86.7235ZM48.6137 95.2407L47.7374 98.1028L47.3727 99.295C41.0815 97.3653 35.4054 94.0319 30.7122 89.6603L31.5954 88.7782L33.7154 86.6609L35.3062 85.073C39.2548 88.7057 44.0086 91.4782 49.2708 93.094L48.6137 95.2407ZM59.9994 101.179C56.6766 101.179 53.4416 100.802 50.3353 100.088L50.7009 98.8926L51.5796 96.0231L52.2388 93.8701C54.7397 94.4112 57.3362 94.6967 59.9994 94.6967C62.6629 94.6967 65.2594 94.4112 67.7603 93.8701L68.4195 96.0231L69.2982 98.8926L69.6642 100.088C66.5575 100.802 63.3229 101.179 59.9994 101.179ZM59.9994 21.8988C39.8668 21.8988 23.5456 38.1951 23.5456 58.2979C23.5456 67.4289 26.9136 75.7749 32.4763 82.1649C32.7274 82.4535 32.9833 82.7381 33.2439 83.0187L31.6535 84.6066C31.3925 84.3269 31.1357 84.043 30.8832 83.7553C24.9156 76.9561 21.2985 68.0484 21.2985 58.2979C21.2985 36.956 38.6259 19.6551 59.9994 19.6551C81.3737 19.6551 98.7003 36.956 98.7003 58.2979C98.7003 68.0484 95.0835 76.9561 89.1159 83.7553C88.8634 84.043 88.6066 84.3269 88.3461 84.6066L86.7557 83.0187C87.0158 82.7381 87.2717 82.4535 87.5231 82.1649C93.0856 75.7749 96.4533 67.4289 96.4533 58.2979C96.4533 38.1951 80.1323 21.8988 59.9994 21.8988ZM72.6268 99.295L72.2617 98.1028L71.3854 95.2407L70.7281 93.094C75.9903 91.4782 80.7441 88.7057 84.6929 85.073L86.2837 86.6609L88.4038 88.7782L89.2867 89.6603C84.5935 94.0319 78.9181 97.3653 72.6268 99.295Z" fill="black"/>
<path d="M68.7399 49.5165L77.7283 51.9263V46.331C77.7283 40.2923 72.7902 35.3613 66.7424 35.3613H53.2595C47.2115 35.3613 42.2734 40.2923 42.2734 46.331V49.5719C42.2734 54.2809 44.9369 58.8796 51.0122 60.4862L66.687 64.641C67.9353 64.9736 68.7399 65.8047 68.7399 67.1621V71.2615C68.7399 72.3421 67.8245 73.2561 66.7424 73.2561H53.2595C52.1496 73.2561 51.262 72.3698 51.262 71.2615V67.1621L42.2734 64.7799V70.2645C42.2734 76.3033 47.2115 81.2342 53.2595 81.2342H66.7424C72.7902 81.2342 77.7283 76.3033 77.7283 70.2645V67.0512C77.7283 62.3418 75.0651 57.7435 68.9895 56.137L53.3152 51.9817C52.0666 51.6495 51.262 50.8185 51.262 49.461V45.3334C51.262 44.1425 52.0666 43.3393 53.2595 43.3393H66.7424C67.8521 43.3393 68.7399 44.2258 68.7399 45.3334V49.5165Z" fill="white"/>
<path d="M59.9997 19.6549C38.626 19.6549 21.2988 36.9558 21.2988 58.2977C21.2988 68.0487 24.9157 76.956 30.8833 83.7551C31.1358 84.0429 31.3925 84.3268 31.6538 84.6071L33.2441 83.019C32.9833 82.738 32.7277 82.4534 32.4761 82.1648C26.9136 75.7748 23.5459 67.4288 23.5459 58.2977C23.5459 38.1949 39.8669 21.8987 59.9997 21.8987C80.1326 21.8987 96.4536 38.1949 96.4536 58.2977C96.4536 67.4288 93.0858 75.7748 87.5234 82.1648C87.2718 82.4534 87.0159 82.738 86.7553 83.019L88.3457 84.6071C88.6067 84.3268 88.8637 84.0429 89.1162 83.7551C95.0838 76.956 98.7006 68.0487 98.7006 58.2977C98.7006 36.9558 81.3735 19.6549 59.9997 19.6549Z" fill="white"/>
</svg>
