<svg width="16" height="16" viewBox="0 0 16 16" fill="none" xmlns="http://www.w3.org/2000/svg">
<g clip-path="url(#clip0_11088_171810)">
<g clip-path="url(#clip1_11088_171810)">
<path d="M6.17345 6.30058V5.67768C5.95989 5.64921 5.74276 5.63141 5.51852 5.63141C2.84537 5.63141 0.666992 7.80623 0.666992 10.4829C0.666992 12.1238 1.48566 13.5761 2.73859 14.4553C1.93059 13.5903 1.43583 12.4264 1.43583 11.1521C1.43939 8.511 3.5537 6.36109 6.17345 6.30058Z" fill="#25F4EE"/>
<path d="M6.29068 13.3622C7.4831 13.3622 8.45839 12.4118 8.5011 11.2301L8.50466 0.669176H10.4339C10.3947 0.45205 10.3734 0.227805 10.3734 0H7.73938L7.73226 10.5609C7.68955 11.7426 6.71426 12.693 5.52184 12.693C5.15166 12.693 4.80284 12.6004 4.49316 12.4367C4.89538 12.9991 5.55032 13.3622 6.29068 13.3622Z" fill="#25F4EE"/>
<path d="M14.0398 4.2533V3.66599C13.303 3.66599 12.6196 3.44886 12.043 3.07156C12.5555 3.66243 13.2496 4.08601 14.0398 4.2533Z" fill="#25F4EE"/>
<path d="M12.0428 3.07189C11.4804 2.42763 11.1423 1.5876 11.1423 0.669266H10.4375C10.619 1.67303 11.217 2.53442 12.0428 3.07189Z" fill="#FE2C55"/>
<path d="M5.52159 8.26547C4.3007 8.26547 3.30762 9.25856 3.30762 10.4794C3.30762 11.3302 3.7917 12.0705 4.49647 12.4407C4.23307 12.0776 4.07646 11.6327 4.07646 11.1486C4.07646 9.92774 5.06954 8.93465 6.29043 8.93465C6.51824 8.93465 6.73892 8.9738 6.94537 9.03787V6.34693C6.7318 6.31846 6.51468 6.30066 6.29043 6.30066C6.25128 6.30066 6.21568 6.30422 6.17653 6.30422V8.3687C5.96652 8.30107 5.7494 8.26547 5.52159 8.26547Z" fill="#FE2C55"/>
<path d="M14.0399 4.25383V6.30051C12.673 6.30051 11.4059 5.8627 10.3736 5.12234V10.4793C10.3736 13.1524 8.19882 15.3308 5.52211 15.3308C4.48988 15.3308 3.52883 15.0034 2.74219 14.4516C3.62849 15.402 4.89209 16 6.29096 16C8.9641 16 11.1425 13.8252 11.1425 11.1485V5.79151C12.1747 6.53188 13.4419 6.96969 14.8087 6.96969V4.3357C14.5418 4.3357 14.2855 4.30722 14.0399 4.25383Z" fill="#FE2C55"/>
<path d="M10.3733 10.4791V5.12213C11.4056 5.8625 12.6727 6.30031 14.0395 6.30031V4.25363C13.2493 4.08633 12.5553 3.6592 12.0427 3.07189C11.2169 2.53442 10.6225 1.67303 10.4338 0.669266H8.50461L8.50105 11.2301C8.45833 12.4119 7.48305 13.3623 6.29063 13.3623C5.55027 13.3623 4.89889 12.9956 4.49311 12.4404C3.78834 12.0702 3.30426 11.3298 3.30426 10.4791C3.30426 9.25821 4.29734 8.26512 5.51823 8.26512C5.74604 8.26512 5.96672 8.30428 6.17317 8.36835V6.30387C3.54986 6.36438 1.43555 8.51428 1.43555 11.1518C1.43555 12.4261 1.93031 13.5865 2.7383 14.455C3.52494 15.0067 4.48599 15.3342 5.51823 15.3342C8.19493 15.3306 10.3733 13.1522 10.3733 10.4791Z" fill="black"/>
</g>
</g>
<defs>
<clipPath id="clip0_11088_171810">
<rect width="15.9997" height="16" fill="white"/>
</clipPath>
<clipPath id="clip1_11088_171810">
<rect width="15.9997" height="16" fill="white"/>
</clipPath>
</defs>
</svg>
