<svg width="24" height="24" viewBox="0 0 24 24" fill="none" xmlns="http://www.w3.org/2000/svg">
<path fill-rule="evenodd" clip-rule="evenodd" d="M12.0002 7C9.79111 7 8.00024 8.79086 8.00024 11C8.00024 12.0205 8.38243 12.9518 9.01148 13.6585C7.952 14.1643 7.14013 14.8951 6.54453 15.6098C6.01463 16.2457 5.6466 16.8775 5.41051 17.3497C5.2919 17.5869 5.20503 17.787 5.14654 17.9314C5.11726 18.0038 5.09499 18.0625 5.07932 18.1052C5.07026 18.1299 5.06152 18.1547 5.05297 18.1796C4.87911 18.6979 5.16442 19.2755 5.68402 19.4487C6.2077 19.6232 6.77372 19.3405 6.94867 18.817L6.95707 18.7937C6.96557 18.7705 6.97991 18.7325 7.00044 18.6818C7.04156 18.5802 7.10703 18.4287 7.19936 18.2441C7.38514 17.8725 7.67336 17.3793 8.08097 16.8902C8.89002 15.9193 10.1313 15 12.0002 15C13.8692 15 15.1105 15.9193 15.9195 16.8902C16.3271 17.3793 16.6154 17.8725 16.8011 18.2441C16.8935 18.4287 16.9589 18.5802 17.0001 18.6818C17.0206 18.7325 17.0349 18.7705 17.0434 18.7937L17.0518 18.817L17.0526 18.8193C17.2284 19.3413 17.7935 19.623 18.3165 19.4487C18.8404 19.274 19.1233 18.7068 18.9486 18.1829C18.9202 18.098 18.8875 18.0144 18.854 17.9314C18.7955 17.787 18.7086 17.5869 18.59 17.3497C18.3539 16.8775 17.9859 16.2457 17.456 15.6098C16.8604 14.8951 16.0485 14.1643 14.989 13.6585C15.6181 12.9518 16.0002 12.0205 16.0002 11C16.0002 8.79086 14.2094 7 12.0002 7ZM10.0002 11C10.0002 9.89543 10.8957 9 12.0002 9C13.1048 9 14.0002 9.89543 14.0002 11C14.0002 12.1046 13.1048 13 12.0002 13C10.8957 13 10.0002 12.1046 10.0002 11Z" fill="#111315"/>
<path fill-rule="evenodd" clip-rule="evenodd" d="M12 20C16.4183 20 20 16.4183 20 12C20 7.58172 16.4183 4 12 4C7.58172 4 4 7.58172 4 12C4 16.4183 7.58172 20 12 20ZM12 22C17.5228 22 22 17.5228 22 12C22 6.47715 17.5228 2 12 2C6.47715 2 2 6.47715 2 12C2 17.5228 6.47715 22 12 22Z" fill="#111315"/>
</svg>
