<svg width="24" height="24" viewBox="0 0 24 24" fill="none" xmlns="http://www.w3.org/2000/svg">
<path fill-rule="evenodd" clip-rule="evenodd" d="M11.9993 7C9.79013 7 7.99927 8.79086 7.99927 11C7.99927 12.0205 8.38145 12.9518 9.01051 13.6585C7.95102 14.1643 7.13915 14.8951 6.54355 15.6098C6.01366 16.2457 5.64563 16.8775 5.40953 17.3497C5.29092 17.5869 5.20405 17.787 5.14557 17.9314C5.11629 18.0038 5.09401 18.0625 5.07834 18.1052C5.06928 18.1299 5.06055 18.1547 5.05199 18.1796C4.87814 18.6979 5.16344 19.2755 5.68304 19.4487C6.20673 19.6232 6.77274 19.3405 6.94769 18.817L6.95609 18.7937C6.96459 18.7705 6.97894 18.7325 6.99946 18.6818C7.04058 18.5802 7.10606 18.4287 7.19839 18.2441C7.38417 17.8725 7.67239 17.3793 8.07999 16.8902C8.88904 15.9193 10.1304 15 11.9993 15C13.8682 15 15.1095 15.9193 15.9186 16.8902C16.3262 17.3793 16.6144 17.8725 16.8002 18.2441C16.8925 18.4287 16.958 18.5802 16.9991 18.6818C17.0196 18.7325 17.034 18.7705 17.0425 18.7937L17.0508 18.817L17.0516 18.8193C17.2274 19.3413 17.7926 19.623 18.3155 19.4487C18.8394 19.274 19.1223 18.7068 18.9477 18.1829C18.9192 18.098 18.8866 18.0144 18.853 17.9314C18.7945 17.787 18.7076 17.5869 18.589 17.3497C18.3529 16.8775 17.9849 16.2457 17.455 15.6098C16.8594 14.8951 16.0475 14.1643 14.988 13.6585C15.6171 12.9518 15.9993 12.0205 15.9993 11C15.9993 8.79086 14.2084 7 11.9993 7ZM9.99927 11C9.99927 9.89543 10.8947 9 11.9993 9C13.1038 9 13.9993 9.89543 13.9993 11C13.9993 12.1046 13.1038 13 11.9993 13C10.8947 13 9.99927 12.1046 9.99927 11Z" fill="white"/>
<path fill-rule="evenodd" clip-rule="evenodd" d="M11.9995 20C16.4178 20 19.9995 16.4183 19.9995 12C19.9995 7.58172 16.4178 4 11.9995 4C7.58123 4 3.99951 7.58172 3.99951 12C3.99951 16.4183 7.58123 20 11.9995 20ZM11.9995 22C17.5224 22 21.9995 17.5228 21.9995 12C21.9995 6.47715 17.5224 2 11.9995 2C6.47666 2 1.99951 6.47715 1.99951 12C1.99951 17.5228 6.47666 22 11.9995 22Z" fill="white"/>
</svg>
