<svg width="120" height="120" viewBox="0 0 120 120" fill="none" xmlns="http://www.w3.org/2000/svg">
<path fill-rule="evenodd" clip-rule="evenodd" d="M59.8098 15C67.3806 15 75.3198 15.98 82.5315 18.3421L83.9225 18.7976V22.0802C83.8659 26.65 86.7073 30.7304 90.9024 32.4435L92.1594 32.9572V65.5238C92.1594 78.4024 86.2751 88.8951 76.1484 96.5693C72.8083 99.0977 69.1157 101.237 65.2884 102.936C63.7106 103.634 61.9343 104.362 60.2693 104.839L59.7106 105L59.153 104.839C57.5001 104.362 55.7341 103.632 54.1695 102.932C50.3666 101.233 46.7013 99.0915 43.3898 96.5636C33.3086 88.8694 27.5 78.3654 27.5 65.5238V32.9807L28.7266 32.4557C32.8369 30.6996 35.5966 26.6341 35.5407 22.1308V22.1062V18.8558L36.9262 18.3963C44.1822 15.9948 52.1876 15 59.8098 15Z" fill="white"/>
<path fill-rule="evenodd" clip-rule="evenodd" d="M59.8101 17.0224C68.0463 17.0224 75.6741 18.2217 81.9031 20.2634V22.0544C81.8334 27.5926 85.307 32.3416 90.1378 34.315V65.5237C90.1378 94.184 59.714 102.899 59.714 102.899C59.714 102.899 29.5215 94.184 29.5215 65.5237V34.315C34.2484 32.2936 37.6303 27.5709 37.5615 22.1063V20.3131C43.8187 18.2424 51.5038 17.0224 59.8101 17.0224Z" fill="black"/>
<path fill-rule="evenodd" clip-rule="evenodd" d="M89.128 48.8091V48.4559L89.1275 48.3667C80.5859 48.3682 72.1776 50.5275 64.7696 54.7979C64.6739 54.8523 64.5787 54.9091 64.4814 54.9644C65.1305 55.7284 65.7491 56.5185 66.3393 57.3323C69.5829 61.8251 71.8398 67.0184 72.7017 72.4756C79.5437 69.5108 84.9661 64.3028 87.5547 57.3596C88.5946 54.5661 89.1024 51.689 89.128 48.8091Z" fill="#FBC707"/>
<path fill-rule="evenodd" clip-rule="evenodd" d="M59.8633 101.794C60.1529 101.703 60.4415 101.6 60.723 101.5C61.8723 101.093 63.0045 100.634 64.1177 100.139C67.731 98.5321 71.2179 96.506 74.3682 94.1127C83.7118 87.0168 89.1282 77.423 89.1282 65.5239V55.8079C88.9438 56.4496 88.7349 57.0859 88.5016 57.7128C87.4109 60.6387 85.8123 63.3238 83.774 65.686C80.7886 69.1444 77.01 71.7498 72.8471 73.5113C72.992 74.6744 73.0731 75.8468 73.0868 77.0255C73.1246 80.4501 72.5816 83.8697 71.4565 87.1062C69.867 91.6729 67.1903 95.7073 63.5947 98.9409C62.4228 99.9961 61.1742 100.947 59.8633 101.794Z" fill="#ED1C24"/>
<path fill-rule="evenodd" clip-rule="evenodd" d="M54.9593 75.0926V75.0911L54.9779 75.0926C55.4025 75.1059 55.8198 75.1408 56.2309 75.1958C61.7256 75.5561 67.0408 74.7302 71.7385 72.8732C70.8026 66.6267 67.9553 60.5748 63.6041 55.4925C57.1827 59.4452 51.761 64.9278 48.0715 71.5281C46.411 74.496 45.1378 77.629 44.2734 80.8704C46.4063 77.3997 50.2372 75.0869 54.6072 75.0869C54.7251 75.0869 54.8427 75.088 54.9593 75.0926Z" fill="white"/>
<path fill-rule="evenodd" clip-rule="evenodd" d="M53.5352 99.2858C54.1555 99.591 54.777 99.8855 55.4061 100.165C56.4305 100.623 57.4746 101.051 58.5307 101.435C64.0039 98.1324 68.2887 93.1311 70.5006 86.7736C71.9602 82.5811 72.3742 78.2069 71.8761 73.9045C70.1392 74.5762 68.3431 75.1047 66.5154 75.4909C64.316 75.9539 62.0819 76.2108 59.8421 76.2731C63.9156 78.2255 66.7294 82.3905 66.7294 87.2102C66.7294 93.9044 61.3013 99.3337 54.607 99.3337C54.2452 99.3337 53.8883 99.3173 53.5352 99.2858Z" fill="#59C134"/>
<path fill-rule="evenodd" clip-rule="evenodd" d="M63.6683 39.1959C66.0405 38.1667 68.4692 37.2879 70.9435 36.5636V29.7171C68.5276 29.3742 66.096 29.1476 63.6683 29.0337V39.1959ZM47.0994 49.8342C49.3727 47.7786 51.8063 45.8999 54.3745 44.2132V29.1209C51.9584 29.279 49.5212 29.5482 47.0994 29.9351V49.8342ZM30.5312 34.9648V65.5238C30.5312 68.3756 30.8413 71.0987 31.4397 73.6857C32.5145 70.3988 33.9127 67.2227 35.6031 64.2011C36.2921 62.9703 37.0266 61.7666 37.8055 60.5973V32.1048C35.2939 32.8921 32.8541 33.8395 30.5312 34.9648ZM80.238 34.5728C82.4474 34.2687 84.6751 34.077 86.9134 34.0031C84.7392 33.1005 82.5078 32.3303 80.238 31.6813V34.5728Z" fill="#3658B0"/>
<path fill-rule="evenodd" clip-rule="evenodd" d="M55.3832 43.5636C56.052 43.1423 56.7294 42.7326 57.4155 42.3395C59.1251 41.3546 60.8744 40.4554 62.6577 39.6442V28.9914C61.7068 28.9601 60.757 28.9446 59.8096 28.9446C58.3491 28.9446 56.8704 28.9808 55.3832 29.0611V43.5636ZM38.8145 59.1262C40.9644 56.1079 43.4049 53.3123 46.09 50.7684V30.1057C43.6315 30.5383 41.1937 31.0963 38.8145 31.7964V59.1262ZM71.9522 36.2747C74.3434 35.6159 76.7726 35.0972 79.2271 34.7194V31.4015C76.8346 30.7614 74.4034 30.2522 71.9522 29.8675V36.2747Z" fill="#ED1C24"/>
<path fill-rule="evenodd" clip-rule="evenodd" d="M38.5716 21.0491V22.0934C38.6204 26.0397 36.9837 29.7206 34.252 32.3657C41.7291 29.551 50.4691 27.9338 59.8098 27.9338C69.0966 27.9338 77.7905 29.533 85.2406 32.316C82.4933 29.6822 80.8426 26.0044 80.8927 22.0428V21C74.1732 18.8996 66.8146 18.0315 59.8098 18.0315C52.7556 18.0315 45.3333 18.9129 38.5716 21.0491Z" fill="white"/>
<path fill-rule="evenodd" clip-rule="evenodd" d="M89.1284 34.9754C61.7914 34.9754 38.7719 52.1674 31.9219 75.5381C33.6945 81.605 37.1152 86.8944 41.9114 91.3606C41.9114 91.3058 41.9081 91.2532 41.9081 91.2001C41.9081 66.9902 63.054 47.3577 89.1284 47.3577V34.9754Z" fill="white"/>
<path fill-rule="evenodd" clip-rule="evenodd" d="M56.4486 76.2483L54.5861 78.1301L56.5194 80.9661L60.5352 81.5341L62.7024 79.5971V79.5966C61.0825 77.9075 58.8591 76.6529 56.4486 76.2483ZM61.3209 82.1856L61.5067 86.4742L63.8868 88.7842L65.6506 88.4621C65.9831 85.7173 65.2694 82.6559 63.3599 80.3653L61.3209 82.1856ZM55.5738 92.2024L57.2545 88.572L60.901 87.3094L62.9617 89.3371L61.3749 93.077L57.5244 94.4145L55.5738 92.2024ZM57.7269 95.466L61.3729 94.1513L62.3005 95.1827C60.8184 96.826 58.3129 97.9961 55.9203 98.2441L55.4686 97.4748L57.7269 95.466ZM54.7244 98.3224L54.4664 97.8692L50.0107 96.4457L48.6911 96.6513C50.2982 97.6827 52.7218 98.3746 54.7244 98.3224ZM50.5143 86.9991L49.2492 89.9888L51.1316 92.5973L54.6365 91.7567L56.2171 88.3631L53.8842 85.9779L50.5143 86.9991ZM47.5613 95.7887L47.5391 95.7852C46.3598 94.8125 45.3068 93.6443 44.4097 91.6329L45.1763 90.1111L48.5473 90.6789L50.337 93.2905L49.567 95.4997L47.5613 95.7887ZM43.9671 90.4265L44.5004 89.4658L44.2223 85.7652L43.6288 85.4978C43.5651 85.9588 43.4932 86.4922 43.4932 87.2102C43.4932 88.0302 43.6594 89.4074 43.9671 90.4265ZM49.1948 79.9606L47.4053 78.7485C45.6709 80.2234 44.3986 82.2249 43.8261 84.504L43.831 84.5071L44.7506 84.8927L47.4173 83.4577L49.1948 79.9606ZM48.4854 83.6601L50.135 79.9395L53.7601 78.7134L55.6162 81.4345L53.551 85.0834L50.3334 86.0416L48.4854 83.6601Z" fill="white"/>
<path fill-rule="evenodd" clip-rule="evenodd" d="M72.5453 25.7501L69.7368 19.6594L68.3977 19.4619L67.2264 27.1761L68.5451 27.3738L69.3776 21.8902L72.2148 27.9256L73.5299 28.1327L74.7008 20.4174L73.3839 20.2208L72.5453 25.7501ZM66.6794 19.3709L66.5858 20.6976L63.9009 20.5071L63.7819 22.183L66.0939 22.3465L66.0016 23.6557L63.6889 23.4917L63.5373 25.6303L66.2231 25.8203L66.1285 27.1507L62.1136 26.8664L62.6659 19.085L66.6794 19.3709ZM61.1834 20.4194L57.7898 25.5546H61.1834V26.8886H56.2709V25.5546L59.6649 20.4194H56.2709V19.0865H61.1834V20.4194ZM52.7975 25.8203L55.1453 25.6139L55.2625 26.941L51.5872 27.2637L50.9022 19.4932L52.2293 19.3762L52.7975 25.8203ZM48.5658 21.9381C48.4162 21.1639 47.6773 21.2449 47.3872 21.3033L46.3357 21.5106L46.6638 23.1776L47.7154 22.9718C48.0633 22.9035 48.7172 22.7095 48.5658 21.9381ZM46.9173 24.4668C47.1173 25.4818 47.3872 26.8615 47.5878 27.8761C47.1712 27.9603 46.6977 28.0479 46.2807 28.1336L44.7744 20.4809L46.0818 20.2226C47.2966 19.9837 49.4497 19.5598 49.8667 21.6807C50.3211 23.984 48.4901 24.1569 46.9173 24.4668ZM70.6597 20.3626L70.1208 19.1855L71.0331 19.3241L71.4836 20.308L72.2055 19.5025L73.124 19.6419L72.2599 20.6057L70.6597 20.3626Z" fill="black"/>
<path fill-rule="evenodd" clip-rule="evenodd" d="M84.3794 41.8881L83.0254 39.373L82.2046 42.1132L84.3794 41.8881ZM78.8039 46.3831L77.1667 38.1018L75.7525 38.3817L77.3893 46.6619L78.8039 46.3831ZM73.1959 43.9335L76.76 46.7394L75.1317 47.2483L71.6333 44.4121C71.9612 45.4826 72.4069 46.9356 72.7347 48.0061C72.2957 48.1444 71.7969 48.2927 71.3567 48.4294L68.883 40.3599L70.2609 39.9372C71.5421 39.5444 73.8121 38.8485 74.498 41.0852C75.1847 43.3238 73.4008 43.8236 73.1959 43.9335ZM73.1265 41.5061C73.3753 42.3203 72.693 42.6004 72.3258 42.7136L71.2167 43.0539L70.6782 41.295L71.7862 40.9547C72.093 40.8608 72.8776 40.6904 73.1265 41.5061ZM64.0561 43.8565C62.6477 44.4946 62.0249 46.1529 62.6631 47.5602C63.3012 48.967 64.9595 49.5925 66.3681 48.9519C67.7758 48.3149 68.3986 46.6561 67.7611 45.2493C67.1232 43.8412 65.4631 43.2174 64.0561 43.8565ZM63.469 42.5609C61.3475 43.5231 60.4059 46.0246 61.3681 48.1486C62.3306 50.2699 64.8321 51.2115 66.9541 50.2486C69.0765 49.2873 70.0176 46.7846 69.0561 44.662C68.0925 42.5387 65.5908 41.5989 63.469 42.5609ZM59.958 45.919L58.7132 46.6974L62.4373 52.6478L61.213 53.4096L57.4911 47.4625L56.2689 48.227L55.5154 47.0228L59.1822 44.7284L59.958 45.919ZM59.9977 54.1423L54.4481 52.8349L54.7518 47.53L53.3567 48.6349L53.0848 53.0101L51.0603 50.4584L49.9218 51.3598L55.176 57.9661L56.3051 57.0705L53.9678 54.1232L58.6018 55.249L59.9977 54.1423ZM54.2095 58.8309L48.3741 52.732L47.332 53.7292L53.1685 59.8275L54.2095 58.8309ZM50.8024 62.3901L49.8741 63.4948L41.2674 60.6159L42.1948 59.5114L48.8358 61.6778L45.5576 55.5098L46.4852 54.408L50.8024 62.3901ZM35.1366 76.5909L36.0759 73.8617L34.7332 73.3991L33.3242 77.4923L41.3043 80.2405L41.7729 78.8781L38.2179 77.6546L39.1577 74.9231L37.8152 74.4614L36.8754 77.1902L35.1366 76.5909ZM36.9167 68.0915C37.4268 67.0445 38.3138 66.3018 39.335 65.9502L39.7983 67.2939C39.121 67.5279 38.5333 68.0193 38.1948 68.7141C37.516 70.1022 38.0951 71.779 39.4833 72.456C40.8732 73.1332 42.5493 72.5556 43.2267 71.1659C43.5641 70.4714 43.5894 69.7049 43.3559 69.029L44.7008 68.566C45.0524 69.586 45.014 70.7419 44.5039 71.7885C43.4827 73.8843 40.9558 74.7537 38.8611 73.734C36.7664 72.7134 35.8957 70.1848 36.9167 68.0915ZM87.8589 45.3081L86.3083 45.4677L85.1081 43.2392L81.7669 43.5855L81.0415 46.0164L79.4884 46.1771L82.1049 37.4195L83.5291 37.2712L87.8589 45.3081Z" fill="black"/>
</svg>
