<svg width="16" height="16" viewBox="0 0 16 16" fill="none" xmlns="http://www.w3.org/2000/svg">
<g clip-path="url(#clip0_11088_171813)">
<g clip-path="url(#clip1_11088_171813)">
<path fill-rule="evenodd" clip-rule="evenodd" d="M14.2591 2.99625C14.9444 3.18076 15.4847 3.72111 15.6692 4.40644C15.9987 5.65847 15.9987 8.2548 15.9987 8.2548C15.9987 8.2548 15.9987 10.8511 15.6692 12.1032C15.4847 12.7885 14.9444 13.3288 14.2591 13.5134C13.007 13.8428 7.99888 13.8428 7.99888 13.8428C7.99888 13.8428 2.99073 13.8428 1.7387 13.5134C1.05337 13.3288 0.513017 12.7885 0.328507 12.1032C-0.000976562 10.8643 -0.000976562 8.2548 -0.000976562 8.2548C-0.000976562 8.2548 -0.000976562 5.65847 0.328507 4.40644C0.513017 3.72111 1.05337 3.18076 1.7387 2.99625C2.99073 2.66676 7.99888 2.66676 7.99888 2.66676C7.99888 2.66676 13.007 2.66676 14.2591 2.99625ZM10.5557 8.268L6.391 10.6666V5.85619L10.5557 8.268Z" fill="#FF0000"/>
</g>
</g>
<defs>
<clipPath id="clip0_11088_171813">
<rect width="15.9997" height="15.9997" fill="white" transform="translate(-0.000976562 0.000152588)"/>
</clipPath>
<clipPath id="clip1_11088_171813">
<rect width="15.9997" height="15.9997" fill="white" transform="translate(-0.000976562 0.000152588)"/>
</clipPath>
</defs>
</svg>
