<svg width="120" height="120" viewBox="0 0 120 120" fill="none" xmlns="http://www.w3.org/2000/svg">
<path d="M60.0002 15.0037C35.1495 15.0037 15.0039 35.1493 15.0039 60C15.0039 84.8508 35.1495 104.996 60.0002 104.996C84.851 104.996 104.997 84.8508 104.997 60C104.997 35.1493 84.851 15.0037 60.0002 15.0037Z" fill="#FEC900"/>
<path d="M59.9999 16.6901C36.1189 16.6901 16.6902 36.1189 16.6902 60.0001C16.6902 83.8811 36.1189 103.31 59.9999 103.31C83.8811 103.31 103.31 83.8811 103.31 60.0001C103.31 36.1189 83.8811 16.6901 59.9999 16.6901ZM59.9999 105C35.1868 105 15 84.813 15 60.0001C15 35.187 35.1868 15 59.9999 15C84.813 15 105 35.187 105 60.0001C105 84.813 84.813 105 59.9999 105Z" fill="#003671"/>
<path d="M80.9597 50.2125C80.9597 51.305 80.9009 52.3859 80.8185 53.4608C80.6892 55.1349 80.4718 56.7853 80.1486 58.4007C79.8252 60.016 79.402 61.5902 78.9023 63.1291C78.5204 64.304 78.0913 65.4552 77.6092 66.5772C77.4564 66.9355 77.2918 67.282 77.1332 67.6344C76.9039 68.1277 76.6688 68.6153 76.4218 69.097C76.1926 69.5434 75.9574 69.9898 75.7166 70.4303C75.4343 70.9296 75.1464 71.429 74.8466 71.9223C74.6055 72.3159 74.3529 72.7036 74.0943 73.0913C73.8707 73.4378 73.6358 73.7726 73.4007 74.1134C72.5482 75.3233 71.6372 76.4805 70.6673 77.5907C69.6739 78.7243 68.6277 79.805 67.5225 80.8212C66.3941 81.8609 65.2066 82.8418 63.9664 83.7523C62.691 84.6921 61.3626 85.5496 59.9811 86.3427C58.6057 85.5496 57.2772 84.6921 56.0018 83.7523C54.7615 82.8418 53.5741 81.8609 52.4398 80.8212C51.3347 79.805 50.2942 78.7243 49.3008 77.5907C50.6823 77.0912 52.0107 76.4864 53.2802 75.7873C54.5263 75.1059 55.7136 74.3365 56.8422 73.4906C57.9533 72.6508 59.0054 71.7343 59.9811 70.7534C60.9688 69.7608 61.8797 68.7034 62.7145 67.5816C63.4902 66.536 64.1957 65.4435 64.8305 64.298C64.8952 64.1806 64.9598 64.0631 65.0186 63.9457C65.0773 63.8398 65.1303 63.7283 65.1891 63.6226C65.7122 62.618 66.1765 61.5784 66.5822 60.5094C66.6703 60.2685 66.7584 60.0279 66.8408 59.7868C66.8642 59.7224 66.882 59.6636 66.9054 59.599C67.3286 58.3538 67.6755 57.0733 67.9282 55.7575C68.1927 54.383 68.3632 52.9791 68.4278 51.5458C68.4454 51.1053 68.4631 50.6589 68.4631 50.2125C68.4631 49.1904 68.4044 48.1801 68.3044 47.1817C67.0406 46.8586 65.7534 46.6178 64.4367 46.4416C64.2956 46.4238 64.1486 46.4063 64.0017 46.3886C62.7673 46.2358 61.5094 46.1536 60.2399 46.142C60.1516 46.142 60.0694 46.1361 59.9811 46.1361C59.8989 46.1361 59.8165 46.142 59.7284 46.142C58.453 46.1536 57.201 46.2358 55.9665 46.3886C56.1898 44.9084 56.5543 43.4811 57.0246 42.1006C57.5006 42.0654 57.9708 42.0303 58.447 42.0125C58.9583 41.995 59.4698 41.9775 59.9811 41.9775C60.4985 41.9775 61.0097 41.995 61.5212 42.0125C61.9972 42.0303 62.4675 42.0654 62.9378 42.1006C63.9487 42.183 64.9421 42.2946 65.9239 42.4473C66.447 42.5295 66.9701 42.6235 67.4815 42.7292C69.0392 43.0406 70.5557 43.4635 72.031 43.9628C72.319 45.4782 72.5129 47.0289 72.5835 48.609C72.6128 49.1435 72.6247 49.678 72.6247 50.2125C72.6247 51.1934 72.5778 52.1568 72.4895 53.1143C72.3661 54.5885 72.1428 56.0336 71.8312 57.4432C71.5197 58.8471 71.1257 60.2216 70.6379 61.5549C70.4911 61.9661 70.3265 62.3774 70.1619 62.7767C70.1266 62.8707 70.0914 62.9647 70.0561 63.0528C69.721 63.8576 69.3447 64.6388 68.9509 65.4083C68.7451 65.8135 68.5277 66.213 68.3044 66.6064C68.2573 66.6888 68.2104 66.771 68.1633 66.8591C67.4638 68.0633 66.6937 69.2263 65.8533 70.3306C65.0127 71.4406 64.0957 72.4921 63.1258 73.4906C62.1383 74.4952 61.0921 75.4408 59.9811 76.3161C58.8527 77.2089 57.6651 78.0371 56.425 78.7831C57.5595 79.7403 58.7409 80.6332 59.9811 81.4556C61.2214 80.6332 62.4088 79.7403 63.5433 78.7831C64.6482 77.8431 65.6946 76.8447 66.688 75.7873C67.6577 74.7476 68.5749 73.6611 69.4212 72.5156C70.1383 71.5581 70.8084 70.5596 71.4255 69.5316C71.5314 69.3613 71.6254 69.1851 71.7253 69.0148C71.8899 68.7269 72.0604 68.4391 72.225 68.1455C72.6718 67.323 73.0831 66.4832 73.4712 65.6255C73.5181 65.5198 73.571 65.4083 73.6181 65.3024C73.7886 64.9207 73.9472 64.533 74.1059 64.1453C74.6586 62.7592 75.1346 61.3435 75.5224 59.8867C75.9165 58.4184 76.216 56.9146 76.4277 55.3757C76.6394 53.8426 76.7628 52.2743 76.7803 50.6824C76.7803 50.5239 76.7922 50.3712 76.7922 50.2125C76.7922 48.7265 76.6922 47.2579 76.5277 45.8188C78.0501 46.5648 79.5137 47.4107 80.9126 48.3506C80.9362 48.9673 80.9597 49.5899 80.9597 50.2125Z" fill="#003671"/>
<path d="M80.3504 43.1371C78.8289 42.2794 77.2545 41.5218 75.6212 40.8637C74.0527 40.2233 72.4312 39.6772 70.7744 39.2365C70.0696 39.0484 69.3587 38.8722 68.6362 38.7195C67.7313 38.5317 66.8207 38.373 65.8985 38.2437C65.2111 38.1438 64.5238 38.0675 63.8247 38.0029C62.9023 37.9207 61.9683 37.8679 61.0284 37.8442C60.6876 37.8383 60.3468 37.8208 60.0001 37.8208C59.6596 37.8208 59.3188 37.8383 58.978 37.8442C58.0381 37.8679 57.104 37.9207 56.1816 38.0029C55.4826 38.0675 54.7951 38.1438 54.1078 38.2437C53.1854 38.373 52.2689 38.5317 51.3702 38.7195C50.6477 38.8722 49.9367 39.0484 49.2317 39.2365C47.5693 39.6772 45.9537 40.2233 44.385 40.8577C43.968 42.4733 43.6684 44.1358 43.4687 45.8276C44.9138 45.111 46.4178 44.4941 47.9629 43.9712C49.4375 43.472 50.9532 43.049 52.5041 42.7317C52.1221 44.1827 51.846 45.669 51.6875 47.1905C50.2188 47.5723 48.7912 48.054 47.4047 48.6179C45.9537 49.2113 44.5555 49.9045 43.2161 50.6917C43.2336 52.2836 43.357 53.8461 43.5685 55.3852C43.7096 56.4074 43.8917 57.4179 44.1148 58.4106C44.2206 58.9098 44.3381 59.4034 44.4733 59.8969C44.6964 60.7485 44.9607 61.5944 45.2487 62.4228C45.4485 63.0045 45.66 63.5802 45.889 64.15C46.0477 64.5435 46.2064 64.9312 46.3767 65.313C46.8055 66.2823 47.2638 67.2341 47.7689 68.1562C47.9276 68.4499 48.0979 68.7379 48.2684 69.0256C48.9734 70.2358 49.7371 71.4106 50.5712 72.5268C49.3023 73.1671 47.9747 73.7076 46.594 74.1246C46.0946 73.408 45.6011 72.6795 45.143 71.9276C44.8433 71.44 44.5614 70.9408 44.2794 70.4413C43.7742 69.531 43.2982 68.5967 42.8635 67.6452C42.6991 67.2928 42.5404 66.9461 42.3877 66.5878C42.0235 65.7478 41.7004 64.89 41.3949 64.0266C41.2891 63.7329 41.1891 63.4333 41.0953 63.1395C40.7546 62.0939 40.455 61.0365 40.1964 59.9615C40.073 59.4446 39.9555 58.9335 39.8497 58.4106C39.5267 56.795 39.3093 55.1444 39.18 53.4644C39.0978 52.3952 39.0391 51.3143 39.0391 50.2216C39.0391 49.599 39.0625 48.9762 39.086 48.3595C39.1684 46.5855 39.3621 44.8408 39.656 43.1371C39.9674 41.3219 40.3844 39.5479 40.9189 37.8267C42.5875 37.057 44.3087 36.3816 46.0771 35.8175C46.4236 35.7119 46.7762 35.606 47.1229 35.5063C48.4974 35.1068 49.8898 34.766 51.3115 34.4901C51.7638 34.4018 52.2161 34.3196 52.6744 34.249C53.9669 34.0378 55.277 33.8907 56.6046 33.7967C57.0863 33.7616 57.5739 33.7264 58.0615 33.7086C58.7078 33.6792 59.3541 33.6558 60.0001 33.6558C60.6523 33.6558 61.2986 33.6792 61.9389 33.7086C62.4325 33.7264 62.9201 33.7616 63.4018 33.7967C64.7294 33.8907 66.0395 34.0378 67.332 34.249C67.7843 34.3196 68.2426 34.4018 68.689 34.4901C70.1106 34.766 71.5088 35.1068 72.8776 35.5063C73.2302 35.606 73.5826 35.7119 73.9293 35.8175C75.6976 36.3875 77.4188 37.057 79.0872 37.8267C79.622 39.5479 80.039 41.3219 80.3504 43.1371Z" fill="#003671"/>
<path d="M64.3122 50.6107C64.3004 51.2812 64.271 51.9518 64.2063 52.6105C64.1358 53.3398 64.0299 54.0573 63.9004 54.7632C63.6416 56.1571 63.277 57.5099 62.8006 58.8155C62.3829 58.6626 61.9593 58.5155 61.53 58.3862C60.63 58.104 59.7065 57.8627 58.7712 57.6747C59.1653 56.6395 59.4889 55.569 59.7184 54.4691C58.4947 54.4807 57.289 54.5808 56.1183 54.7632C55.8479 54.8044 55.5773 54.8572 55.3066 54.9102C54.2009 55.116 53.1126 55.4042 52.0596 55.7572C52.148 56.2042 52.2422 56.6454 52.348 57.0806C52.5538 57.9392 52.801 58.7802 53.0832 59.6038C53.101 59.6684 53.1244 59.7274 53.142 59.792C53.3186 60.286 53.5009 60.7742 53.7008 61.2565C54.0301 62.0682 54.4009 62.8622 54.8009 63.6327C54.8537 63.7385 54.9126 63.8503 54.9654 63.9561C55.1184 63.7856 55.2654 63.6208 55.4125 63.4444C55.9066 62.8387 56.3655 62.2093 56.7948 61.5506C57.4067 61.6446 58.0067 61.7682 58.6007 61.9093C59.4241 62.1035 60.236 62.3386 61.024 62.6152C60.983 62.6798 60.9475 62.7504 60.9065 62.821C60.6182 63.3092 60.3241 63.7856 60.0065 64.2502C59.1948 65.4443 58.2771 66.5617 57.2771 67.5969C56.3066 68.5969 55.2595 69.5203 54.1303 70.3495C53.2949 69.2438 52.5244 68.0792 51.8245 66.8735C51.5479 66.3971 51.2891 65.9089 51.0363 65.4206C50.6363 64.6501 50.2658 63.868 49.9305 63.0622C49.7245 62.5681 49.5246 62.0682 49.3423 61.5624C49.3364 61.5388 49.3305 61.5153 49.3186 61.4917C48.8481 60.1801 48.4598 58.8333 48.1541 57.4511V57.4452C47.8423 56.0276 47.6188 54.5868 47.4893 53.1104C48.7951 52.487 50.154 51.9634 51.5598 51.54C52.9009 51.1342 54.2892 50.8224 55.7066 50.6107C55.7949 50.5988 55.8891 50.5872 55.9772 50.5754C57.2478 50.399 58.5477 50.3048 59.8654 50.2931H60.0065C60.0593 50.2931 60.1065 50.2931 60.1536 50.2988C61.471 50.3048 62.771 50.399 64.0416 50.5754C64.1299 50.5872 64.2239 50.5988 64.3122 50.6107Z" fill="#003671"/>
<path d="M46.2665 90.2858L46.9029 89.1312L42.2045 86.5419L38.7783 92.7589L40.2171 93.552L41.4652 91.2872L44.3429 92.873L44.9791 91.7184L42.1016 90.1326L43.0071 88.4894L46.2665 90.2858ZM48.6649 97.3773C49.8484 97.7373 50.9582 97.6086 51.8375 97.0175L51.112 95.7792C50.4936 96.1741 49.8387 96.2715 49.1595 96.0649C47.8885 95.6782 47.2578 94.5112 47.6474 93.2305C48.037 91.9498 49.2108 91.3318 50.4818 91.7184C51.161 91.925 51.6507 92.3708 51.9474 93.0336L53.2397 92.4091C52.8355 91.4381 51.9854 90.7132 50.8116 90.356C48.6966 89.7124 46.6792 90.6993 46.0563 92.7465C45.4335 94.7934 46.5596 96.7367 48.6649 97.3773ZM59.3621 97.6065L63.156 92.8384L63.136 91.7736L57.164 91.887L57.1894 93.2254L61.0017 93.1529L57.1974 97.9215L57.2177 98.9861L63.4229 98.8682L63.3973 97.5298L59.3621 97.6065ZM65.5901 98.6121L70.68 97.5372L70.4034 96.2275L66.9208 96.963L65.7308 91.3272L64.1234 91.6667L65.5901 98.6121ZM69.14 89.9148L70.3094 89.5111L71.5679 87.5317L69.9574 88.0878L69.14 89.9148ZM71.7414 97.1381L73.2944 96.6019L70.9774 89.892L69.4246 90.4282L71.7414 97.1381ZM76.4415 87.3078L78.4758 91.1072L73.3303 88.9734L72.1324 89.6148L75.4829 95.873L76.9134 95.1072L74.8791 91.3075L80.0335 93.4367L81.2225 92.7999L77.872 86.5419L76.4415 87.3078Z" fill="#003671"/>
<path d="M35.3174 86.6312L36.0004 85.3919C29.2574 79.0154 25.0432 69.9908 25.0432 59.9999C25.0432 40.725 40.7246 25.0438 59.9995 25.0438C79.2747 25.0438 94.9561 40.725 94.9561 59.9999C94.9561 69.9908 90.7419 79.0152 83.9989 85.3919L84.6819 86.6312C91.8407 79.9915 96.3294 70.5108 96.3294 59.9999C96.3294 39.9678 80.0319 23.6705 59.9995 23.6705C39.9674 23.6705 23.6699 39.9678 23.6699 59.9999C23.6699 70.5108 28.1585 79.9915 35.3174 86.6312Z" fill="#003671"/>
</svg>
