<svg width="120" height="120" viewBox="0 0 120 120" fill="none" xmlns="http://www.w3.org/2000/svg">
<path d="M85.1435 68.5256C84.5392 67.6797 83.4515 65.2223 81.5985 63.7318C79.7454 62.2413 77.127 63.5707 77.127 63.5707C79.3829 63.6916 80.2288 64.3764 79.9468 67.3977C79.6648 70.3787 81.961 71.3455 83.4113 71.7886C84.8615 72.2318 85.4657 73.7626 85.4657 73.7626L85.6672 71.3858C88.5676 71.6275 88.0842 68.9285 88.0842 68.9285C87.6411 70.3384 85.7477 69.4119 85.1435 68.5256ZM82.4444 69.5327C81.7193 68.4854 82.3639 66.4309 82.3639 66.4309L83.2904 67.72C83.2904 67.72 82.8876 68.6868 83.371 69.2105C83.8544 69.7744 84.5392 69.4925 84.5392 69.4925L84.8615 69.9356C84.8615 69.9356 83.1696 70.5398 82.4444 69.4925V69.5327Z" fill="#00193E"/>
<path d="M91.6695 72.0303C90.6221 66.1086 90.0985 59.8243 90.0985 59.8243C90.0985 59.8243 95.0534 51.3244 90.8638 39.6823C89.1316 34.8079 85.7075 30.3364 81.236 26.8317C75.5156 22.3602 68.0631 19.5 60.1674 19.5C52.2718 19.5 43.2481 22.3199 37.1653 27.2345C25.0398 29.8127 18.3929 33.5994 18.3929 33.5994C18.3929 33.5994 14.1631 77.1867 60.2077 98.8998C66.1697 96.0799 71.6081 92.6155 75.999 89.2316C77.2076 90.6818 77.8118 91.5278 79.3023 92.2126C83.6933 94.1463 86.9563 92.2932 86.9563 92.2932C86.9563 92.2932 90.0179 92.0515 91.7501 89.5136C94.5297 85.4852 92.3544 76.3004 91.589 71.9901L91.6695 72.0303ZM91.5487 83.6724C91.4278 83.5113 90.7833 82.7459 90.0179 82.0611C89.1316 81.2957 88.4065 81.8194 87.7217 81.7388C86.9563 81.6179 86.6743 81.2957 86.6743 81.2957C86.6743 81.2957 86.7549 84.1558 89.0108 84.6392C89.1316 84.6392 89.2928 84.7198 89.3733 84.8004C90.7027 85.4449 90.5819 86.8549 90.1387 88.3051C89.615 89.9164 87.3591 89.9567 87.3591 89.9567L87.0772 89.6344L84.781 87.0966L81.3971 86.2103C81.3971 86.2103 84.0558 88.4259 84.5795 89.715C85.0629 91.0444 85.063 91.4875 85.063 91.4875C85.063 91.4875 83.9753 91.6084 82.6056 91.4069C82.6056 91.4069 82.0014 91.3667 81.1957 91.0847C80.5511 90.8833 79.9469 90.561 79.4232 90.1179C79.3829 90.1179 79.3426 90.0373 79.3023 89.997C79.1412 89.8359 78.9801 89.6747 78.8592 89.5136C77.4896 87.7814 76.8047 86.0492 74.7905 84.317C74.2266 83.8336 73.5417 83.3904 72.6555 82.9473C72.2526 82.7459 71.8901 82.5042 71.4872 82.1819C70.5204 81.5776 69.5939 80.772 68.6271 79.2009C68.3451 78.7175 68.0631 78.2744 67.8617 77.8715C67.1366 76.663 66.5726 75.5753 66.3309 75.0516C66.21 74.7697 66.1697 74.6488 66.1697 74.6488C66.1697 74.6488 66.5726 74.2862 67.3783 73.5611C67.7005 73.2791 67.9422 72.9972 68.1437 72.7957C68.9896 71.7886 69.9564 70.3787 70.601 68.5659C72.0915 64.4167 71.1247 60.9925 71.1247 60.912C71.1247 60.912 70.037 57.1655 66.9754 55.0708C65.2835 53.8623 62.9067 53.6206 61.3357 53.7414C57.1461 54.104 54.4874 57.7698 54.4874 57.7698C60.5703 57.1253 63.1887 60.2271 62.947 62.8053C62.7053 65.3835 60.9328 66.7934 58.9186 67.5588C57.7504 68.0422 56.421 68.2839 55.0916 68.2839C49.2907 68.2839 44.5775 63.5707 44.5775 57.7698C44.5775 51.9689 47.0751 48.6656 55.5348 46.8931C56.5419 46.6917 58.8381 46.4097 58.8381 46.4097C60.0466 51.1229 64.7598 49.5519 64.7598 49.5519C66.21 51.1632 66.8143 52.4523 67.0157 53.3788C67.0157 52.8552 67.0157 52.1703 66.9754 51.2841C66.8949 49.0282 65.3238 46.2486 62.0608 44.4761C59.12 42.8647 59.2409 40.1254 59.2409 40.1254C59.2409 40.1254 61.0134 42.5827 62.7859 43.1467C66.5323 44.3955 67.8214 44.3955 70.3996 47.1751C72.4138 49.3102 72.7763 50.9618 72.9777 52.3717C72.9777 52.2912 72.9777 52.1703 72.9777 52.0898C72.9777 43.751 65.4849 36.2581 55.9779 36.2581C46.4709 36.2581 38.3335 44.0732 38.3335 53.6206C38.3335 63.1679 46.068 70.5801 55.3334 70.5801C64.5987 70.5801 61.9399 69.573 63.9944 66.2697C65.2432 64.2555 66.1697 59.9451 62.5442 57.649C60.3689 56.5613 58.2338 56.6016 58.2338 56.6016C58.2338 56.6016 62.3831 52.8149 67.3783 57.8101C73.018 63.4498 68.3451 74.9308 56.8239 76.5824C56.8239 76.5824 56.8239 76.5824 56.9044 76.5824C41.3951 79.1606 28.4236 68.3242 28.4236 52.8149C28.4236 37.3055 28.7056 48.3031 29.189 46.2083C31.9686 32.834 43.8927 22.8033 58.1129 22.8033C72.3332 22.8033 85.7075 34.1634 87.4397 48.8268C87.6814 50.7604 87.5606 52.7343 87.1174 54.6277L86.9563 55.3528C86.9563 55.3528 82.6459 55.5139 80.4303 49.7533C80.4706 50.3173 80.5109 50.8812 80.5511 51.4452C80.7526 55.7959 82.807 57.9309 82.807 57.9309C82.807 57.9309 83.4919 58.7366 85.063 59.8646C85.9895 60.5494 87.0771 61.5162 88.0037 63.4096V63.4901C88.0037 63.4901 89.1316 65.5043 89.5748 68.8882C89.6553 69.4924 89.8567 70.7815 90.0985 72.3929C90.9041 77.6298 91.7904 83.6724 91.7904 83.6724C91.7904 83.6724 91.7904 83.6724 91.7904 83.6321L91.5487 83.6724ZM59.4826 43.8315C59.4826 43.8315 59.6035 44.5566 60.9328 45.4026C62.2622 46.2486 63.3096 46.6514 63.9944 48.6253C63.9944 48.6253 59.8049 49.5116 59.4826 43.8315Z" fill="#00193E"/>
<path d="M89.2125 84.7601C89.1319 84.7198 89.011 84.6795 88.9305 84.6392C88.9305 84.6392 89.8973 88.6273 86.2314 88.7885L87.2788 89.9567C87.2788 89.9567 89.5347 89.9164 90.0584 88.3051C90.5418 86.8146 90.6627 85.3643 89.2125 84.7198V84.7601Z" fill="white"/>
<path d="M82.6058 57.9712C82.6058 57.9712 80.5513 55.8361 80.3499 51.4855C79.8262 39.8031 74.1462 26.9928 54.1653 26.9928C34.1844 26.9928 33.1371 34.687 29.1892 45.604C28.585 47.9002 28.2627 50.3172 28.2627 52.7746C28.2627 68.3242 41.2341 79.1606 56.7435 76.5421C57.67 76.2601 66.4116 73.5208 66.7742 66.2294C67.0159 61.1939 64.6794 58.8172 62.4235 57.6489C66.0088 59.9451 65.1226 64.2555 63.8738 66.2697C61.8193 69.573 57.3075 70.5801 55.2127 70.5801C45.9877 70.5801 38.2128 63.1275 38.2128 53.6205C38.2128 44.1135 46.3502 36.2581 55.8572 36.2581C65.3643 36.2581 72.8571 43.7912 72.8571 52.0897C72.8571 60.3882 73.985 59.6228 82.6058 57.8906V57.9712Z" fill="white"/>
<path d="M89.333 68.9285C88.8898 65.5849 87.8022 63.5304 87.8022 63.5304L86.3117 66.31C86.3117 66.31 85.4254 64.8598 83.2904 63.6513C81.6387 62.7248 79.0605 62.9665 79.0605 62.9665C79.8662 62.8859 80.7928 63.047 81.5582 63.6513C83.4112 65.1418 84.4586 67.5991 85.1031 68.4451C85.7074 69.2911 87.6008 70.2579 88.0439 68.8479C88.0439 68.8479 88.2856 70.1773 87.4396 70.9024C87.7619 71.3455 88.0036 71.8692 88.1647 72.4735C88.5273 74.0446 86.4325 76.5422 88.3662 80.3692L86.5534 80.0872L86.6339 81.2554C86.6339 81.2554 86.9159 81.5777 87.6813 81.6985C88.3662 81.7791 89.1316 81.2554 89.9775 82.0208C90.8638 82.7862 91.5486 83.6724 91.5486 83.6724C91.5486 83.6724 89.6552 71.2247 89.333 68.8882V68.9285Z" fill="white"/>
<path d="M82.3636 66.4309L83.2901 67.72C83.2901 67.72 82.8873 68.6868 83.3707 69.2105C83.8541 69.7745 84.539 69.4925 84.539 69.4925L84.8612 69.9356C84.8612 69.9356 83.1693 70.5398 82.4442 69.4925C81.7191 68.4451 82.3636 66.3906 82.3636 66.3906V66.4309Z" fill="white"/>
<path d="M59.4824 43.8315C59.4824 43.8315 59.6033 44.5567 60.9326 45.4026C62.262 46.2486 63.3094 46.6514 63.9942 48.6253C63.9942 48.6253 59.8047 49.5116 59.4824 43.8315Z" fill="white"/>
<path d="M76.0394 89.2719C71.5679 92.7766 66.331 96.0396 60.2078 98.9401C21.374 80.6108 18.3124 46.6917 18.3124 36.5804C18.3124 34.6871 18.4333 33.6397 18.4333 33.6397C18.4333 33.6397 18.4736 33.6397 18.5139 33.5994C18.5139 33.5994 18.5944 33.5591 18.6347 33.5188C18.6347 33.5188 18.7153 33.4785 18.7556 33.4383C18.8764 33.3577 19.0376 33.3174 19.1987 33.1966C19.2793 33.1966 19.3598 33.116 19.4404 33.0757C19.7224 32.9146 20.0849 32.7534 20.4878 32.5923C20.8906 32.3909 21.374 32.1895 21.8977 31.988C22.4214 31.7866 22.9854 31.5449 23.6299 31.3032C24.2745 31.0615 24.9593 30.8198 25.6844 30.5378C26.6512 30.1753 27.7389 29.8127 28.9071 29.4904C29.7531 29.2084 30.6796 28.9667 31.6464 28.6847C31.6464 28.6847 31.6464 28.6847 31.6867 28.6847C32.3313 28.5236 32.9758 28.3222 33.7009 28.1611C34.0232 28.0805 34.3858 27.9999 34.708 27.9194C34.708 27.9194 34.7483 27.9194 34.7886 27.9194C35.4734 27.7582 36.1985 27.5971 36.9639 27.4359C37.6085 26.9123 38.2933 26.3886 39.0184 25.9052C34.9497 26.6705 31.5256 27.5568 28.8266 28.4028C21.656 30.5781 17.7887 32.7534 17.6276 32.8743L17.1442 33.1563V33.7202C17.0636 34.1634 16.0565 44.9998 20.7698 58.6963C23.5494 66.7128 27.7389 74.0445 33.1772 80.49C39.9852 88.5065 48.8477 95.1131 59.523 100.149L60.0064 100.35L60.4898 100.149C66.4115 97.369 71.7693 94.0657 76.5228 90.3193C76.3214 90.0776 76.0797 89.7956 75.838 89.4733L76.0394 89.2719Z" fill="white"/>
<path d="M103.191 33.5591V32.9549C103.15 32.9549 102.627 32.6729 102.627 32.6729C102.466 32.5923 98.5983 30.417 91.4277 28.2014C88.2856 27.2345 84.1766 26.1872 79.2217 25.3412C79.9065 25.8246 80.5913 26.308 81.2762 26.8317C94.6907 29.4099 102.063 33.5994 102.063 33.5994C102.063 33.5994 103.432 53.5803 91.6694 72.1512C91.75 72.6346 91.8709 73.1583 91.9514 73.7223C97.9135 64.6584 100.653 55.3125 101.942 48.5851C103.594 39.924 103.191 33.8008 103.15 33.5591H103.191Z" fill="white"/>
<path d="M80.2286 49.7936C82.4845 55.5542 86.7546 55.3931 86.7546 55.3931L86.9157 54.668C87.3588 52.7746 87.4797 50.8007 87.238 48.8671C85.5058 34.2037 73.058 22.8436 57.9112 22.8436C42.7644 22.8436 31.8072 32.8743 28.9873 46.2486C29.0276 46.0472 29.0679 45.8861 29.1082 45.6847C33.056 34.7677 42.7644 27.0734 54.0842 27.0734C73.0983 27.0734 79.1409 38.6752 80.148 49.8742L80.2286 49.7936Z" fill="#FFCB00"/>
<path d="M67.2168 57.8101C62.2215 52.8149 58.0723 56.6016 58.0723 56.6016C58.0723 56.6016 67.2168 56.4807 66.7334 66.2295C66.3708 73.964 56.6221 76.5824 56.6221 76.5824C68.1433 74.8905 72.8162 63.4096 67.1765 57.8101H67.2168Z" fill="#FFCB00"/>
<path d="M102.062 33.7606C102.062 33.7606 102.062 33.7203 102.062 33.68C102.062 33.68 102.062 33.68 102.022 33.68C102.022 33.68 101.982 33.68 101.941 33.6398C101.941 33.6398 101.861 33.5995 101.82 33.5592C101.7 33.5189 101.579 33.4383 101.418 33.3578C99.202 32.2298 92.2732 29.0877 81.3965 26.9929C81.6785 27.1943 81.9605 27.436 82.2022 27.6777C82.4842 27.9194 82.7259 28.1208 83.0078 28.3625C86.6737 31.6255 89.4533 35.5734 90.9841 39.8838C91.1049 40.2463 91.2661 40.6492 91.3466 41.0117C91.4272 41.2937 91.5078 41.5757 91.5883 41.8577C91.5883 41.8577 91.5883 41.8577 91.5883 41.898C93.24 47.8197 92.5954 52.7747 91.7092 55.9974C91.0244 58.5353 90.1784 59.9855 90.1784 59.9855C90.1784 59.9855 90.6618 66.2295 91.7495 72.1915C91.7495 72.2318 91.7495 72.2721 91.7495 72.3124C95.2139 66.7935 97.5504 61.194 99.1214 55.9974C102.586 44.4359 102.223 35.0497 102.143 33.8815L102.062 33.7606Z" fill="#FFCB00"/>
<path d="M88.9301 84.6393C86.7145 84.1559 86.5936 81.2957 86.5936 81.2957L86.513 80.1275L88.3258 80.4095C86.4325 76.5825 88.5272 74.0849 88.1244 72.5138C87.9633 71.9096 87.7216 71.3859 87.3993 70.9427C87.0367 71.265 86.4728 71.4664 85.5865 71.3859L85.3851 73.7626C85.3851 73.7626 84.7406 72.2318 83.3306 71.7887C81.9207 71.3053 79.6245 70.3788 79.8662 67.3978C80.1482 64.4167 79.3022 63.6916 77.0463 63.5708C77.0463 63.5708 77.9326 63.1277 79.0202 63.0471C79.0202 63.0471 81.5984 62.8054 83.25 63.7319C85.3851 64.9404 86.2713 66.3907 86.2713 66.3907L87.7619 63.6111C86.8756 61.6371 85.7477 60.6703 84.7808 59.9855C83.25 58.8575 82.5249 58.0519 82.5249 58.0519C74.1459 59.7035 72.8568 55.9974 72.7762 52.533C72.5748 51.123 72.2122 49.4311 70.198 47.3363C67.6198 44.597 66.3308 44.5567 62.5843 43.3079C60.8521 42.7439 59.0394 40.2866 59.0394 40.2866C59.0394 40.2866 58.9185 43.0259 61.8592 44.6373C65.1625 46.4501 66.6933 49.1894 66.7739 51.4453C66.7739 52.3315 66.8142 52.9761 66.8142 53.5401C66.6128 52.6135 66.0488 51.3244 64.5583 49.7131C64.5583 49.7131 59.845 51.2842 58.6365 46.5709C58.6365 46.5709 56.3403 46.8529 55.3332 47.0543C46.8736 48.8268 44.376 53.6609 44.376 57.931C44.376 62.2011 49.0892 68.4451 54.8901 68.4451C60.691 68.4451 57.5488 68.2034 58.7171 67.72C60.7313 66.9143 62.5038 65.5447 62.7455 62.9665C62.9872 60.3883 60.409 57.2865 54.2858 57.931C54.2858 57.931 56.9043 54.2249 61.1341 53.9026C62.7052 53.7818 65.082 54.0235 66.7739 55.232C69.8355 57.3268 70.9231 61.0732 70.9231 61.0732C70.9231 61.1537 71.89 64.5779 70.3994 68.7271C69.8355 70.2579 69.0701 71.5067 68.3047 72.4735C68.1435 72.675 67.781 73.1181 67.1364 73.7223C66.3308 74.4475 65.9279 74.81 65.9279 74.81C65.9279 74.81 65.9682 74.9309 66.0891 75.2129C66.3308 75.7768 66.8947 76.8242 67.6199 78.0327C67.8616 78.4356 68.1033 78.8787 68.3852 79.3621C69.3118 80.9332 70.2786 81.7389 71.2454 82.3431C71.608 82.6251 72.0108 82.8668 72.4136 83.1085C73.2596 83.5516 73.9444 83.9948 74.5487 84.4782C76.5629 86.2104 77.2477 87.9426 78.6174 89.6748C79.987 91.407 82.4041 91.6084 82.4041 91.6084C83.4917 91.7696 84.5391 91.7293 84.8614 91.689C84.7808 90.9639 84.6197 90.6819 84.5391 90.3999C84.4989 90.2388 84.4183 90.0777 84.378 89.9165C83.8946 88.5871 81.1956 86.4118 81.1956 86.4118L84.5794 87.2981L86.1102 88.99C89.7761 88.7886 88.8092 84.8407 88.8092 84.8407L88.9301 84.6393Z" fill="#FFCB00"/>
</svg>
