<svg width="120" height="120" viewBox="0 0 120 120" fill="none" xmlns="http://www.w3.org/2000/svg"><path d="M86.61 18.045l-.225.135c-7.515 4.2-14.34 6.675-20.865 7.575-10.23 1.44-19.635-.84-29.58-7.185l-.225-.135-15.75 15.27.225.24c9.15 9.975 9.42 18.495 9.675 26.745.105 3.285.21 6.675.885 10.275l.105.6L87.57 19.05l-.945-.99-.015-.015z" fill="#DA1218"/><path d="M88.98 20.565l-.24.225-57.345 53.115.044.195a37.605 37.605 0 002.145 5.76c1.005 2.13 2.355 4.155 4.125 6.15l.225.255L98.28 30.39l-9.3-9.825z" fill="#fff"/><path d="M99.735 31.905L39.405 87.78l.255.24c5.565 5.385 13.575 9.81 21.315 14.085l.165.09 1.635-.96 1.185-.69c12.27-7.275 21.135-12.525 25.245-22.47 1.95-4.74 2.13-9.795 2.325-15.135.33-8.805.705-18.78 9-29.805l.165-.225-.945-1.005h-.015z" fill="#1E68A5"/><path d="M87.06 15c-7.92 4.665-15.12 7.41-21.9 8.355-10.515 1.485-20.055-1.35-29.775-8.01L16.5 33.66c17.565 17.25 6.12 28.62 14.88 47.235C36.42 91.59 48.66 98.085 61.155 105c1.365-.81 2.7-1.59 4.005-2.355 12.69-7.515 21.855-12.975 26.265-23.64 5.625-13.695-2.34-28.395 12.45-46.23L87.06 15.015V15zM31.05 70.905c-.66-3.57-.765-6.93-.87-10.215-.255-8.31-.525-16.89-9.765-26.955 2.88-2.79 12.975-12.585 15.33-14.865 9.975 6.36 19.5 8.685 29.805 7.23 6.585-.915 13.485-3.42 20.985-7.62.15.15.33.345.525.555l-56.025 51.87h.015zm6.915 14.88c-1.65-1.875-3.045-3.885-4.08-6.075-.93-1.98-1.62-3.87-2.13-5.715l57.21-52.965c2.55 2.7 6.255 6.6 8.835 9.33L37.965 85.77v.015zm53.205-22.86c-.195 5.31-.375 10.335-2.295 15.015-4.065 9.855-12.9 15.09-25.11 22.32l-1.185.69-1.47.87c-8.025-4.44-15.735-8.715-21.24-14.025l59.835-55.41c.195.21.375.405.525.555-8.355 11.1-8.73 21.105-9.06 30v-.015z" fill="#D99F62"/><path d="M39.014 77.235l1.56 1.695.556-.51c.48-.45.21-.96-.196-1.425-.524-.57-.99-.63-1.41-.24L39 77.25l.015-.015zm-.735-.81l.36-.33c.435-.405.585-.765 0-1.395-.6-.615-.855-.465-1.32-.03l-.36.33 1.32 1.425zm-1.335-2.94c1.005-.93 1.86-.645 2.55.075.75.81.766 1.35.495 1.905.63-.435 1.306-.24 2.04.54.81.87 1.155 2.01.18 2.925l-1.92 1.77-5.145-5.55M42.72 70.875l-.87-.765.705.93 1.35 2.205.9-.825-2.055-1.56-.03.015zM42 68.82l6.375 4.395-1.11 1.035-1.545-1.155-1.215 1.125 1.005 1.665-1.095 1.005-3.825-6.765M45.3 65.76l3.54 1.725 2.01 1.14c-1.186-1.095-2.206-2.025-3.016-2.91l-1.14-1.245 1.035-.96 5.145 5.55-1.065.99-3.63-1.695-1.83-1.05c.615.585 2.1 1.95 2.745 2.655l1.305 1.41-1.02.945-5.145-5.55M50.16 61.245l5.13 5.55-1.035.96-5.145-5.55 1.035-.96h.015zm-.42-2.46l-.09 2.085-.75.705-.285-1.725M52.605 58.995l2.28 2.46.03-.03c-.435-1.17-.69-2.415-1.035-3.63l1.17-1.08.855 3.66 4.35 1.845-1.17 1.08-3-1.29.18.96 1.47 1.59-1.02.945-5.145-5.55M62.85 56.52c.645.69 1.23.84 1.756.36.39-.36.51-.915-.255-1.74l-1.77-1.92c-.196-.21-1.08-1.11-1.8-.48-.526.48-.39 1.11.21 1.77l1.86 2.01zm2.55 1.2c-1.815 1.68-3.015.375-3.975-.615-.03-.03-.075-.09-.104-.12l-.645-.69s-.046-.045-.12-.105c-.345-.405-1.38-1.59-1.47-2.385-.075-1.08.434-1.56.87-1.95 1.74-1.605 3.21-.135 4.184.9l.826.9c1.11 1.23 2.13 2.505.434 4.08M65.415 48.45c-.3.285-.36.735-.09 1.065.21.195.57.345.96.285 1.2-.18 2.805-.66 3.69.12.105.09.21.195.3.285 1.02 1.11.69 2.22-.015 2.955-.06.06-.105.105-.165.15-.93.87-2.025 1.29-3.33-.09-.105-.135-.195-.27-.315-.405l1.035-.96c.105.12.195.24.285.36.6.645 1.155.645 1.545.315.105-.12.18-.225.255-.345.12-.18.045-.585-.225-.885-.255-.27-.645-.45-1.26-.36-1.32.21-2.745.66-3.795-.48-.75-.9-.675-1.815.21-2.715 1.095-1.005 2.16-1.185 3.27 0 .06.06.105.12.165.18l-.99.915c-.69-.75-1.155-.75-1.53-.405M70.41 44.025l4.38 4.725-1.035.96-4.38-4.725-1.215 1.11-.75-.81 3.435-3.18.75.81M73.65 41.025l1.41 1.53.72-.675c.495-.45.374-.975-.016-1.395-.465-.51-.855-.63-1.364-.165l-.75.69v.015zm.21-1.725c1.11-1.02 2.01-.84 2.715-.135.764.825.944 1.62.42 2.205 1.034-.705 1.605.105 2.024.54.51.525 1.41 1.425 1.62 1.23l.09.105-1.2 1.11c-.434-.36-.794-.795-1.215-1.11-.12-.135-.24-.255-.344-.375-.42-.45-.81-.72-1.576 0l-.54.51 2.206 2.37-1.035.96-5.13-5.55M79.8 36.525l-.87-.765h-.015l.705.945 1.35 2.205.9-.825-2.055-1.545-.015-.015zm-.72-2.055l6.375 4.395-1.11 1.035-1.545-1.155-1.215 1.125 1.005 1.665-1.095 1.005-3.825-6.765M86.46 35.16l-3.09-4.65 1.11-1.035 3.945 6.645-1.38 1.275-6.375-4.41 1.11-1.005 4.5 3.36.975.885M88.29 28.68l-.87-.765c0 .015.704.945.704.945l1.35 2.205.885-.825-2.054-1.545-.016-.015zm-.736-2.07l6.376 4.395-1.11 1.035-1.545-1.155-1.216 1.125 1.005 1.665-1.094 1.005-3.826-6.765" fill="#1E68A5"/><path d="M40.665 37.725l.735.81-1.905 1.77 1.32 1.41 1.785-1.65.735.81-1.785 1.65 2.325 2.505-1.02.945-5.13-5.535M44.13 35.805c-.645.6-.21 1.245.21 1.71l1.77 1.905c.795.87 1.35 1.005 1.785.6.51-.465.195-1.005-.57-1.83l1.035-.96c.495.6 1.98 2.085.405 3.555-1.38 1.275-2.4 1.05-3.96-.645l-.87-.93c-1.71-1.845-1.905-2.925-.645-4.125 1.305-1.215 2.355-.735 3.345.33l-1.02.945c-.645-.675-1.095-.81-1.455-.54" fill="#D99F62"/></svg>