<svg width="35" height="36" viewBox="0 0 35 36" fill="none" xmlns="http://www.w3.org/2000/svg"><path fill-rule="evenodd" clip-rule="evenodd" d="M6.072 10.857a7.143 7.143 0 017.142-7.143h8.572a7.143 7.143 0 017.143 7.143v17.128c0 3.648-4.268 5.628-7.054 3.272l-3.452-2.92a1.429 1.429 0 00-1.845 0l-3.453 2.92c-2.786 2.356-7.053.376-7.053-3.272V10.857zm7.142-4.285a4.286 4.286 0 00-4.285 4.285v17.128c0 1.216 1.422 1.876 2.35 1.09l3.454-2.92a4.286 4.286 0 015.535 0l3.452 2.92c.929.786 2.352.126 2.352-1.09V10.857a4.286 4.286 0 00-4.286-4.285h-8.572z" fill="#FF6100"/><path fill-rule="evenodd" clip-rule="evenodd" d="M17.5 10.857c.789 0 1.429.64 1.429 1.429v1.428h1.428a1.429 1.429 0 110 2.857H18.93V18a1.429 1.429 0 11-2.857 0v-1.428h-1.43a1.429 1.429 0 010-2.858h1.43v-1.428c0-.79.64-1.429 1.428-1.429z" fill="#FF6100"/></svg>