<svg width="24" height="24" viewBox="0 0 24 24" fill="none" xmlns="http://www.w3.org/2000/svg"><path fill-rule="evenodd" clip-rule="evenodd" d="M8 3a1 1 0 011 1v1h6V4a1 1 0 112 0v1.027c.087.005.17.01.252.017.562.046 1.079.145 1.564.392a4 4 0 011.748 1.748c.247.485.346 1.002.392 1.564.044.541.044 1.206.044 2.01v4.483c0 .805 0 1.47-.044 2.01-.046.563-.145 1.08-.392 1.565a4 4 0 01-1.748 1.748c-.485.247-1.002.346-1.564.392-.541.044-1.206.044-2.01.044H8.758c-.805 0-1.47 0-2.01-.044-.563-.046-1.08-.145-1.565-.392a4 4 0 01-1.748-1.748c-.247-.485-.346-1.002-.392-1.564C3 16.71 3 16.046 3 15.242v-4.483c0-.805 0-1.47.044-2.01.046-.563.145-1.08.392-1.565a4 4 0 011.748-1.748c.485-.247 1.002-.346 1.564-.392L7 5.027V4a1 1 0 011-1zM6.911 7.038c-.438.035-.663.1-.819.18a2 2 0 00-.874.874c-.08.156-.145.38-.18.819L5.03 9h13.938a5.475 5.475 0 00-.007-.089c-.035-.438-.1-.663-.18-.819a2 2 0 00-.874-.874c-.156-.08-.38-.145-.819-.18C16.639 7 16.057 7 15.2 7H8.8c-.857 0-1.439 0-1.889.038zM5 15.2V11h14v4.2c0 .857 0 1.439-.038 1.889-.035.438-.1.663-.18.819a2 2 0 01-.874.874c-.156.08-.38.145-.819.18-.45.037-1.032.038-1.889.038H8.8c-.857 0-1.439 0-1.889-.038-.438-.035-.663-.1-.819-.18a2 2 0 01-.874-.874c-.08-.156-.145-.38-.18-.819C5 16.639 5 16.057 5 15.2z" fill="#111315"/></svg>