<svg width="56" height="56" viewBox="0 0 56 56" fill="none" xmlns="http://www.w3.org/2000/svg"><path fill-rule="evenodd" clip-rule="evenodd" d="M28 9.333C17.691 9.333 9.334 17.691 9.334 28c0 10.31 8.357 18.667 18.666 18.667 10.31 0 18.667-8.358 18.667-18.667C46.667 17.69 38.31 9.333 28 9.333zM4.667 28C4.667 15.113 15.114 4.667 28 4.667c12.887 0 23.334 10.446 23.334 23.333 0 12.887-10.447 23.333-23.334 23.333C15.114 51.333 4.667 40.887 4.667 28z" fill="#6AB151"/><path fill-rule="evenodd" clip-rule="evenodd" d="M36.65 21.683a2.333 2.333 0 010 3.3l-9.333 9.334a2.333 2.333 0 01-3.3 0L19.35 29.65a2.333 2.333 0 013.3-3.3l3.017 3.017 7.683-7.684a2.333 2.333 0 013.3 0z" fill="#6AB151"/></svg>