<svg width="120" height="120" viewBox="0 0 120 120" fill="none" xmlns="http://www.w3.org/2000/svg"><path d="M91.079 70.85c-.75-1.05-2.1-4.1-4.4-5.95-2.3-1.85-5.55-.2-5.55-.2 2.8.15 3.85 1 3.5 4.75-.35 3.7 2.5 4.9 4.3 5.45 1.8.55 2.55 2.45 2.55 2.45l.25-2.95c3.6.3 3-3.05 3-3.05-.55 1.75-2.9.6-3.65-.5zm-3.35 1.25c-.9-1.3-.1-3.85-.1-3.85l1.15 1.6s-.5 1.2.1 1.85c.6.7 1.45.35 1.45.35l.4.55s-2.1.75-3-.55v.05z" fill="#00193E"/><path d="M99.179 75.2c-1.3-7.35-1.95-15.15-1.95-15.15s6.15-10.55.95-25c-2.15-6.05-6.4-11.6-11.95-15.95-7.1-5.55-16.35-9.1-26.15-9.1-9.8 0-21 3.5-28.55 9.6-15.05 3.2-23.3 7.9-23.3 7.9s-5.25 54.1 51.9 81.05c7.4-3.5 14.15-7.8 19.6-12 1.5 1.8 2.25 2.85 4.1 3.7 5.45 2.4 9.5.1 9.5.1s3.8-.3 5.95-3.45c3.45-5 .75-16.4-.2-21.75l.1.05zm-.15 14.45c-.15-.2-.95-1.15-1.9-2-1.1-.95-2-.3-2.85-.4-.95-.15-1.3-.55-1.3-.55s.1 3.55 2.9 4.15c.15 0 .35.1.45.2 1.65.8 1.5 2.55.95 4.35-.65 2-3.45 2.05-3.45 2.05l-.35-.4-2.85-3.15-4.2-1.1s3.3 2.75 3.95 4.35c.6 1.65.6 2.2.6 2.2s-1.35.15-3.05-.1c0 0-.75-.05-1.75-.4-.8-.25-1.55-.65-2.2-1.2-.05 0-.1-.1-.15-.15-.2-.2-.4-.4-.55-.6-1.7-2.15-2.55-4.3-5.05-6.45-.7-.6-1.55-1.15-2.65-1.7-.5-.25-.95-.55-1.45-.95-1.2-.75-2.35-1.75-3.55-3.7-.35-.6-.7-1.15-.95-1.65-.9-1.5-1.6-2.85-1.9-3.5-.15-.35-.2-.5-.2-.5l1.5-1.35c.4-.35.7-.7.95-.95 1.05-1.25 2.25-3 3.05-5.25 1.85-5.15.65-9.4.65-9.5 0 0-1.35-4.65-5.15-7.25-2.1-1.5-5.05-1.8-7-1.65-5.2.45-8.5 5-8.5 5 7.55-.8 10.8 3.05 10.5 6.25-.3 3.2-2.5 4.95-5 5.9-1.45.6-3.1.9-4.75.9-7.2 0-13.05-5.85-13.05-13.05 0-7.2 3.1-11.3 13.6-13.5 1.25-.25 4.1-.6 4.1-.6 1.5 5.85 7.35 3.9 7.35 3.9 1.8 2 2.55 3.6 2.8 4.75 0-.65 0-1.5-.05-2.6-.1-2.8-2.05-6.25-6.1-8.45-3.65-2-3.5-5.4-3.5-5.4s2.2 3.05 4.4 3.75c4.65 1.55 6.25 1.55 9.45 5 2.5 2.65 2.95 4.7 3.2 6.45v-.35c0-10.35-9.3-19.65-21.1-19.65s-21.9 9.7-21.9 21.55c0 11.85 9.6 21.05 21.1 21.05 11.5 0 8.2-1.25 10.75-5.35 1.55-2.5 2.7-7.85-1.8-10.7-2.7-1.35-5.35-1.3-5.35-1.3s5.15-4.7 11.35 1.5c7 7 1.2 21.25-13.1 23.3h.1c-19.25 3.2-35.35-10.25-35.35-29.5s.35-5.6.95-8.2c3.45-16.6 18.25-29.05 35.9-29.05s34.25 14.1 36.4 32.3c.3 2.4.15 4.85-.4 7.2l-.2.9s-5.35.2-8.1-6.95l.15 2.1c.25 5.4 2.8 8.05 2.8 8.05s.85 1 2.8 2.4c1.15.85 2.5 2.05 3.65 4.4v.1s1.4 2.5 1.95 6.7c.1.75.35 2.35.65 4.35 1 6.5 2.1 14 2.1 14v-.05l-.3.05zm-39.8-49.45s.15.9 1.8 1.95c1.65 1.05 2.95 1.55 3.8 4 0 0-5.2 1.1-5.6-5.95z" fill="#00193E"/><path d="M96.13 91c-.1-.05-.25-.1-.35-.15 0 0 1.2 4.95-3.35 5.15l1.3 1.45s2.8-.05 3.45-2.05c.6-1.85.75-3.65-1.05-4.45V91zM87.928 57.75s-2.55-2.65-2.8-8.05c-.65-14.5-7.7-30.4-32.5-30.4s-26.1 9.55-31 23.1a35.03 35.03 0 00-1.15 8.9c0 19.3 16.1 32.75 35.35 29.5 1.15-.35 12-3.75 12.45-12.8.3-6.25-2.6-9.2-5.4-10.65 4.45 2.85 3.35 8.2 1.8 10.7-2.55 4.1-8.15 5.35-10.75 5.35-11.45 0-21.1-9.25-21.1-21.05s10.1-21.55 21.9-21.55c11.8 0 21.1 9.35 21.1 19.65 0 10.3 1.4 9.35 12.1 7.2v.1zM96.28 71.35c-.55-4.15-1.9-6.7-1.9-6.7l-1.85 3.45s-1.1-1.8-3.75-3.3c-2.05-1.15-5.25-.85-5.25-.85 1-.1 2.15.1 3.1.85 2.3 1.85 3.6 4.9 4.4 5.95.75 1.05 3.1 2.25 3.65.5 0 0 .3 1.65-.75 2.55.4.55.7 1.2.9 1.95.45 1.95-2.15 5.05.25 9.8l-2.25-.35.1 1.45s.35.4 1.3.55c.85.1 1.8-.55 2.85.4 1.1.95 1.95 2.05 1.95 2.05S96.68 74.2 96.28 71.3v.05z" fill="#fff"/><path d="M87.629 68.25l1.15 1.6s-.5 1.2.1 1.85c.6.7 1.45.35 1.45.35l.4.55s-2.1.75-3-.55c-.9-1.3-.1-3.85-.1-3.85v.05zM59.228 40.2s.15.9 1.8 1.95c1.65 1.05 2.95 1.55 3.8 4 0 0-5.2 1.1-5.6-5.95zM79.779 96.6c-5.55 4.35-12.05 8.4-19.65 12-48.2-22.75-52-64.85-52-77.4 0-2.35.15-3.65.15-3.65s.05 0 .1-.05c0 0 .1-.05.15-.1 0 0 .1-.05.15-.1.15-.1.35-.15.55-.3.1 0 .2-.1.3-.15.35-.2.8-.4 1.3-.6.5-.25 1.1-.5 1.75-.75.65-.25 1.35-.55 2.15-.85.8-.3 1.65-.6 2.55-.95 1.2-.45 2.55-.9 4-1.3 1.05-.35 2.2-.65 3.4-1h.05c.8-.2 1.6-.45 2.5-.65.4-.1.85-.2 1.25-.3h.1c.85-.2 1.75-.4 2.7-.6.8-.65 1.65-1.3 2.55-1.9-5.05.95-9.3 2.05-12.65 3.1-8.9 2.7-13.7 5.4-13.9 5.55l-.6.35v.7c-.1.55-1.35 14 4.5 31a84.984 84.984 0 0015.4 27.05c8.45 9.95 19.45 18.15 32.7 24.4l.6.25.6-.25c7.35-3.45 14-7.55 19.9-12.2-.25-.3-.55-.65-.85-1.05l.25-.25zM113.479 27.45v-.75c-.05 0-.7-.35-.7-.35-.2-.1-5-2.8-13.9-5.55-3.9-1.2-9-2.5-15.15-3.55.85.6 1.7 1.2 2.55 1.85 16.65 3.2 25.8 8.4 25.8 8.4s1.7 24.8-12.9 47.85c.1.6.25 1.25.35 1.95 7.4-11.25 10.8-22.85 12.4-31.2 2.05-10.75 1.55-18.35 1.5-18.65h.05z" fill="#fff"/><path d="M84.979 47.6c2.8 7.15 8.1 6.95 8.1 6.95l.2-.9c.55-2.35.7-4.8.4-7.2-2.15-18.2-17.6-32.3-36.4-32.3-18.8 0-32.4 12.45-35.9 29.05.05-.25.1-.45.15-.7 4.9-13.55 16.95-23.1 31-23.1 23.6 0 31.1 14.4 32.35 28.3l.1-.1zM68.829 57.55c-6.2-6.2-11.35-1.5-11.35-1.5s11.35-.15 10.75 11.95c-.45 9.6-12.55 12.85-12.55 12.85 14.3-2.1 20.1-16.35 13.1-23.3h.05z" fill="#FFCB00"/><path d="M112.079 27.7v-.1h-.05s-.05 0-.1-.05c0 0-.1-.05-.15-.1-.15-.05-.3-.15-.5-.25-2.75-1.4-11.35-5.3-24.85-7.9.35.25.7.55 1 .85.35.3.65.55 1 .85 4.55 4.05 8 8.95 9.9 14.3.15.45.35.95.45 1.4l.3 1.05v.05c2.05 7.35 1.25 13.5.15 17.5-.85 3.15-1.9 4.95-1.9 4.95s.6 7.75 1.95 15.15v.15c4.3-6.85 7.2-13.8 9.15-20.25 4.3-14.35 3.85-26 3.75-27.45l-.1-.15zM95.778 90.85c-2.75-.6-2.9-4.15-2.9-4.15l-.1-1.45 2.25.35c-2.35-4.75.25-7.85-.25-9.8-.2-.75-.5-1.4-.9-1.95-.45.4-1.15.65-2.25.55l-.25 2.95s-.8-1.9-2.55-2.45c-1.75-.6-4.6-1.75-4.3-5.45.35-3.7-.7-4.6-3.5-4.75 0 0 1.1-.55 2.45-.65 0 0 3.2-.3 5.25.85 2.65 1.5 3.75 3.3 3.75 3.3l1.85-3.45c-1.1-2.45-2.5-3.65-3.7-4.5-1.9-1.4-2.8-2.4-2.8-2.4-10.4 2.05-12-2.55-12.1-6.85-.25-1.75-.7-3.85-3.2-6.45-3.2-3.4-4.8-3.45-9.45-5-2.15-.7-4.4-3.75-4.4-3.75s-.15 3.4 3.5 5.4c4.1 2.25 6 5.65 6.1 8.45 0 1.1.05 1.9.05 2.6-.25-1.15-.95-2.75-2.8-4.75 0 0-5.85 1.95-7.35-3.9 0 0-2.85.35-4.1.6-10.5 2.2-13.6 8.2-13.6 13.5 0 5.3 5.85 13.05 13.05 13.05 7.2 0 3.3-.3 4.75-.9 2.5-1 4.7-2.7 5-5.9.3-3.2-2.9-7.05-10.5-6.25 0 0 3.25-4.6 8.5-5 1.95-.15 4.9.15 7 1.65 3.8 2.6 5.15 7.25 5.15 7.25 0 .1 1.2 4.35-.65 9.5-.7 1.9-1.65 3.45-2.6 4.65-.2.25-.65.8-1.45 1.55l-1.5 1.35s.05.15.2.5c.3.7 1 2 1.9 3.5.3.5.6 1.05.95 1.65 1.15 1.95 2.35 2.95 3.55 3.7.45.35.95.65 1.45.95 1.05.55 1.9 1.1 2.65 1.7 2.5 2.15 3.35 4.3 5.05 6.45 1.7 2.15 4.7 2.4 4.7 2.4 1.35.2 2.65.15 3.05.1-.1-.9-.3-1.25-.4-1.6-.05-.2-.15-.4-.2-.6-.6-1.65-3.95-4.35-3.95-4.35l4.2 1.1 1.9 2.1c4.55-.25 3.35-5.15 3.35-5.15l.15-.25z" fill="#FFCB00"/></svg>