<svg width="24" height="24" viewBox="0 0 24 24" fill="none" xmlns="http://www.w3.org/2000/svg"><path fill-rule="evenodd" clip-rule="evenodd" d="M17 17H7v2h10v-2zM5 15v4a2 2 0 002 2h10a2 2 0 002-2v-4H5z" fill="#fff"/><path fill-rule="evenodd" clip-rule="evenodd" d="M12 3a1 1 0 01.857.486l2.412 4.018 4.106-3.285a1 1 0 011.609.96L18.834 17H5.166L3.016 5.179a1 1 0 011.609-.96L8.73 7.504l2.412-4.018A1 1 0 0112 3zm0 2.944l-2.731 4.552L5.462 7.45 6.835 15h10.33l1.373-7.55-3.807 3.046L12 5.944z" fill="#fff"/></svg>