<svg width="16" height="17" viewBox="0 0 16 17" fill="none" xmlns="http://www.w3.org/2000/svg"><path fill-rule="evenodd" clip-rule="evenodd" d="M11.334 11.746H4.667v1.334h6.667v-1.334zm-8-1.333v2.667c0 .736.597 1.333 1.333 1.333h6.667c.736 0 1.333-.597 1.333-1.333v-2.667H3.334z" fill="#FF6100"/><path fill-rule="evenodd" clip-rule="evenodd" d="M8 2.413c.234 0 .451.123.572.324l1.607 2.679 2.738-2.19a.667.667 0 011.072.64l-1.433 7.88H3.444L2.01 3.866a.667.667 0 011.072-.64l2.738 2.19 1.607-2.68c.12-.2.338-.323.572-.323zm0 1.962L6.18 7.41 3.64 5.38l.915 5.033h6.888l.915-5.033L9.82 7.41 8 4.375z" fill="#FF6100"/></svg>