<svg width="64" height="64" viewBox="0 0 64 64" fill="none" xmlns="http://www.w3.org/2000/svg"><g clip-path="url(#clip0_11088_169631)"><path opacity=".12" d="M6 25.867c0-2.987 0-4.48.581-5.622.512-1.003-1.003-2.109 0-2.62 1.141-.581 4.965-.291 7.952-.291h10.193c1.915 0 2.872 0 3.717.291.747.258 26.89.709 26.89.709.639.625 3.144 5.287 4 7l-1.333 27-5.667 2.333h-41L6.581 50 6 28v-2.133z" fill="url(#paint0_linear_11088_169631)"/><path d="M35.333 18l-2.974-5.95c-.857-1.712-1.285-2.568-1.923-3.193a5.334 5.334 0 00-1.993-1.232c-.845-.292-1.802-.292-3.717-.292H14.533c-2.987 0-4.48 0-5.62.582a5.333 5.333 0 00-2.332 2.33C6 11.386 6 12.88 6 15.867V18m0 0h40.533c4.48 0 6.72 0 8.432.872a7.999 7.999 0 013.496 3.496c.872 1.712.872 3.952.872 8.432v11.733c0 4.481 0 6.721-.872 8.432a7.998 7.998 0 01-3.496 3.496c-1.711.873-3.951.873-8.432.873H18.8c-4.48 0-6.72 0-8.432-.873a8 8 0 01-3.496-3.495C6 49.253 6 47.014 6 42.532V18zm20 12l13.333 13.334m0-13.334L26 43.334" stroke="url(#paint1_linear_11088_169631)" stroke-width="2.67" stroke-linecap="round" stroke-linejoin="round"/></g><defs><linearGradient id="paint0_linear_11088_169631" x1="32.67" y1="17.26" x2="32.67" y2="54.67" gradientUnits="userSpaceOnUse"><stop stop-color="#FFD7C2"/><stop offset="1" stop-color="#FF6100"/></linearGradient><linearGradient id="paint1_linear_11088_169631" x1="32.67" y1="7.33" x2="32.67" y2="55.33" gradientUnits="userSpaceOnUse"><stop stop-color="#FFD7C2"/><stop offset="1" stop-color="#FF6100"/></linearGradient><clipPath id="clip0_11088_169631"><path fill="#fff" d="M0 0h64v64H0z"/></clipPath></defs></svg>