<svg width="105" height="88" viewBox="0 0 105 88" fill="none" xmlns="http://www.w3.org/2000/svg"><path fill-rule="evenodd" clip-rule="evenodd" d="M41.181 63.148c2.3.007 3.979.597 5.042 1.776 1.06 1.178 1.586 2.695 1.582 4.55 0 1.533-.231 3.013-.679 4.447a11.104 11.104 0 01-2.03 3.797c-.907 1.099-2.054 1.975-3.44 2.624-1.388.653-3.007.977-4.862.971-.493 0-.876-.016-1.149-.04a4.815 4.815 0 01-.705-.112l-.919 3.712-5.1 2.17 5.543-22.726c.52-.219 1.076-.405 1.669-.55a22.478 22.478 0 011.804-.367 18.322 18.322 0 011.742-.198 21.975 21.975 0 011.502-.054zm-14.478-5.711c.891 0 1.689.063 2.394.191.704.124 1.328.276 1.871.448a8.875 8.875 0 011.387.563c.385.197.701.37.948.52l-1.938 3.52c-.57-.398-1.282-.732-2.15-1.007-.865-.275-1.902-.415-3.115-.418-.939 0-1.737.207-2.391.625-.66.42-.987 1.146-.99 2.185-.004.84.276 1.48.828 1.914.557.435 1.228.825 2.019 1.174.742.349 1.421.709 2.036 1.083.62.37 1.15.807 1.592 1.3a5.624 5.624 0 011.055 1.748c.256.667.383 1.457.383 2.373-.006 2.524-.824 4.445-2.446 5.762-1.622 1.32-3.919 1.975-6.885 1.966-.991-.004-1.875-.078-2.653-.23-.775-.15-1.45-.324-2.018-.524a8.326 8.326 0 01-1.463-.652l.981-4.075.01-.021c.25.148.562.32.944.523a10.793 10.793 0 002.877.988c.564.113 1.169.17 1.812.173.57 0 1.113-.053 1.635-.163.519-.112.97-.294 1.355-.555.383-.26.693-.584.929-.978.237-.395.356-.891.356-1.484a2.547 2.547 0 00-.275-1.206 3.522 3.522 0 00-.757-.986 6.468 6.468 0 00-1.128-.82 30.805 30.805 0 00-1.392-.744 32.568 32.568 0 01-1.72-.967 5.713 5.713 0 01-1.37-1.154 5.039 5.039 0 01-.904-1.597c-.222-.619-.33-1.373-.33-2.264.007-2.176.748-3.925 2.223-5.246 1.474-1.315 3.571-1.974 6.29-1.965zm-15.918 5.558c1.705.005 3.103.428 4.187 1.274 1.084.843 1.627 2.018 1.623 3.526-.003 1.262-.315 2.331-.935 3.206-.62.877-1.476 1.586-2.565 2.127-1.09.543-2.37.934-3.84 1.178a28.722 28.722 0 01-4.77.358c0 .444.074.846.218 1.206.15.358.39.664.724.911.332.248.777.442 1.332.579.556.138 1.254.206 2.096.21.99.003 1.93-.103 2.82-.31.821-.192 1.443-.377 1.868-.563l-.947 3.92c-.35.108-.732.213-1.152.315-1.066.257-2.227.383-3.488.381-1.41-.003-2.621-.186-3.636-.547-1.014-.362-1.84-.863-2.482-1.51a5.874 5.874 0 01-1.402-2.282c-.294-.879-.44-1.853-.436-2.916.001-1.434.248-2.822.732-4.17a10.3 10.3 0 012.122-3.535 10.624 10.624 0 013.382-2.44c1.328-.615 2.842-.922 4.549-.918zm29.718 3.898c-.492 0-.908.024-1.241.071-.335.05-.637.11-.908.184l-2.476 10.155c.123.053.258.078.408.078h.481c1.014.003 1.93-.198 2.747-.602a6.132 6.132 0 002.063-1.65c.56-.688.986-1.498 1.286-2.425.3-.924.452-1.895.455-2.908 0-.372-.037-.73-.111-1.076a2.396 2.396 0 00-.407-.931c-.196-.272-.477-.489-.848-.648-.373-.165-.855-.245-1.449-.248zm-30.58-.263c-1.138-.004-2.22.383-3.25 1.159-1.03.775-1.744 2.019-2.143 3.721 1.558.003 2.837-.088 3.84-.287 1.002-.195 1.786-.444 2.357-.754.57-.306.964-.645 1.192-1.016.222-.369.333-.716.337-1.037 0-.568-.206-1.007-.61-1.32-.406-.308-.982-.466-1.724-.466zm89.11-3.401c1.26.004 2.412.118 3.464.344 1.051.224 1.884.487 2.503.786l-1.679 3.593a9.587 9.587 0 00-1.948-.673c-.728-.173-1.648-.262-2.76-.265-.25 0-.527.016-.836.051-.311.038-.6.118-.872.239-.273.123-.501.29-.687.5-.185.21-.281.477-.281.795 0 .223.031.417.094.578.057.161.187.321.385.48.2.164.483.33.854.506.37.173.866.371 1.48.596.742.3 1.378.597 1.911.894.527.3.975.633 1.331 1.007.356.371.616.804.777 1.299.158.498.238 1.091.234 1.78a5.28 5.28 0 01-.451 2.114c-.297.694-.762 1.314-1.393 1.87-.636.554-1.456 1.005-2.472 1.349-1.015.342-2.228.512-3.637.509a17.35 17.35 0 01-2.672-.19 15.65 15.65 0 01-1.999-.453 12.82 12.82 0 01-.746-.252l.95-3.945c.352.158.758.322 1.216.491.865.325 1.9.49 3.115.493 1.31.002 2.212-.168 2.707-.515.496-.345.745-.75.745-1.22 0-.223-.042-.422-.126-.597a1.528 1.528 0 00-.446-.5c-.209-.16-.5-.322-.87-.486a56.98 56.98 0 00-1.407-.577 14.324 14.324 0 01-1.817-.783 5.142 5.142 0 01-1.296-.949 3.521 3.521 0 01-.776-1.246c-.17-.47-.257-1.025-.254-1.668.003-1.806.644-3.252 1.921-4.338 1.275-1.086 3.189-1.622 5.738-1.617zM59.07 63.12c1.806.005 3.258.56 4.355 1.663 1.098 1.103 1.643 2.743 1.638 4.919a14.965 14.965 0 01-.641 4.3 11.623 11.623 0 01-1.922 3.78 9.735 9.735 0 01-3.196 2.68c-1.275.677-2.754 1.013-4.436 1.009-2.077-.006-3.62-.603-4.631-1.792-1.011-1.19-1.513-2.774-1.509-4.753.003-1.485.23-2.93.68-4.338a12.012 12.012 0 011.974-3.778 9.914 9.914 0 013.235-2.682c1.287-.675 2.773-1.012 4.453-1.008zm26.766-5.535l-1.513 6.049 6.64.018-.94 3.78-6.599-.018-1.65 6.784c-.127.619-.19 1.1-.19 1.447-.002.742.247 1.237.755 1.484.507.25 1.081.374 1.724.376.668 0 1.355-.076 2.06-.233.704-.162 1.39-.375 2.06-.646v.048l-1 4.143c-.502.164-1.03.3-1.59.402-.927.17-1.852.256-2.763.252-1.98-.005-3.457-.434-4.429-1.29-.977-.856-1.46-2.1-1.458-3.731a9.746 9.746 0 01.342-2.522l.856-3.55.6-2.485.116-.493.915-3.791.823-3.4 5.24-2.624zm-10.317 5.69c1.2.002 2.209.052 3.026.147l-.045.196-.913 3.78-.068.281a18.235 18.235 0 00-1.974-.102 15.83 15.83 0 00-1.984.124 9.234 9.234 0 00-1.877.424l-3.111 12.9-4.562-.013 3.934-16.275a20.244 20.244 0 013.769-1.082c1.349-.256 2.616-.383 3.805-.38zM57.95 67.05a3.13 3.13 0 00-1.95.663 5.808 5.808 0 00-1.469 1.665 8.647 8.647 0 00-.915 2.168 8.394 8.394 0 00-.32 2.206c-.003 1.163.162 2.08.493 2.747.333.667 1.006 1.004 2.02 1.006a3.11 3.11 0 001.967-.662 6.215 6.215 0 001.471-1.667 8.26 8.26 0 00.931-2.167 8.476 8.476 0 00.322-2.205c.004-1.163-.161-2.078-.494-2.746-.333-.67-1.018-1.006-2.056-1.008z" fill="#111315"/><path fill-rule="evenodd" clip-rule="evenodd" d="M76.478 24.704c0 13.648-11.06 24.707-24.707 24.707-13.646 0-24.705-11.06-24.705-24.707C27.066 11.062 38.126 0 51.77 0c13.648 0 24.708 11.062 24.708 24.704zM56.714 12.355a4.939 4.939 0 01-4.94 4.939 4.942 4.942 0 114.94-4.939zm-4.735 21.219l.171-.15c1.62-1.406 3.213-2.85 4.743-4.356 1.269-1.249 2.513-2.54 3.608-3.946a38.562 38.562 0 00-2.096-.197c-2.603-.186-5.216-.232-7.825-.205-2.51.025-5.043.09-7.536.402 1.19 1.53 2.554 2.925 3.94 4.275a93.349 93.349 0 002.502 2.34c.44.399.883.793 1.328 1.184l.288.252.417.365.187.165c.042.073.085.073.127-.001.05-.042.098-.085.146-.128zm12.338-12.696c1.11.403 2.111 1.247 2.233 2.5.138 1.012-.404 1.954-.905 2.793-1.16 1.942-2.694 3.66-4.253 5.288-1.841 1.921-3.8 3.728-5.807 5.476A141.2 141.2 0 0059.502 40l-.133.132-2.615 2.615-.25.25-.497.498c-.02.019-.747-.564-1.069-.821l-.143-.115c-.49-.382-.978-.767-1.464-1.154-4.199-3.344-8.348-6.847-11.984-10.808-1.44-1.569-2.873-3.245-3.852-5.15-.229-.443-.441-.898-.504-1.397a2.79 2.79 0 01.357-1.727c.581-1.001 1.63-1.42 2.701-1.687 2.273-.57 4.65-.677 6.987-.781l.56-.026c1.974-.091 3.958-.081 5.932-.056 2.482.032 4.97.12 7.435.416.573.07 1.151.147 1.718.264a17.305 17.305 0 011.063.244c.195.046.4.095.573.18z" fill="#FF6100"/></svg>