<svg width="16" height="16" viewBox="0 0 16 16" fill="none" xmlns="http://www.w3.org/2000/svg"><g clip-path="url(#clip0_11088_171811)"><g clip-path="url(#clip1_11088_171811)"><path d="M15.999 8a8 8 0 00-8-8 8.001 8.001 0 00-1.25 15.903v-5.59H4.718V8h2.03V6.238c0-2.005 1.195-3.113 3.023-3.113.875 0 1.79.156 1.79.156v1.97h-1.009c-.994 0-1.303.616-1.303 1.249V8h2.219l-.355 2.313H9.249v5.59A8.001 8.001 0 0015.999 8z" fill="#1877F2"/></g></g><defs><clipPath id="clip0_11088_171811"><path fill="#fff" transform="translate(-.001)" d="M0 0h16v16H0z"/></clipPath><clipPath id="clip1_11088_171811"><path fill="#fff" transform="translate(-.001)" d="M0 0h16v16H0z"/></clipPath></defs></svg>