<svg width="24" height="24" viewBox="0 0 24 24" fill="none" xmlns="http://www.w3.org/2000/svg"><g clip-path="url(#clip0_11123_10807)"><path d="M24 12.006c0-6.627-5.373-12-12-12s-12 5.373-12 12c0 5.99 4.388 10.954 10.125 11.855v-8.386H7.078v-3.469h3.047V9.363c0-3.008 1.792-4.67 4.533-4.67 1.312 0 2.686.235 2.686.235v2.953H15.83c-1.491 0-1.956.925-1.956 1.875v2.25h3.328l-.532 3.47h-2.796v8.385C19.612 22.96 24 17.996 24 12.006z" fill="#111315"/><path d="M16.671 15.475l.532-3.469h-3.328v-2.25c0-.949.465-1.875 1.956-1.875h1.513V4.928s-1.374-.234-2.686-.234c-2.741 0-4.533 1.661-4.533 4.669v2.643H7.078v3.47h3.047v8.385c1.242.194 2.508.194 3.75 0v-8.386h2.796z" fill="#fff"/></g><defs><clipPath id="clip0_11123_10807"><path fill="#fff" transform="translate(0 .006)" d="M0 0h24v24H0z"/></clipPath></defs></svg>