<svg width="16" height="16" viewBox="0 0 16 16" fill="none" xmlns="http://www.w3.org/2000/svg"><g clip-path="url(#clip0_11088_171809)"><g clip-path="url(#clip1_11088_171809)"><path d="M4.963.718c-.78.037-1.313.161-1.779.344-.482.188-.89.44-1.297.848a3.592 3.592 0 00-.844 1.3c-.18.467-.302 1-.337 1.781-.034.78-.042 1.032-.038 3.023.004 1.992.012 2.241.05 3.024.038.78.162 1.312.345 1.778.188.482.44.89.848 1.297.408.407.817.657 1.3.844.467.18 1 .303 1.781.337.78.034 1.032.042 3.023.038 1.99-.003 2.241-.012 3.023-.05.782-.036 1.312-.161 1.778-.344.483-.188.891-.44 1.298-.848.406-.408.656-.817.843-1.3.18-.467.303-1 .337-1.78.034-.783.042-1.033.038-3.024-.003-1.991-.012-2.24-.05-3.023-.036-.782-.16-1.313-.344-1.78a3.6 3.6 0 00-.848-1.296 3.578 3.578 0 00-1.3-.843c-.467-.181-1-.304-1.78-.338C10.229.672 9.978.664 7.986.668 5.995.67 5.746.68 4.963.718zm.086 13.257c-.715-.031-1.103-.15-1.362-.25a2.283 2.283 0 01-.845-.546 2.258 2.258 0 01-.55-.843c-.1-.258-.221-.646-.255-1.361-.036-.773-.044-1.005-.048-2.963-.004-1.957.003-2.19.037-2.962.03-.715.15-1.103.25-1.362a2.27 2.27 0 01.547-.844c.255-.258.5-.417.842-.55.258-.101.646-.221 1.36-.255.774-.037 1.006-.044 2.963-.049 1.958-.004 2.19.004 2.964.038.714.03 1.103.149 1.361.249.343.132.587.29.845.547.258.256.416.5.55.842.101.258.221.646.255 1.36.037.774.045 1.006.049 2.963.003 1.958-.004 2.19-.038 2.963-.031.715-.15 1.104-.25 1.363a2.272 2.272 0 01-.546.844c-.256.257-.5.416-.843.55-.258.1-.646.22-1.36.255-.773.036-1.005.044-2.963.048-1.959.004-2.19-.004-2.963-.037zm5.978-9.894a.88.88 0 101.76-.003.88.88 0 00-1.76.003zM4.235 8.007a3.765 3.765 0 107.53-.014 3.765 3.765 0 00-7.53.014zm1.32-.002a2.445 2.445 0 114.89-.01 2.445 2.445 0 01-4.89.01" fill="#000"/></g></g><defs><clipPath id="clip0_11088_171809"><path fill="#fff" d="M0 0h16v16H0z"/></clipPath><clipPath id="clip1_11088_171809"><path fill="#fff" d="M0 0h16v16H0z"/></clipPath></defs></svg>