<svg width="24" height="24" viewBox="0 0 24 24" fill="none" xmlns="http://www.w3.org/2000/svg"><path fill-rule="evenodd" clip-rule="evenodd" d="M18 15H6a1 1 0 00-1 1v3a1 1 0 001 1h12a1 1 0 001-1v-3a1 1 0 00-1-1zM6 13a3 3 0 00-3 3v3a3 3 0 003 3h12a3 3 0 003-3v-3a3 3 0 00-3-3H6zM18 4H6a1 1 0 00-1 1v3a1 1 0 001 1h12a1 1 0 001-1V5a1 1 0 00-1-1zM6 2a3 3 0 00-3 3v3a3 3 0 003 3h12a3 3 0 003-3V5a3 3 0 00-3-3H6z" fill="#6F767E"/><path fill-rule="evenodd" clip-rule="evenodd" d="M6.5 17.5a1 1 0 011-1H13a1 1 0 110 2H7.5a1 1 0 01-1-1zM6.5 6.5a1 1 0 011-1H13a1 1 0 110 2H7.5a1 1 0 01-1-1z" fill="#6F767E"/><path d="M17.5 17.5a1 1 0 11-2 0 1 1 0 012 0zM17.5 6.5a1 1 0 11-2 0 1 1 0 012 0z" fill="#6F767E"/></svg>