<svg width="20" height="20" viewBox="0 0 20 20" fill="none" xmlns="http://www.w3.org/2000/svg"><path fill-rule="evenodd" clip-rule="evenodd" d="M10.055 3.772a4.367 4.367 0 016.17 6.182l-1.47 1.469a.833.833 0 01-1.178-1.179l1.469-1.468a2.7 2.7 0 00-3.815-3.823l-1.476 1.47a.833.833 0 01-1.176-1.18l1.476-1.47zM6.421 8.576a.833.833 0 01.003 1.179l-1.47 1.476a2.7 2.7 0 003.822 3.815l1.468-1.469a.833.833 0 011.179 1.179l-1.469 1.468a4.367 4.367 0 01-6.182-6.169l1.47-1.476a.833.833 0 011.18-.003z" fill="#6F767E"/><path fill-rule="evenodd" clip-rule="evenodd" d="M12.256 7.744a.833.833 0 010 1.179l-3.333 3.333a.833.833 0 11-1.179-1.179l3.333-3.333a.833.833 0 011.179 0z" fill="#6F767E"/></svg>