<svg width="240" height="24" viewBox="0 0 240 24" fill="none" xmlns="http://www.w3.org/2000/svg"><path d="M229.335 23.003v-2.098l6.212-7.69v-.092h-5.997v-2.808h10.235v2.288l-5.832 7.5v.091H240v2.81h-10.665zM222.18 23.25c-1.3 0-2.418-.274-3.354-.825a5.582 5.582 0 01-2.148-2.313c-.496-.986-.743-2.12-.743-3.403 0-1.3.25-2.44.751-3.42a5.591 5.591 0 012.156-2.305c.931-.556 2.038-.834 3.321-.834 1.107 0 2.076.2 2.908.603.831.402 1.489.966 1.974 1.693.485.727.752 1.58.801 2.56h-3.32c-.094-.633-.342-1.142-.744-1.527-.396-.391-.917-.587-1.561-.587-.545 0-1.022.149-1.429.446-.402.292-.716.719-.942 1.28-.226.562-.339 1.242-.339 2.041 0 .81.111 1.498.331 2.065.226.567.542 1 .95 1.297.407.297.884.446 1.429.446.402 0 .763-.082 1.082-.248.325-.165.592-.405.801-.718.215-.32.356-.703.422-1.149h3.32c-.055.97-.319 1.823-.793 2.561-.468.733-1.115 1.305-1.941 1.718-.826.413-1.803.62-2.932.62zM212.273 23.218a1.93 1.93 0 01-1.404-.578 1.928 1.928 0 01-.579-1.405c0-.54.193-1.002.579-1.387a1.93 1.93 0 011.404-.579c.529 0 .991.193 1.388.579.396.385.594.848.594 1.387 0 .364-.093.697-.28 1a2.143 2.143 0 01-.719.718 1.893 1.893 0 01-.983.265z" fill="#6F767E"/><path d="M196.737 23.003V6.085h11.399v2.95h-7.823v4.03h7.237v2.95h-7.237v4.04h7.856v2.948h-11.432zM194.87 12.008h-3.619a3.551 3.551 0 00-.404-1.247 3.183 3.183 0 00-.785-.942 3.455 3.455 0 00-1.107-.595 4.236 4.236 0 00-1.347-.206c-.875 0-1.638.217-2.288.652-.65.43-1.153 1.058-1.511 1.884-.358.82-.537 1.817-.537 2.99 0 1.206.179 2.22.537 3.04.363.82.87 1.44 1.52 1.859.649.418 1.401.628 2.255.628.479 0 .922-.064 1.33-.19a3.489 3.489 0 001.098-.554c.32-.248.584-.548.793-.9a3.49 3.49 0 00.446-1.206l3.619.016a6.544 6.544 0 01-.703 2.247 6.748 6.748 0 01-1.495 1.925c-.622.562-1.366 1.008-2.23 1.338-.859.325-1.831.487-2.916.487-1.509 0-2.858-.341-4.048-1.024-1.184-.683-2.12-1.671-2.808-2.966-.683-1.294-1.025-2.86-1.025-4.7 0-1.845.347-3.414 1.041-4.708s1.636-2.28 2.825-2.958c1.19-.682 2.528-1.024 4.015-1.024.98 0 1.889.138 2.726.413a6.922 6.922 0 012.239 1.206 6.223 6.223 0 011.586 1.925c.413.76.677 1.63.793 2.61z" fill="#111315"/><path d="M165.557 23.003V6.085h3.576v7.46h.224l6.088-7.46h4.287l-6.278 7.575 6.352 9.343h-4.279l-4.634-6.955-1.76 2.147v4.808h-3.576zM159.735 6.085h3.577v10.987c0 1.234-.295 2.313-.884 3.238-.584.925-1.402 1.647-2.454 2.164-1.051.513-2.277.769-3.676.769-1.404 0-2.632-.256-3.684-.769-1.052-.517-1.869-1.239-2.453-2.164-.584-.925-.876-2.004-.876-3.238V6.085h3.577v10.681c0 .645.14 1.217.421 1.719a3.08 3.08 0 001.206 1.18c.518.287 1.121.43 1.809.43.694 0 1.297-.143 1.809-.43.518-.285.917-.68 1.198-1.18.287-.502.43-1.074.43-1.719V6.086zM135.498 23.003h-3.833l5.84-16.918h4.61l5.832 16.918h-3.833l-4.238-13.052h-.132l-4.246 13.052zm-.24-6.65h9.054v2.792h-9.054v-2.792z" fill="#111315"/><path d="M130.523 6.085v16.918h-4.089V6.085h4.089zm-3.428-1.61l1.668-3.726h3.577l-2.495 3.726h-2.75zM124.561 6.085v16.918h-3.47l-6.732-9.764h-.108v9.764h-4.089V6.085h3.519l6.658 9.748h.141V6.085h4.081zM96.755 6.085l3.784 12.391h.14l3.783-12.39h4.577l-5.708 16.917h-5.444L92.179 6.085h4.576zM92.224 14.544c0 1.862-.358 3.44-1.074 4.734-.716 1.294-1.685 2.277-2.907 2.949-1.218.671-2.583 1.007-4.098 1.007-1.52 0-2.888-.338-4.105-1.016-1.217-.677-2.184-1.66-2.9-2.949-.71-1.294-1.065-2.869-1.065-4.725 0-1.861.355-3.439 1.065-4.733.716-1.294 1.683-2.277 2.9-2.95 1.217-.671 2.585-1.007 4.105-1.007 1.515 0 2.88.336 4.098 1.008 1.222.672 2.191 1.655 2.907 2.949.716 1.294 1.074 2.872 1.074 4.733zm-4.18 0c0-1.101-.157-2.032-.47-2.792-.309-.76-.755-1.335-1.339-1.726-.578-.391-1.275-.587-2.09-.587-.81 0-1.506.196-2.09.587-.583.39-1.032.966-1.346 1.726-.309.76-.463 1.69-.463 2.792 0 1.102.154 2.032.463 2.792.314.76.763 1.336 1.346 1.727.584.39 1.28.586 2.09.586.815 0 1.512-.195 2.09-.586.584-.391 1.03-.967 1.338-1.727.314-.76.471-1.69.471-2.792zM61.43 9.406v-3.32h14.3v3.32H70.6v13.597h-4.031V9.406H61.43zM47.28 23.003V6.085h6.989c1.266 0 2.36.229 3.279.686.925.452 1.638 1.101 2.14 1.95.5.842.751 1.842.751 2.998 0 1.173-.256 2.17-.768 2.99-.512.816-1.24 1.438-2.18 1.867-.943.424-2.058.636-3.346.636h-4.42v-3.221h3.66c.616 0 1.131-.08 1.544-.24.419-.165.735-.413.95-.743.215-.336.323-.766.323-1.289 0-.523-.108-.955-.323-1.297-.215-.347-.531-.606-.95-.776-.418-.177-.933-.265-1.544-.265h-2.016v13.622H47.28zm9.524-7.732l4.213 7.732h-4.46l-4.13-7.732h4.377zM45.59 14.544c0 1.862-.358 3.44-1.074 4.734-.715 1.294-1.685 2.277-2.907 2.949-1.217.671-2.583 1.007-4.098 1.007-1.52 0-2.888-.338-4.105-1.016-1.217-.677-2.183-1.66-2.9-2.949-.71-1.294-1.065-2.869-1.065-4.725 0-1.861.355-3.439 1.066-4.733.715-1.294 1.682-2.277 2.899-2.95 1.217-.671 2.586-1.007 4.105-1.007 1.515 0 2.88.336 4.098 1.008 1.222.672 2.192 1.655 2.907 2.949.716 1.294 1.074 2.872 1.074 4.733zm-4.18 0c0-1.101-.156-2.032-.47-2.792-.309-.76-.755-1.335-1.338-1.726-.579-.391-1.275-.587-2.09-.587-.81 0-1.507.196-2.09.587-.584.39-1.033.966-1.347 1.726-.308.76-.463 1.69-.463 2.792 0 1.102.155 2.032.463 2.792.314.76.763 1.336 1.347 1.727.583.39 1.28.586 2.09.586.815 0 1.511-.195 2.09-.586.583-.391 1.03-.967 1.338-1.727.314-.76.47-1.69.47-2.792zM15.146 23.003V6.085h6.988c1.267 0 2.36.248 3.28.744a5.207 5.207 0 012.14 2.057c.5.875.751 1.894.751 3.056 0 1.168-.256 2.19-.768 3.065-.507.87-1.23 1.545-2.173 2.024-.941.479-2.06.718-3.353.718h-4.313v-3.221h3.553c.616 0 1.131-.108 1.544-.322.419-.215.735-.515.95-.9.215-.392.322-.846.322-1.364 0-.523-.107-.975-.322-1.355a2.162 2.162 0 00-.95-.892c-.418-.209-.933-.314-1.544-.314h-2.016v13.622h-4.089zM9.632 11.157c-.055-.605-.3-1.076-.735-1.412-.43-.342-1.044-.512-1.842-.512-.53 0-.97.069-1.322.206-.353.138-.617.328-.793.57-.176.237-.267.51-.273.818-.01.253.039.476.149.67.116.192.28.363.496.511.22.143.484.27.793.38.308.11.655.207 1.04.29l1.454.33c.837.182 1.575.424 2.214.727.644.303 1.184.663 1.62 1.082.44.418.773.9.999 1.445.226.546.341 1.157.347 1.834-.006 1.069-.276 1.986-.81 2.751-.534.766-1.302 1.352-2.305 1.76-.996.407-2.2.61-3.61.61-1.415 0-2.648-.211-3.7-.635-1.052-.424-1.87-1.069-2.454-1.933-.583-.865-.883-1.958-.9-3.28h3.916c.033.546.179 1 .437 1.363.26.364.614.64 1.066.826.457.188.986.281 1.586.281.55 0 1.019-.074 1.404-.223.391-.148.691-.355.9-.62.21-.264.317-.566.323-.908a1.252 1.252 0 00-.298-.818c-.192-.231-.49-.43-.892-.595-.396-.17-.903-.327-1.52-.47l-1.767-.413c-1.465-.336-2.619-.879-3.462-1.628-.842-.754-1.26-1.773-1.255-3.056-.006-1.046.275-1.963.842-2.75.568-.788 1.352-1.402 2.355-1.843 1.002-.44 2.145-.66 3.428-.66 1.31 0 2.448.222 3.411.668.97.44 1.721 1.06 2.256 1.859.534.798.806 1.724.817 2.775H9.632z" fill="#FF6100"/></svg>