<svg width="120" height="120" viewBox="0 0 120 120" fill="none" xmlns="http://www.w3.org/2000/svg"><path d="M92.124 86.758c6.733-7.571 10.822-17.539 10.822-28.46 0-23.683-19.228-42.881-42.946-42.881-23.718 0-42.945 19.198-42.945 42.881 0 10.921 4.089 20.889 10.822 28.46l-2.122 2.119-.885.883a47.757 47.757 0 002.84 2.899 47.16 47.16 0 0021.382 11.493A47.41 47.41 0 0060 105.417c3.755 0 7.407-.438 10.909-1.265a47.16 47.16 0 0023.444-13.548c.262-.278.522-.56.777-.844l-.884-.883-2.122-2.119z" fill="#fff"/><path d="M88.404 88.778l-2.12-2.117-1.591-1.588a36.425 36.425 0 01-13.965 8.021l.657 2.147.877 2.862.365 1.192a42.918 42.918 0 0016.66-9.635l-.883-.882z" fill="#B71E24"/><path d="M69.299 98.893l-.879-2.87-.66-2.153c-2.5.541-5.097.826-7.76.826a36.66 36.66 0 01-7.76-.826l-.66 2.153-.878 2.87-.366 1.195a43.158 43.158 0 009.664 1.09c3.324 0 6.559-.377 9.665-1.09l-.366-1.195z" fill="#F89C0E"/><path d="M35.307 85.073l-1.59 1.588-2.12 2.117-.884.882a42.92 42.92 0 0016.66 9.635l.365-1.192.876-2.862.658-2.147a36.427 36.427 0 01-13.965-8.02z" fill="#1C63B7"/><path d="M90.466 86.724c.261-.28.519-.563.773-.85 6.507-7.343 10.458-16.999 10.458-27.576 0-22.994-18.669-41.635-41.698-41.635-23.028 0-41.696 18.64-41.696 41.635 0 10.577 3.95 20.233 10.458 27.577.253.286.51.57.772.849l-.883.882-2.12 2.116a45.916 45.916 0 0019.966 12.435c.974.298 1.961.565 2.961.8A46.177 46.177 0 0060 104.17c3.628 0 7.158-.42 10.543-1.213a45.918 45.918 0 0022.927-13.235l-2.12-2.116-.883-.882zM48.614 95.24l-.877 2.862-.364 1.192a42.917 42.917 0 01-16.66-9.635l.882-.882 2.12-2.117 1.591-1.588a36.422 36.422 0 0013.965 8.021l-.657 2.147zm11.385 5.938a43.1 43.1 0 01-9.664-1.091l.366-1.195.879-2.87.659-2.153c2.5.541 5.097.827 7.76.827 2.664 0 5.26-.286 7.761-.827l.66 2.153.878 2.87.366 1.195A43.104 43.104 0 0160 101.179zm0-79.28c-20.132 0-36.453 16.296-36.453 36.399a36.226 36.226 0 009.698 24.72l-1.59 1.589a37.65 37.65 0 01-.77-.852c-5.968-6.799-9.585-15.707-9.585-25.457 0-21.342 17.327-38.643 38.7-38.643 21.375 0 38.701 17.301 38.701 38.643 0 9.75-3.617 18.658-9.584 25.457-.253.288-.51.572-.77.852l-1.59-1.588a36.227 36.227 0 009.698-24.72c0-20.104-16.322-36.4-36.455-36.4zm12.628 77.396l-.365-1.192-.877-2.862-.657-2.147a36.424 36.424 0 0013.965-8.021l1.59 1.588 2.12 2.117.884.882a42.914 42.914 0 01-16.66 9.635z" fill="#000"/><path d="M68.74 49.517l8.988 2.41V46.33c0-6.039-4.938-10.97-10.986-10.97H53.26c-6.047 0-10.986 4.931-10.986 10.97v3.24c0 4.71 2.664 9.309 8.74 10.915l15.674 4.155c1.248.333 2.053 1.164 2.053 2.521v4.1c0 1.08-.915 1.994-1.998 1.994H53.26a1.988 1.988 0 01-1.997-1.995v-4.099l-8.989-2.382v5.484c0 6.04 4.938 10.97 10.986 10.97h13.483c6.048 0 10.986-4.93 10.986-10.97v-3.213c0-4.71-2.663-9.308-8.738-10.914l-15.675-4.155c-1.248-.332-2.053-1.163-2.053-2.521v-4.128c0-1.19.805-1.994 1.998-1.994h13.482c1.11 0 1.998.887 1.998 1.994v4.184z" fill="#fff"/><path d="M60 19.655c-21.374 0-38.701 17.3-38.701 38.643 0 9.75 3.617 18.658 9.584 25.457.253.288.51.572.77.852l1.591-1.588a36.227 36.227 0 01-9.698-24.721c0-20.103 16.32-36.4 36.454-36.4 20.133 0 36.454 16.297 36.454 36.4a36.228 36.228 0 01-9.699 24.721l1.59 1.588c.262-.28.519-.564.771-.852 5.968-6.799 9.585-15.706 9.585-25.457C98.7 36.956 81.374 19.655 60 19.655z" fill="#fff"/></svg>