<svg width="120" height="120" viewBox="0 0 120 120" fill="none" xmlns="http://www.w3.org/2000/svg"><path d="M23.5 86.495V76.149l6.974.001 6.974.002 1.325 2.323 1.325 2.323 19.4.033 19.4.033v-13.36H34.947L29.223 62.3l-5.722-5.206V45.305L23.5 33.517l6.012-5.009 6.012-5.008h38.137l.947 1.899c.52 1.044.98 1.899 1.02 1.899.04 0 .777-.853 1.638-1.897l1.567-1.896 8.873-.003 8.873-.002v20.3H82.606l-1.489-2.16-1.488-2.162H41.18v12.049h44.34l5.53 5.69 5.53 5.689v23.919l-6.013 5.008-6.013 5.01-19.098-.034-19.098-.033-1.113-1.914-1.113-1.914-1.443 1.941-1.443 1.942-8.873.005-8.873.005V86.495z" fill="#651B2D"/></svg>