<svg width="16" height="16" viewBox="0 0 16 16" fill="none" xmlns="http://www.w3.org/2000/svg"><g clip-path="url(#clip0_11088_171810)"><g clip-path="url(#clip1_11088_171810)"><path d="M6.173 6.3v-.622a4.934 4.934 0 00-.654-.047 4.857 4.857 0 00-4.852 4.852c0 1.64.819 3.093 2.072 3.972a4.828 4.828 0 01-1.303-3.303 4.86 4.86 0 014.737-4.851z" fill="#25F4EE"/><path d="M6.29 13.362c1.193 0 2.168-.95 2.211-2.132L8.505.67h1.929a3.77 3.77 0 01-.06-.67H7.738l-.007 10.56a2.216 2.216 0 01-2.21 2.133c-.37 0-.72-.093-1.029-.256a2.203 2.203 0 001.798.925zM14.04 4.253v-.587c-.737 0-1.42-.217-1.997-.594a3.642 3.642 0 001.997 1.181z" fill="#25F4EE"/><path d="M12.043 3.072a3.64 3.64 0 01-.9-2.403h-.706a3.65 3.65 0 001.606 2.403zM5.522 8.265c-1.221 0-2.214.994-2.214 2.214 0 .851.484 1.591 1.188 1.962a2.19 2.19 0 01-.42-1.292c0-1.221.994-2.214 2.214-2.214.228 0 .449.039.655.103V6.347A4.934 4.934 0 006.29 6.3c-.039 0-.074.003-.113.003V8.37a2.119 2.119 0 00-.655-.104z" fill="#FE2C55"/><path d="M14.04 4.254V6.3a6.273 6.273 0 01-3.666-1.179v5.357a4.857 4.857 0 01-4.852 4.852 4.833 4.833 0 01-2.78-.88A4.844 4.844 0 006.291 16a4.857 4.857 0 004.851-4.851V5.792A6.273 6.273 0 0014.81 6.97V4.336a3.61 3.61 0 01-.77-.082z" fill="#FE2C55"/><path d="M10.373 10.48V5.121A6.273 6.273 0 0014.04 6.3V4.254a3.663 3.663 0 01-1.997-1.182 3.68 3.68 0 01-1.61-2.403H8.506L8.5 11.23a2.216 2.216 0 01-2.21 2.132c-.74 0-1.392-.366-1.798-.922a2.218 2.218 0 01-1.189-1.96c0-1.222.993-2.215 2.214-2.215.228 0 .449.04.655.103V6.304a4.854 4.854 0 00-4.737 4.848c0 1.274.494 2.434 1.302 3.303.787.552 1.748.88 2.78.88a4.866 4.866 0 004.855-4.856z" fill="#000"/></g></g><defs><clipPath id="clip0_11088_171810"><path fill="#fff" d="M0 0h16v16H0z"/></clipPath><clipPath id="clip1_11088_171810"><path fill="#fff" d="M0 0h16v16H0z"/></clipPath></defs></svg>