<svg width="24" height="24" viewBox="0 0 24 24" fill="none" xmlns="http://www.w3.org/2000/svg"><path fill-rule="evenodd" clip-rule="evenodd" d="M12 7a4 4 0 00-2.989 6.659c-1.059.505-1.87 1.236-2.466 1.95a9.096 9.096 0 00-1.398 2.322 5.745 5.745 0 00-.094.249 1.01 1.01 0 00.631 1.269 1 1 0 001.265-.632l.008-.023.043-.112a7.094 7.094 0 011.08-1.792c.81-.97 2.051-1.89 3.92-1.89 1.87 0 3.11.92 3.92 1.89A7.09 7.09 0 0117 18.682c.02.05.035.088.043.112l.009.023v.002a1 1 0 001.897-.636 4.423 4.423 0 00-.095-.252 9.096 9.096 0 00-1.398-2.322c-.596-.714-1.407-1.445-2.467-1.95A4 4 0 0012 7zm-2 4a2 2 0 114 0 2 2 0 01-4 0z" fill="#111315"/><path fill-rule="evenodd" clip-rule="evenodd" d="M12 20a8 8 0 100-16 8 8 0 000 16zm0 2c5.523 0 10-4.477 10-10S17.523 2 12 2 2 6.477 2 12s4.477 10 10 10z" fill="#111315"/></svg>