<svg width="120" height="120" viewBox="0 0 120 120" fill="none" xmlns="http://www.w3.org/2000/svg"><path fill-rule="evenodd" clip-rule="evenodd" d="M59.81 15c7.57 0 15.51.98 22.721 3.342l1.391.456v3.282c-.056 4.57 2.785 8.65 6.98 10.364l1.257.513v32.567c0 12.878-5.884 23.371-16.01 31.045-3.34 2.529-7.033 4.668-10.86 6.367-1.578.698-3.355 1.426-5.02 1.903l-.558.161-.558-.161c-1.653-.477-3.419-1.207-4.983-1.907-3.803-1.699-7.469-3.84-10.78-6.368-10.081-7.695-15.89-18.199-15.89-31.04V32.98l1.227-.525c4.11-1.756 6.87-5.822 6.814-10.325v-3.275l1.385-.46C44.182 15.995 52.188 15 59.81 15z" fill="#fff"/><path fill-rule="evenodd" clip-rule="evenodd" d="M59.81 17.022c8.236 0 15.864 1.2 22.093 3.241v1.791c-.07 5.539 3.404 10.288 8.235 12.261v31.209c0 28.66-30.424 37.375-30.424 37.375s-30.192-8.715-30.192-37.375V34.315c4.726-2.021 8.108-6.744 8.04-12.209v-1.793c6.257-2.07 13.942-3.29 22.248-3.29z" fill="#000"/><path fill-rule="evenodd" clip-rule="evenodd" d="M89.128 48.81V48.365c-8.542.002-16.95 2.162-24.358 6.432-.096.054-.191.111-.289.166a39.19 39.19 0 011.858 2.368c3.244 4.493 5.5 9.686 6.363 15.144 6.842-2.965 12.264-8.173 14.853-15.116a25.056 25.056 0 001.573-8.55z" fill="#FBC707"/><path fill-rule="evenodd" clip-rule="evenodd" d="M59.863 101.794c.29-.091.578-.194.86-.294a46.896 46.896 0 003.395-1.361c3.613-1.607 7.1-3.633 10.25-6.026 9.344-7.096 14.76-16.69 14.76-28.59v-9.715a26.183 26.183 0 01-5.354 9.878c-2.985 3.458-6.764 6.064-10.927 7.825.145 1.163.226 2.336.24 3.514a29.728 29.728 0 01-1.63 10.081 28.388 28.388 0 01-7.862 11.835 29.486 29.486 0 01-3.732 2.853z" fill="#ED1C24"/><path fill-rule="evenodd" clip-rule="evenodd" d="M54.96 75.093v-.002l.018.002c.425.013.842.048 1.253.103 5.495.36 10.81-.466 15.508-2.323-.936-6.246-3.784-12.298-8.135-17.38-6.421 3.952-11.843 9.435-15.532 16.035a40.492 40.492 0 00-3.799 9.342 12.113 12.113 0 0110.686-5.777z" fill="#fff"/><path fill-rule="evenodd" clip-rule="evenodd" d="M53.535 99.286c.62.305 1.242.6 1.871.879 1.025.458 2.069.886 3.125 1.27 5.473-3.303 9.758-8.304 11.97-14.661 1.46-4.193 1.873-8.567 1.375-12.87a34.837 34.837 0 01-5.36 1.587c-2.2.463-4.434.72-6.674.782A12.124 12.124 0 0166.73 87.21c0 6.694-5.428 12.124-12.122 12.124-.362 0-.719-.017-1.072-.048z" fill="#59C134"/><path fill-rule="evenodd" clip-rule="evenodd" d="M63.668 39.196a62.131 62.131 0 017.276-2.632v-6.847a77.732 77.732 0 00-7.276-.683v10.162zM47.1 49.834a59.752 59.752 0 017.276-5.62V29.12a78.823 78.823 0 00-7.276.814v19.9zm-16.568-14.87v30.56c0 2.852.31 5.575.909 8.162a53.48 53.48 0 014.163-9.485 54.681 54.681 0 012.203-3.604V32.105a53.159 53.159 0 00-7.275 2.86zm49.707-.391a64.583 64.583 0 016.675-.57 61.508 61.508 0 00-6.675-2.322v2.892z" fill="#3658B0"/><path fill-rule="evenodd" clip-rule="evenodd" d="M55.383 43.564a61.582 61.582 0 017.274-3.92V28.991c-.95-.03-1.9-.046-2.847-.046-1.46 0-2.94.036-4.427.116v14.503zM38.814 59.126a57.364 57.364 0 017.276-8.358V30.106c-2.459.432-4.896.99-7.276 1.69v27.33zm33.138-22.851a64.103 64.103 0 017.275-1.556v-3.318a70.372 70.372 0 00-7.275-1.534v6.408z" fill="#ED1C24"/><path fill-rule="evenodd" clip-rule="evenodd" d="M38.572 21.05v1.043c.048 3.947-1.588 7.628-4.32 10.273 7.477-2.815 16.217-4.432 25.558-4.432 9.287 0 17.98 1.599 25.43 4.382-2.747-2.634-4.397-6.312-4.347-10.273V21c-6.72-2.1-14.078-2.968-21.083-2.968-7.054 0-14.477.88-21.238 3.017zM89.128 34.975c-27.337 0-50.356 17.192-57.206 40.563 1.772 6.067 5.193 11.356 9.99 15.823 0-.055-.004-.108-.004-.16 0-24.21 21.146-43.843 47.22-43.843V34.975z" fill="#fff"/><path fill-rule="evenodd" clip-rule="evenodd" d="M56.449 76.248l-1.863 1.882 1.933 2.836 4.016.568 2.167-1.937c-1.62-1.69-3.843-2.944-6.253-3.349zm4.872 5.938l.186 4.288 2.38 2.31 1.764-.322c.332-2.745-.382-5.806-2.291-8.097l-2.04 1.82zm-5.747 10.016l1.68-3.63 3.647-1.263 2.06 2.028-1.586 3.74-3.85 1.338-1.951-2.213zm2.153 3.264l3.646-1.315.928 1.032c-1.483 1.643-3.988 2.813-6.38 3.061l-.452-.77 2.258-2.008zm-3.003 2.856l-.258-.453-4.455-1.423-1.32.205c1.607 1.032 4.03 1.724 6.033 1.671zM50.514 87l-1.265 2.99 1.883 2.608 3.505-.84 1.58-3.394-2.333-2.385-3.37 1.021zm-2.953 8.79l-.022-.004c-1.18-.972-2.232-2.14-3.13-4.152l.767-1.522 3.371.568 1.79 2.611-.77 2.21-2.006.289zm-3.594-5.362l.533-.961-.278-3.7-.593-.268c-.064.46-.136.994-.136 1.712 0 .82.166 2.197.474 3.217zm5.228-10.466l-1.79-1.212a11.113 11.113 0 00-3.579 5.755l.005.003.92.386 2.666-1.435 1.778-3.497zm-.71 3.7l1.65-3.722 3.625-1.226 1.856 2.722-2.065 3.648-3.218.959-1.848-2.382z" fill="#fff"/><path fill-rule="evenodd" clip-rule="evenodd" d="M72.545 25.75l-2.808-6.09-1.34-.198-1.17 7.714 1.318.198.833-5.484 2.837 6.036 1.315.207 1.17-7.716-1.316-.196-.839 5.53zm-5.866-6.38l-.093 1.328-2.685-.19-.12 1.675 2.313.163-.092 1.31-2.313-.164-.152 2.138 2.686.19-.094 1.33-4.015-.284.552-7.781 4.013.286zm-5.496 1.05l-3.393 5.135h3.393v1.334h-4.912v-1.334l3.394-5.136H56.27v-1.332h4.912v1.332zm-8.386 5.4l2.348-.206.117 1.327-3.675.323-.685-7.77 1.327-.118.569 6.444zm-4.231-3.882c-.15-.774-.889-.693-1.179-.635l-1.051.208.328 1.667 1.051-.206c.348-.069 1.002-.263.85-1.034zm-1.649 2.529l.67 3.41c-.416.083-.89.17-1.306.257l-1.507-7.653 1.308-.258c1.215-.24 3.368-.663 3.785 1.458.454 2.303-1.377 2.476-2.95 2.786zm23.743-4.104l-.54-1.177.913.138.45.984.722-.805.919.139-.864.964-1.6-.243zM84.38 41.888l-1.355-2.515-.82 2.74 2.174-.225zm-5.576 4.495l-1.637-8.281-1.415.28 1.637 8.28 1.415-.279zm-5.608-2.45l3.564 2.806-1.628.51-3.499-2.837 1.102 3.594c-.44.138-.938.287-1.378.423l-2.474-8.07 1.378-.422c1.281-.393 3.551-1.088 4.237 1.148.687 2.239-1.097 2.739-1.302 2.849zm-.07-2.427c.25.814-.433 1.094-.8 1.208l-1.11.34-.538-1.759 1.108-.34c.307-.094 1.092-.265 1.34.551zm-9.07 2.35a2.797 2.797 0 102.312 5.096 2.797 2.797 0 10-2.312-5.096zm-.587-1.295a4.22 4.22 0 103.485 7.687 4.22 4.22 0 00-3.485-7.687zm-3.511 3.358l-1.245.778 3.724 5.95-1.224.763-3.722-5.947-1.222.764-.754-1.204 3.667-2.295.776 1.191zm.04 8.223l-5.55-1.307.304-5.305-1.395 1.105-.272 4.375-2.025-2.552-1.138.902 5.254 6.606 1.13-.895-2.338-2.948 4.634 1.126 1.396-1.107zm-5.788 4.689l-5.836-6.099-1.042.997 5.837 6.099 1.04-.997zm-3.408 3.56l-.928 1.104-8.607-2.88.928-1.104 6.64 2.167-3.277-6.168.927-1.102 4.317 7.982zm-15.665 14.2l.939-2.73-1.343-.462-1.409 4.093 7.98 2.748.469-1.362-3.555-1.223.94-2.732-1.343-.462-.94 2.73-1.738-.6zm1.78-8.5a4.206 4.206 0 012.418-2.14l.463 1.343a2.798 2.798 0 103.558 1.735l1.345-.463a4.222 4.222 0 01-5.84 5.168 4.22 4.22 0 01-1.944-5.642zm50.942-22.783l-1.55.16-1.2-2.229-3.342.347-.725 2.43-1.554.161 2.617-8.758 1.424-.148 4.33 8.037z" fill="#000"/></svg>