<svg width="16" height="16" viewBox="0 0 16 16" fill="none" xmlns="http://www.w3.org/2000/svg"><g clip-path="url(#clip0_11088_171813)"><g clip-path="url(#clip1_11088_171813)"><path fill-rule="evenodd" clip-rule="evenodd" d="M14.26 2.996a2.005 2.005 0 011.41 1.41c.329 1.252.329 3.849.329 3.849s0 2.596-.33 3.848a2.005 2.005 0 01-1.41 1.41c-1.252.33-6.26.33-6.26.33s-5.008 0-6.26-.33a2.005 2.005 0 01-1.41-1.41c-.33-1.239-.33-3.848-.33-3.848s0-2.597.33-3.849a2.005 2.005 0 011.41-1.41c1.252-.33 6.26-.33 6.26-.33s5.008 0 6.26.33zm-3.704 5.272L6.39 10.667v-4.81l4.165 2.411z" fill="red"/></g></g><defs><clipPath id="clip0_11088_171813"><path fill="#fff" transform="translate(-.001)" d="M0 0h16v16H0z"/></clipPath><clipPath id="clip1_11088_171813"><path fill="#fff" transform="translate(-.001)" d="M0 0h16v16H0z"/></clipPath></defs></svg>