<svg width="120" height="120" viewBox="0 0 120 120" fill="none" xmlns="http://www.w3.org/2000/svg"><path d="M60 15.004c-24.85 0-44.996 20.145-44.996 44.996 0 24.85 20.146 44.996 44.996 44.996 24.851 0 44.997-20.145 44.997-44.996 0-24.85-20.146-44.996-44.997-44.996z" fill="#FEC900"/><path d="M60 16.69C36.119 16.69 16.69 36.12 16.69 60c0 23.881 19.429 43.31 43.31 43.31 23.881 0 43.31-19.429 43.31-43.31 0-23.881-19.429-43.31-43.31-43.31zM60 105c-24.813 0-45-20.187-45-45s20.187-45 45-45 45 20.187 45 45-20.187 45-45 45z" fill="#003671"/><path d="M80.96 50.212c0 1.093-.06 2.174-.141 3.249a41.45 41.45 0 01-.67 4.94 41.995 41.995 0 01-1.247 4.728 40.24 40.24 0 01-1.293 3.448c-.153.359-.317.705-.476 1.057-.23.494-.464.981-.711 1.463-.23.446-.465.893-.705 1.333-.283.5-.57.999-.87 1.492-.241.394-.494.782-.753 1.17-.223.346-.458.68-.693 1.021a42.397 42.397 0 01-5.879 6.708 41.477 41.477 0 01-7.54 5.522 42.371 42.371 0 01-3.98-2.59 42.475 42.475 0 01-3.562-2.932 41.798 41.798 0 01-3.14-3.23c1.382-.5 2.71-1.105 3.98-1.804a29.69 29.69 0 003.562-2.296 29.635 29.635 0 003.14-2.738 29.233 29.233 0 004.849-6.455c.064-.117.129-.235.188-.352.058-.106.111-.218.17-.323a29.078 29.078 0 001.393-3.114c.088-.24.176-.481.259-.722l.064-.188a28.831 28.831 0 001.523-8.053c.017-.44.035-.887.035-1.334 0-1.022-.059-2.032-.159-3.03a33.544 33.544 0 00-3.867-.74l-.435-.053a33.11 33.11 0 00-3.762-.247c-.088 0-.17-.006-.259-.006-.082 0-.165.006-.253.006a33.023 33.023 0 00-3.761.247c.223-1.48.587-2.908 1.058-4.288.476-.036.946-.07 1.422-.088a44.866 44.866 0 011.534-.035 37.898 37.898 0 012.957.123c1.01.082 2.004.194 2.986.346a36.538 36.538 0 016.107 1.516c.288 1.515.482 3.066.553 4.646a31.518 31.518 0 01-.094 4.505 32.68 32.68 0 01-.659 4.33 32.365 32.365 0 01-1.193 4.11c-.147.412-.312.823-.476 1.223-.035.094-.07.188-.106.276a33.132 33.132 0 01-1.105 2.355c-.206.406-.423.805-.647 1.198-.047.083-.094.165-.14.253a33.603 33.603 0 01-2.31 3.472 34.051 34.051 0 01-2.728 3.16 33.368 33.368 0 01-3.145 2.825 33.916 33.916 0 01-3.556 2.467 38.546 38.546 0 003.556 2.673 38.618 38.618 0 003.562-2.673 38.867 38.867 0 003.145-2.996 37.304 37.304 0 002.733-3.271 35.235 35.235 0 002.004-2.984c.106-.17.2-.347.3-.517.165-.288.335-.576.5-.87a38.63 38.63 0 001.246-2.52c.047-.105.1-.217.147-.323a37.587 37.587 0 001.904-5.416c.395-1.468.694-2.971.906-4.51.211-1.533.335-3.102.352-4.694 0-.158.012-.31.012-.47 0-1.486-.1-2.954-.264-4.393a37.252 37.252 0 014.385 2.532c.023.616.047 1.239.047 1.861z" fill="#003671"/><path d="M80.35 43.137a40.238 40.238 0 00-4.729-2.273 40.116 40.116 0 00-4.847-1.627 41.83 41.83 0 00-2.138-.518 42.484 42.484 0 00-7.608-.875c-.34-.006-.681-.023-1.028-.023-.34 0-.681.017-1.022.023-.94.024-1.874.077-2.796.159-.7.065-1.387.14-2.074.24-.923.13-1.84.289-2.738.476-.722.153-1.433.33-2.138.517-1.663.441-3.278.987-4.847 1.622a37.46 37.46 0 00-.916 4.97 36.326 36.326 0 014.494-1.857c1.474-.499 2.99-.922 4.541-1.24a29.496 29.496 0 00-.816 4.46 34.217 34.217 0 00-4.283 1.427 32.666 32.666 0 00-4.189 2.074 37.442 37.442 0 00.899 7.719c.106.499.223.992.358 1.486.223.852.488 1.697.776 2.526a35.895 35.895 0 001.128 2.89c.428.97.887 1.921 1.392 2.843.159.294.329.582.5.87a36.727 36.727 0 002.302 3.5 24.651 24.651 0 01-3.977 1.599c-.5-.717-.993-1.445-1.451-2.197-.3-.488-.582-.987-.864-1.487a40.187 40.187 0 01-1.416-2.796c-.164-.352-.323-.699-.475-1.057a39.815 39.815 0 01-.993-2.561 41.807 41.807 0 01-1.199-4.065 45.545 45.545 0 01-.346-1.551 41.437 41.437 0 01-.67-4.947c-.082-1.069-.14-2.15-.14-3.242a42.262 42.262 0 01.617-7.085c.31-1.815.727-3.59 1.262-5.31a44.882 44.882 0 015.158-2.01c.347-.105.7-.211 1.046-.31 1.374-.4 2.767-.741 4.189-1.017a43.337 43.337 0 015.293-.693c.481-.035.969-.07 1.457-.088.646-.03 1.292-.053 1.938-.053.652 0 1.299.023 1.939.053.493.017.981.053 1.463.088a43.337 43.337 0 015.287.693c1.422.276 2.82.617 4.189 1.016.352.1.705.206 1.051.312 1.769.57 3.49 1.239 5.158 2.009a41.585 41.585 0 011.263 5.31z" fill="#003671"/><path d="M64.312 50.61a25.02 25.02 0 01-.106 2 25.55 25.55 0 01-.306 2.153 25.252 25.252 0 01-1.1 4.053c-.417-.153-.84-.3-1.27-.43-.9-.282-1.824-.523-2.759-.711.394-1.035.718-2.106.947-3.206-1.223.012-2.429.112-3.6.294-.27.041-.54.094-.811.147a24.13 24.13 0 00-3.247.847c.088.447.182.888.288 1.324.206.858.453 1.7.735 2.523.018.064.041.123.059.188.177.494.359.982.559 1.465.33.811.7 1.605 1.1 2.376.053.105.112.217.164.323.153-.17.3-.335.447-.512.495-.605.953-1.235 1.383-1.893.612.094 1.212.217 1.806.358.823.194 1.635.43 2.423.706-.041.065-.077.135-.117.206-.289.488-.583.965-.9 1.43a25.281 25.281 0 01-5.877 6.099 34.514 34.514 0 01-2.306-3.476 34.25 34.25 0 01-.788-1.453 32.855 32.855 0 01-1.694-3.858 33.164 33.164 0 01-1.188-4.111v-.007a33.935 33.935 0 01-.665-4.335 29.248 29.248 0 018.217-2.5l.271-.035c1.27-.176 2.57-.27 3.888-.282h.142c.052 0 .1 0 .147.006 1.317.006 2.617.1 3.888.276l.27.036zM46.267 90.286l.636-1.155-4.698-2.59-3.427 6.218 1.44.793 1.247-2.265 2.878 1.586.636-1.155-2.877-1.585.905-1.644 3.26 1.797zm2.398 7.091c1.183.36 2.293.232 3.172-.36l-.725-1.238c-.618.395-1.273.493-1.953.286-1.27-.387-1.901-1.554-1.512-2.834.39-1.281 1.564-1.9 2.835-1.513.679.207 1.169.653 1.465 1.316l1.293-.625c-.404-.97-1.255-1.696-2.428-2.053-2.115-.644-4.133.343-4.756 2.39-.622 2.047.504 3.99 2.609 4.631zm10.697.23l3.794-4.769-.02-1.064-5.972.113.025 1.338 3.813-.072-3.805 4.768.02 1.065 6.206-.118-.026-1.338-4.035.076zm6.228 1.005l5.09-1.075-.277-1.31-3.482.736-1.19-5.636-1.608.34 1.467 6.945zm3.55-8.697l1.17-.404 1.258-1.98-1.61.557-.818 1.827zm2.601 7.223l1.553-.536-2.317-6.71-1.552.536 2.316 6.71zm4.7-9.83l2.035 3.8-5.146-2.135-1.198.642 3.35 6.258 1.431-.766-2.034-3.8 5.154 2.13 1.19-.637-3.351-6.258-1.43.766z" fill="#003671"/><path d="M35.317 86.631l.683-1.24C29.257 79.016 25.043 69.992 25.043 60c0-19.275 15.682-34.956 34.956-34.956 19.276 0 34.957 15.681 34.957 34.956 0 9.99-4.214 19.015-10.957 25.392l.683 1.24C91.84 79.991 96.329 70.51 96.329 60c0-20.032-16.297-36.33-36.33-36.33-20.032 0-36.33 16.298-36.33 36.33 0 10.51 4.49 19.992 11.648 26.631z" fill="#003671"/></svg>