<svg width="120" height="120" viewBox="0 0 120 120" fill="none" xmlns="http://www.w3.org/2000/svg"><path d="M85.144 68.526c-.605-.846-1.693-3.304-3.546-4.794-1.853-1.49-4.471-.161-4.471-.161 2.256.12 3.102.805 2.82 3.827-.282 2.98 2.014 3.948 3.464 4.39 1.45.444 2.055 1.975 2.055 1.975l.201-2.377c2.9.242 2.417-2.457 2.417-2.457-.443 1.41-2.336.483-2.94-.403zm-2.7 1.007c-.725-1.048-.08-3.102-.08-3.102l.926 1.289s-.402.967.081 1.49c.483.564 1.168.283 1.168.283l.323.443s-1.692.604-2.418-.444v.04z" fill="#00193E"/><path d="M91.67 72.03c-1.048-5.921-1.572-12.206-1.572-12.206s4.955-8.5.766-20.142c-1.732-4.874-5.157-9.346-9.628-12.85-5.72-4.472-13.173-7.332-21.069-7.332-7.895 0-16.919 2.82-23.002 7.735-12.125 2.578-18.772 6.364-18.772 6.364s-4.23 43.588 41.815 65.3a87.903 87.903 0 0015.791-9.667c1.209 1.45 1.813 2.296 3.303 2.98 4.391 1.934 7.654.081 7.654.081s3.062-.242 4.794-2.78c2.78-4.028.604-13.213-.161-17.523l.08.04zm-.121 11.642c-.121-.16-.766-.926-1.531-1.61-.886-.766-1.612-.243-2.296-.323-.766-.121-1.048-.443-1.048-.443s.08 2.86 2.337 3.343a.6.6 0 01.362.161c1.33.645 1.209 2.055.766 3.505-.524 1.611-2.78 1.652-2.78 1.652l-.282-.323-2.296-2.537-3.384-.887s2.659 2.216 3.182 3.505c.484 1.33.484 1.772.484 1.772s-1.088.121-2.457-.08c0 0-.605-.04-1.41-.322a5.082 5.082 0 01-1.773-.967c-.04 0-.08-.08-.12-.121a4.838 4.838 0 01-.444-.483c-1.37-1.733-2.054-3.465-4.069-5.197-.563-.483-1.248-.927-2.135-1.37a6.44 6.44 0 01-1.168-.765c-.967-.604-1.893-1.41-2.86-2.981-.282-.483-.564-.927-.765-1.33-.725-1.208-1.29-2.296-1.531-2.82a6.013 6.013 0 01-.161-.402l1.208-1.088c.323-.282.564-.564.766-.765.846-1.007 1.812-2.417 2.457-4.23 1.49-4.15.524-7.574.524-7.654 0 0-1.088-3.746-4.15-5.841-1.691-1.209-4.068-1.45-5.64-1.33-4.189.363-6.848 4.029-6.848 4.029 6.083-.645 8.702 2.457 8.46 5.035-.242 2.578-2.014 3.988-4.028 4.754-1.169.483-2.498.725-3.827.725-5.801 0-10.514-4.713-10.514-10.514 0-5.801 2.497-9.104 10.957-10.877 1.007-.201 3.303-.483 3.303-.483 1.209 4.713 5.922 3.142 5.922 3.142 1.45 1.611 2.054 2.9 2.256 3.827 0-.524 0-1.209-.04-2.095-.081-2.256-1.652-5.035-4.915-6.808-2.941-1.611-2.82-4.35-2.82-4.35s1.772 2.457 3.545 3.02c3.746 1.25 5.035 1.25 7.614 4.03 2.014 2.134 2.376 3.786 2.578 5.196v-.282c0-8.339-7.493-15.832-17-15.832s-17.645 7.815-17.645 17.363c0 9.547 7.735 16.96 17 16.96 9.266 0 6.607-1.008 8.661-4.311 1.25-2.014 2.176-6.325-1.45-8.621-2.175-1.088-4.31-1.047-4.31-1.047s4.15-3.787 9.144 1.208c5.64 5.64.967 17.12-10.554 18.772h.08c-15.509 2.579-28.48-8.258-28.48-23.767 0-15.51.282-4.512.765-6.607 2.78-13.374 14.704-23.405 28.924-23.405 14.22 0 27.594 11.36 29.327 26.024.241 1.933.12 3.907-.323 5.8l-.16.726s-4.311.16-6.527-5.6l.121 1.692c.202 4.35 2.256 6.486 2.256 6.486s.685.806 2.256 1.934c.927.684 2.014 1.651 2.94 3.545v.08s1.129 2.014 1.572 5.398c.08.604.282 1.893.523 3.505.806 5.237 1.692 11.28 1.692 11.28v-.04l-.241.04zm-32.066-39.84s.12.725 1.45 1.57c1.33.847 2.377 1.25 3.061 3.223 0 0-4.19.887-4.511-4.794z" fill="#00193E"/><path d="M89.213 84.76c-.081-.04-.202-.08-.282-.12 0 0 .966 3.987-2.7 4.148l1.048 1.169s2.256-.04 2.78-1.652c.483-1.49.604-2.94-.846-3.585v.04zM82.606 57.971s-2.055-2.135-2.256-6.485c-.524-11.683-6.204-24.493-26.185-24.493-19.98 0-21.028 7.694-24.976 18.611a28.225 28.225 0 00-.926 7.17c0 15.55 12.971 26.387 28.48 23.768.927-.282 9.669-3.021 10.031-10.313.242-5.035-2.095-7.412-4.35-8.58 3.585 2.296 2.699 6.606 1.45 8.62-2.055 3.304-6.567 4.311-8.661 4.311-9.225 0-17-7.453-17-16.96 0-9.506 8.137-17.362 17.644-17.362 9.507 0 17 7.533 17 15.832 0 8.298 1.128 7.533 9.749 5.8v.081zM89.333 68.928c-.443-3.343-1.53-5.398-1.53-5.398l-1.491 2.78s-.887-1.45-3.022-2.659c-1.651-.926-4.23-.684-4.23-.684.806-.081 1.733.08 2.498.684 1.853 1.49 2.9 3.948 3.545 4.794.604.846 2.498 1.813 2.94.403 0 0 .243 1.33-.603 2.054a4.7 4.7 0 01.725 1.572c.362 1.57-1.733 4.068.201 7.895l-1.813-.282.08 1.168s.283.323 1.048.444c.685.08 1.45-.444 2.297.322a12.917 12.917 0 011.57 1.651s-1.893-12.447-2.215-14.784v.04z" fill="#fff"/><path d="M82.364 66.43l.926 1.29s-.403.967.08 1.49c.484.565 1.169.283 1.169.283l.322.443s-1.692.604-2.417-.444c-.725-1.047-.08-3.101-.08-3.101v.04zM59.482 43.831s.121.726 1.45 1.572c1.33.846 2.377 1.248 3.062 3.222 0 0-4.19.887-4.512-4.794zM76.04 89.272c-4.472 3.505-9.709 6.768-15.832 9.668-38.834-18.33-41.896-52.248-41.896-62.36 0-1.893.121-2.94.121-2.94s.04 0 .08-.04c0 0 .081-.04.122-.081 0 0 .08-.04.12-.08.121-.081.283-.122.444-.242.08 0 .16-.081.241-.121a8.72 8.72 0 011.048-.484 16.46 16.46 0 011.41-.604c.523-.201 1.087-.443 1.732-.685.645-.242 1.33-.483 2.054-.765a38.051 38.051 0 013.223-1.048c.846-.282 1.773-.523 2.74-.805h.04c.644-.161 1.289-.363 2.014-.524.322-.08.685-.161 1.007-.242h.08c.685-.16 1.41-.322 2.176-.483a27.248 27.248 0 012.054-1.53c-4.068.765-7.492 1.65-10.191 2.497-7.171 2.175-11.038 4.35-11.2 4.471l-.483.282v.564c-.08.443-1.087 11.28 3.626 24.976A68.472 68.472 0 0033.177 80.49c6.808 8.017 15.67 14.623 26.346 19.659l.483.201.484-.201c5.922-2.78 11.28-6.083 16.033-9.83-.202-.241-.443-.523-.685-.846l.201-.201zM103.191 33.56v-.605c-.041 0-.564-.282-.564-.282-.161-.08-4.029-2.256-11.2-4.472-3.141-.966-7.25-2.014-12.205-2.86.684.484 1.37.967 2.054 1.49 13.415 2.579 20.787 6.768 20.787 6.768s1.369 19.981-10.394 38.552c.081.484.202 1.007.282 1.571 5.963-9.064 8.702-18.41 9.991-25.137 1.652-8.661 1.249-14.784 1.208-15.026h.041z" fill="#fff"/><path d="M80.229 49.794c2.255 5.76 6.526 5.6 6.526 5.6l.16-.726a16.53 16.53 0 00.323-5.8c-1.732-14.664-14.18-26.024-29.327-26.024-15.147 0-26.104 10.03-28.924 23.405.04-.202.08-.363.121-.564 3.948-10.917 13.656-18.612 24.976-18.612 19.014 0 25.057 11.602 26.064 22.801l.08-.08zM67.217 57.81c-4.995-4.995-9.145-1.208-9.145-1.208s9.145-.121 8.661 9.628c-.362 7.734-10.11 10.352-10.11 10.352 11.52-1.691 16.193-13.172 10.554-18.772h.04z" fill="#FFCB00"/><path d="M102.062 33.76v-.08h-.04s-.04 0-.081-.04c0 0-.08-.04-.121-.08-.12-.041-.241-.122-.402-.202-2.216-1.128-9.145-4.27-20.022-6.365.282.201.564.443.806.685.282.241.524.443.806.684 3.666 3.264 6.445 7.211 7.976 11.522.12.362.282.765.363 1.128l.241.846v.04c1.652 5.922 1.007 10.877.121 14.1-.685 2.537-1.53 3.988-1.53 3.988s.483 6.244 1.57 12.206v.12c3.465-5.519 5.801-11.118 7.372-16.315 3.465-11.561 3.102-20.947 3.022-22.115l-.081-.121zM88.93 84.64c-2.216-.484-2.336-3.344-2.336-3.344l-.081-1.169 1.813.282c-1.893-3.827.201-6.324-.202-7.895a4.702 4.702 0 00-.725-1.571c-.362.322-.926.523-1.813.443l-.2 2.377s-.645-1.531-2.055-1.974c-1.41-.484-3.707-1.41-3.465-4.391.282-2.981-.564-3.706-2.82-3.827 0 0 .887-.443 1.974-.524 0 0 2.578-.242 4.23.685 2.135 1.208 3.021 2.659 3.021 2.659l1.49-2.78c-.885-1.974-2.013-2.94-2.98-3.625-1.531-1.128-2.256-1.934-2.256-1.934-8.38 1.651-9.668-2.055-9.749-5.519-.201-1.41-.564-3.102-2.578-5.197-2.578-2.739-3.867-2.78-7.614-4.028-1.732-.564-3.545-3.021-3.545-3.021s-.12 2.739 2.82 4.35c3.303 1.813 4.834 4.552 4.915 6.808 0 .886.04 1.531.04 2.095-.201-.926-.765-2.216-2.256-3.827 0 0-4.713 1.571-5.922-3.142 0 0-2.296.282-3.303.483-8.46 1.773-10.957 6.607-10.957 10.877 0 4.27 4.713 10.514 10.514 10.514 5.801 0 2.659-.242 3.827-.725 2.014-.806 3.787-2.175 4.029-4.753.241-2.579-2.337-5.68-8.46-5.036 0 0 2.618-3.706 6.848-4.028 1.571-.121 3.948.12 5.64 1.329 3.061 2.095 4.15 5.841 4.15 5.841 0 .08.966 3.505-.525 7.654a13.634 13.634 0 01-2.094 3.746c-.162.202-.524.645-1.169 1.25l-1.208 1.087s.04.12.161.403c.242.564.806 1.611 1.53 2.82.243.403.484.846.766 1.33.927 1.57 1.894 2.376 2.86 2.98.363.282.766.524 1.169.766.846.443 1.53.886 2.135 1.37 2.014 1.731 2.699 3.464 4.068 5.196 1.37 1.732 3.787 1.933 3.787 1.933 1.088.162 2.135.121 2.457.081-.08-.725-.241-1.007-.322-1.29-.04-.16-.12-.321-.161-.483-.483-1.329-3.182-3.504-3.182-3.504l3.383.886 1.531 1.692c3.666-.201 2.7-4.15 2.7-4.15l.12-.2z" fill="#FFCB00"/></svg>